<mxfile host="65bd71144e">
    <diagram id="iewlFhTqE8yx_nTf8VCH" name="Page-1">
        <mxGraphModel dx="936" dy="659" grid="1" gridSize="10" guides="1" tooltips="1" connect="1" arrows="1" fold="1" page="1" pageScale="1" pageWidth="850" pageHeight="1100" math="0" shadow="0">
            <root>
                <mxCell id="0"/>
                <mxCell id="1" parent="0"/>
                <mxCell id="9" style="edgeStyle=none;html=1;entryX=0;entryY=0.5;entryDx=0;entryDy=0;" edge="1" parent="1" source="2" target="4">
                    <mxGeometry relative="1" as="geometry"/>
                </mxCell>
                <mxCell id="13" style="edgeStyle=orthogonalEdgeStyle;html=1;entryX=0.042;entryY=0.625;entryDx=0;entryDy=0;entryPerimeter=0;exitX=0.99;exitY=0.517;exitDx=0;exitDy=0;exitPerimeter=0;" edge="1" parent="1" source="2" target="10">
                    <mxGeometry relative="1" as="geometry"/>
                </mxCell>
                <mxCell id="15" style="edgeStyle=orthogonalEdgeStyle;html=1;" edge="1" parent="1" source="2" target="14">
                    <mxGeometry relative="1" as="geometry"/>
                </mxCell>
                <mxCell id="2" value="Do you accept no authentication and encryption between Apps and Brokers?" style="html=1;whiteSpace=wrap;aspect=fixed;shape=isoRectangle;" vertex="1" parent="1">
                    <mxGeometry x="20" y="120" width="200" height="120" as="geometry"/>
                </mxCell>
                <mxCell id="3" value="Decision Tree to Configure Event Streams Security" style="text;strokeColor=none;fillColor=none;html=1;fontSize=24;fontStyle=1;verticalAlign=middle;align=center;" vertex="1" parent="1">
                    <mxGeometry x="360" y="30" width="100" height="40" as="geometry"/>
                </mxCell>
                <mxCell id="6" value="Configuration approach" style="swimlane;fillColor=#dae8fc;strokeColor=#6c8ebf;" vertex="1" parent="1">
                    <mxGeometry x="255" y="100" width="225" height="730" as="geometry"/>
                </mxCell>
                <mxCell id="4" value="cluster: Define a plain listener, will be on port 9092" style="shape=ext;double=1;rounded=1;whiteSpace=wrap;html=1;fillColor=#dae8fc;strokeColor=#6c8ebf;" vertex="1" parent="6">
                    <mxGeometry x="40" y="40" width="120" height="80" as="geometry"/>
                </mxCell>
                <mxCell id="10" value="app: use only bootstrap &lt;br&gt;and PLAIN security" style="shape=ext;double=1;rounded=1;whiteSpace=wrap;html=1;fillColor=#d5e8d4;strokeColor=#82b366;" vertex="1" parent="6">
                    <mxGeometry x="40" y="130" width="120" height="80" as="geometry"/>
                </mxCell>
                <mxCell id="18" value="cluster: Define a SRAM listener, will be on port 9094" style="shape=ext;double=1;rounded=1;whiteSpace=wrap;html=1;fillColor=#dae8fc;strokeColor=#6c8ebf;" vertex="1" parent="6">
                    <mxGeometry x="40" y="278" width="120" height="80" as="geometry"/>
                </mxCell>
                <mxCell id="24" value="cluster: Define a tls listener, will be on port 9093" style="shape=ext;double=1;rounded=1;whiteSpace=wrap;html=1;fillColor=#dae8fc;strokeColor=#6c8ebf;" vertex="1" parent="6">
                    <mxGeometry x="40" y="500" width="120" height="80" as="geometry"/>
                </mxCell>
                <mxCell id="31" value="define a tls-user" style="shape=ext;double=1;rounded=1;whiteSpace=wrap;html=1;fillColor=#dae8fc;strokeColor=#6c8ebf;" vertex="1" parent="6">
                    <mxGeometry x="110" y="570" width="120" height="60" as="geometry"/>
                </mxCell>
                <mxCell id="32" value="define a sram-user" style="shape=ext;double=1;rounded=1;whiteSpace=wrap;html=1;fillColor=#dae8fc;strokeColor=#6c8ebf;" vertex="1" parent="6">
                    <mxGeometry x="105" y="338" width="120" height="60" as="geometry"/>
                </mxCell>
                <mxCell id="42" value="use SRAM, SSL and get server ca signed certificate,&lt;br&gt;set JAAS config" style="shape=ext;double=1;rounded=1;whiteSpace=wrap;html=1;fillColor=#d5e8d4;strokeColor=#82b366;" vertex="1" parent="6">
                    <mxGeometry x="40" y="398" width="170" height="92" as="geometry"/>
                </mxCell>
                <mxCell id="7" value="Event Streams Configuration example" style="swimlane;fillColor=#dae8fc;strokeColor=#6c8ebf;" vertex="1" parent="1">
                    <mxGeometry x="500" y="100" width="270" height="730" as="geometry"/>
                </mxCell>
                <mxCell id="11" value="" style="shape=image;verticalLabelPosition=bottom;labelBackgroundColor=#ffffff;verticalAlign=top;aspect=fixed;imageAspect=0;image=data:image/png,iVBORw0KGgoAAAANSUhEUgAAAVQAAADgCAYAAABcvp5iAAALrGlDQ1BJQ0MgUHJvZmlsZQAASImVVwdUk8kWnr+kEJJQAghICb0jvUoJvUhvgqiEJJBACDEEFOyIuIJrQUQElaWsggVdlSJrxYKFVbD3BypW1sWCDZU3ASz73nnvnXdzJvf7v9z57tyZyX9mAKA9ZIvFQlQRgCyRVBId6MOcnpjEJD0COKACBnAAlmxOjpgVGTkNQPvq/25vrwFE5i9bybT+/ff/akpcXg4HACQS4lRuDicL4gMAoB0csUQKAC6GvMFcqViGyyFWkcABQtwow+nj+JAMp47jnrGY2GhfiB8CQKay2ZJ0AKhDkGfmcdKhDg1WC2xEXIEIYm+IPTl8NhfiJRBbwhiYk7YLYpfUH3TS/6aZ+k2TzU7/hsdrGTOynyBHLGTn/5/T8b8tS5j7NYcObFRJbnQc9HQ4b/NyMmNCJ3Axh+0fAzGsFSnn84Jl64ZD3CCW+kRPxDSmSQLiJmJa+blBX3VOC6TBsRP4SmZ2qCyeAvF9To5v0te+otTwCFl+iAdzM+NYE/x7Ls/P/2uMJDt6IgYlFvBjEyAmQqyckxcji1GGWL2A7xs+wZtnsEMiJ+JteMLAibzoVLE0MuJbXmG4rBY1yAfwcr7XKOXHBo1jNFkKN8BEX2GaICB4QjOPLwmKnsCFYuHYXh7TZEv8A2X7BvKreaK4mHEereOy/UIndPbiWrgn7oG74D7QewM/IAA5QAyEgAcyQCRgAxGQwm8h/LAJjwiXQBjIhpwAstlA8sMTD+TC51CIMyAWggIkCsQADuDDJwnIAtktKp0NV6nt5C4p5DPHoiCPq8DcLNwLd8cdcVfAAmlAgGrAjBmV2flu8XzgAxWFgAtHlQkeynqkecp4my6bepuDNtdtBm0asBqsHevGDmNtMJo3ll0W/y03nUy3orPo5nQVOomuRTcC/lBLMlZbONTMh6OXgrcgCTI5sC+siOhANIHNDDCh9yO6Em2JTj/MDRv2kdXwaKwyIOXNk8o2rm+2OF8iSOdLmSz4xuAxg0Uca0umnY2dHQCy98/49n4dNfZeQdS6v3NSuB4efwKA9XznknIA2AV1J9l/50zVAVDdCkC7OSdXkjfO4bIvAlxNBbjSGvDfYwBMgRWwA07AHXjDWkNABIgFiWDW2IxkwTHPBQvAUlAMSsFasAFUgRpQDxrBbrAPtIFD4Dg4Dc6DHnAV3AZ9YAA8B0NwdkYQBCEhNISBaCC6iBFigdghLogn4o9MQ6KRRCQFSUdESC6yAFmGlCJlSBVSizQhvyEHkePIWaQXuYn0I0+RV8hHFEOpqAqqjRqjU1AXlIWGorHoTDQdnYMWoEXoarQSrUN3oa3ocfQ8ehXtQ5+jwxjA5DE1TA+zwlwwXywCS8LSMAm2CCvBKrA6rBnrwLqwy1gfNoh9wIk4A2fiVnBHBeFxOAefgy/CV+FVeCPeip/EL+P9+BD+hUAjaBEsCG6EYMJ0QjphLqGYUEHYRmghnCJcJQwQ3hKJRDW49s7EIGIiMYM4n7iKuIW4h3iM2Et8QBwmkUgaJAuSBymCxCZJScWkTaRdpKOkS6QB0nuyPFmXbEcOICeRReRCcgV5B/kI+RL5MXlETlHOSM5NLkKOK5cvt0auQa5D7qLcgNwIRYliQvGgxFIyKEsplZRmyinKHcpreXl5fXlX+Sh5gfwS+Ur5vfJn5PvlP1CVqeZUX2oyNZe6mrqdeox6k/qaRqMZ07xpSTQpbTWtiXaCdo/2ns6gW9OD6Vz6Yno1vZV+if5CQU7BSIGlMEuhQKFCYb/CRYVBRTlFY0VfRbbiIsVqxYOK1xWHlRhKtkoRSllKq5R2KJ1VeqJMUjZW9lfmKhcp1yufUH7AwBgGDF8Gh7GM0cA4xRhQIaqYqASrZKiUquxWuaAypKqs6qAarzpPtVr1sGqfGqZmrBasJlRbo7ZP7Zrax0nak1iTeJNWTmqedGnSO/XJ6t7qPPUS9T3qV9U/ajA1/DUyNdZptGnc1cQ1zTWjNOdqbtU8pTk4WWWy+2TO5JLJ+ybf0kK1zLWiteZr1Wt1aw1r62gHaou1N2mf0B7UUdPx1snQKdc5ovNUl6HrqSvQLdc9qvuMqcpkMYXMSuZJ5pCell6QXq5erd4FvRF9E/04/UL9Pfp3DSgGLgZpBuUGnQZDhrqGYYYLDHca3jKSM3Ix4httNOoyemdsYpxgvMK4zfiJibpJsEmByU6TO6Y0Uy/TOaZ1plfMiGYuZplmW8x6zFFzR3O+ebX5RQvUwslCYLHFoteSYOlqKbKss7xuRbViWeVZ7bTqt1aznmZdaN1m/WKK4ZSkKeumdE35YuNoI7RpsLltq2wbYlto22H7ys7cjmNXbXfFnmYfYL/Yvt3+pYOFA89hq8MNR4ZjmOMKx07Hz07OThKnZqenzobOKc6bna+7qLhEuqxyOeNKcPVxXex6yPWDm5Ob1G2f21/uVu6Z7jvcn0w1mcqb2jD1gYe+B9uj1qPPk+mZ4vmLZ5+Xnhfbq87rvreBN9d7m/djlhkrg7WL9cLHxkfi0+LzztfNd6HvMT/ML9CvxO+Cv7J/nH+V/70A/YD0gJ0BQ4GOgfMDjwURgkKD1gVdD9YO5gQ3BQ+FOIcsDDkZSg2NCa0KvT/NfJpkWkcYGhYStj7sTrhRuCi8LQJEBEesj7gbaRI5J/L3KGJUZFR11KNo2+gF0V0xjJjZMTti3sb6xK6JvR1nGpcb1xmvEJ8c3xT/LsEvoSyhb/qU6Qunn0/UTBQktieRkuKTtiUNz/CfsWHGQLJjcnHytZkmM+fNPDtLc5Zw1uHZCrPZs/enEFISUnakfGJHsOvYw6nBqZtThzi+nI2c51xvbjn3Kc+DV8Z7nOaRVpb2JN0jfX36U74Xv4I/KPAVVAleZgRl1GS8y4zI3J45KkwQ7skiZ6VkHRQpizJFJ7N1sudl94otxMXivjluczbMGZKESrblIDkzc9qlKvCg151rmrs8tz/PM6867/3c+Ln75ynNE83rzjfPX5n/uCCg4Nf5+HzO/M4FeguWLuhfyFpYuwhZlLqoc7HB4qLFA0sClzQupSzNXPpHoU1hWeGbZQnLOoq0i5YUPVgeuHxnMb1YUnx9hfuKmp/wnwQ/XVhpv3LTyi8l3JJzpTalFaWfVnFWnfvZ9ufKn0dXp62+sMZpzda1xLWitdfWea1rLFMqKyh7sD5sfWs5s7yk/M2G2RvOVjhU1GykbMzd2Fc5rbJ9k+GmtZs+VfGrrlb7VO/ZrLV55eZ3W7hbLm313tpco11TWvPxF8EvN2oDa1vrjOsq6on1efWPGuIbun51+bVpm+a20m2ft4u29zVGN55scm5q2qG1Y81OdGfuzqe7knf17Pbb3d5s1Vy7R21P6V6wN3fvs99Sfru2L3Rf536X/c0HjA5sbmG0lLQirfmtQ238tr72xPbegyEHOzvcO1p+t/59+yG9Q9WHVQ+vOUI5UnRk9GjB0eFj4mODx9OPP+ic3Xn7xPQTV05GnbxwKvTUmdMBp090sbqOnvE4c+is29mD51zOtZ13Ot/a7djd8ofjHy0XnC60XnS+2N7j2tPRO7X3yCWvS8cv+10+fSX4yvmr4Vd7r8Vdu3E9+XrfDe6NJzeFN1/eyrs1cnvJHcKdkruKdyvuad2r+4fZP/b0OfUd7vfr774fc//2A86D5w9zHn4aKHpEe1TxWPdx0xO7J4eeBjzteTbj2cBz8fORweI/lf7c/ML0xYG/vP/qHpo+NPBS8nL01arXGq+3v3F40zkcOXzvbdbbkXcl7zXeN35w+dD1MeHj45G5n0ifKj+bfe74EvrlzmjW6KiYLWGPHQUw2NC0NABebYdn/UQAGPDeQJkxfj8YM2T8TjOGwH/C43eIMXMCoBaePxPgWTF0OQBV/QCYNEPdVgAiaQDEugLU3v5bm7CcNHu7cS2qDzya3BsdfW0MAGk9AJ/Xjo6O1I2Ofq6Hg70DwDHR+L3kh7H/qwcy5THtv/l/AsDbPsvmaFvqAAAAimVYSWZNTQAqAAAACAAEARoABQAAAAEAAAA+ARsABQAAAAEAAABGASgAAwAAAAEAAgAAh2kABAAAAAEAAABOAAAAAAAAAJAAAAABAAAAkAAAAAEAA5KGAAcAAAASAAAAeKACAAQAAAABAAABVKADAAQAAAABAAAA4AAAAABBU0NJSQAAAFNjcmVlbnNob3RnXStrAAAACXBIWXMAABYlAAAWJQFJUiTwAAAB1mlUWHRYTUw6Y29tLmFkb2JlLnhtcAAAAAAAPHg6eG1wbWV0YSB4bWxuczp4PSJhZG9iZTpuczptZXRhLyIgeDp4bXB0az0iWE1QIENvcmUgNi4wLjAiPgogICA8cmRmOlJERiB4bWxuczpyZGY9Imh0dHA6Ly93d3cudzMub3JnLzE5OTkvMDIvMjItcmRmLXN5bnRheC1ucyMiPgogICAgICA8cmRmOkRlc2NyaXB0aW9uIHJkZjphYm91dD0iIgogICAgICAgICAgICB4bWxuczpleGlmPSJodHRwOi8vbnMuYWRvYmUuY29tL2V4aWYvMS4wLyI+CiAgICAgICAgIDxleGlmOlBpeGVsWURpbWVuc2lvbj4yMjQ8L2V4aWY6UGl4ZWxZRGltZW5zaW9uPgogICAgICAgICA8ZXhpZjpQaXhlbFhEaW1lbnNpb24+MzQwPC9leGlmOlBpeGVsWERpbWVuc2lvbj4KICAgICAgICAgPGV4aWY6VXNlckNvbW1lbnQ+U2NyZWVuc2hvdDwvZXhpZjpVc2VyQ29tbWVudD4KICAgICAgPC9yZGY6RGVzY3JpcHRpb24+CiAgIDwvcmRmOlJERj4KPC94OnhtcG1ldGE+CnEA6OUAAAAcaURPVAAAAAIAAAAAAAAAcAAAACgAAABwAAAAcAAAHZEurJWyAAAdXUlEQVR4AeydCbxWU/fHF+lVqJSkUtIsTZIiGjRIA01KyZQpimiiohElKiTRgEqzRDSimSRTlNKkUJkjhcjQ23f///u+5zn3nGe4z7nPvc9jrc+n7jl777P3Pr/9nN9Ze621zz6mUKFCR0RFEVAEFAFFIG4EjlFCjRtDrUARUAQUAYOAEqr+EBQBRUARCAgBJdSAgNRqFAFFQBFQQtXfgCKgCCgCASGghBoQkFqNIqAIKAJKqPobUAQUAUUgIASUUAMCUqtRBBQBRUAJVX8DioAioAgEhIASakBAajWKgCKgCCih6m9AEVAEFIGAEFBCDQhIrUYRUAQUASVU/Q0oAoqAIhAQAkqoAQGp1SgCioAioISqvwFFQBFQBAJCQAk1ICC1GkVAEVAElFD1N6AIKAKKQEAIKKEGBKRWowgoAoqAEqr+BhQBRUARCAgBJdSAgNRqFAFFQBFQQtXfgCKgCCgCASGghBoQkFqNIqAIKAJKqPobUAQUAUUgIASiItTBgwfLWWed5dnkyy+/LLNnz/bMiybxhhtukJtvvlm+/vpr6dOnj3z22WfRXKZlFAFFQBHIdghERaivvPKKXHDBBZ6dHz16tAwbNswzL5rELVu2SP78+U3Rxx57TIYPHx7NZYGW6dSpk5QoUULmz58vH374YaB1a2WKgCLw70EgKkI988wz5cQTTwxB5eGHH5YaNWpIvIT60ksvyUUXXWTq7ty5s0DeiRb7wujVq5dMmzYt0c1re4qAIpAiCERFqF73OmvWLKlfv37chJozZ045//zzzZQ/q6b7SqheI6xpioAiECsCWU6osXY4M8oroWYGqlqnIvDvQ0AJ9eiYv/XWW1K2bFnRKf+/7wHQO1YEgkQgoYSKY+ucc87x7P/vv/8ukydP9szzSzz33HOlRYsWUqxYMSlQoIDs2rVLNm/eLJs2bZJ3331X/vnnn3SXNmrUSMqUKZOWTvTCVVddZc5fffVV+eCDD9Ly7AH1TJgwwZ56/qWeOnXqSNWqVaVgwYLyySefyMcffyxLliyRP//80/Mam3jbbbeZw3nz5sl3330nrVu3FvpZqFAhc0/r1q2TF198UY4cOWIvCfs3o33p0KGDnHzyyenq3rp1q6xYscKkk3/eeefJGWecIf/5z39kx44dsnTp0nTXkHDSSSfJlVdeKZUqVZLTTz9d/vjjDzM+jNF7771nzDyeF3ok5suXL62ut99+2+Dx999/e5TUJEUg6xBIKKH2799funXr5nm3+/btk7PPPtszz52Ig2zKlCmGwNx59nzt2rWmrd27d9sk83f8+PHSqlWrkLRIJxAipO0lxx57rGnnnnvukeOOOy5dEUgVwty5c2e6PBKOOeYY+eabb0weRNqlSxdp3LhxurJo0TfddJPs378/XZ5NiLcva9asCXnZ2Hqxl991111y/fXXy4ABAyRPnjw2Swibsy+EtMSjB2A8cuTIkLLO/EOHDsn9998vkyZNiupF0aNHD+nbt29aFR07dpRly5alneuBIpAdEEgoodaqVUuqVasWct8VKlQwmkcshDp9+nSjwe3du9doKmg7aFFoT5UrV5ZrrrlG0F4PHjxoHGdOUr3kkkvM9N7Zidtvv91olQsWLPDVUMeNG+e8JO2YKAc0OzTsxx9/XFauXCnff/+9cF+QQPXq1eXXX3+Viy++WL788su06+yBk1Bpv3Tp0kZT37Ztm6CV0V/Ig3JTp06V3r1720vT/Y23L7Tj1FBbtmxpZhQQKi+iN954QyBt7sMSO/f70EMPhfSlZs2aQvQGDseFCxfK6tWr5f333xdIFE2VFwZjlDt3bpk4caLwoo0kYGtnEpTt16+fPPfcc5Eu03xFIKEIJJRQve6sefPm5sGIllCZ2n/66aemqtq1a8v27dvTVQv5QGZofjNmzEiX707IqA2VqS+E8dtvv0mTJk0MqTvrzpEjh9GkIcVFixYJixjc4iRUpvZt27aVw4cPhxS788475b777jMmDNrkReKWIPrirpO4YEh2zpw5Urx4cUOMTz31lCFGd1nnOXHJaNM4+wiF8xLifiFSNPuffvrJq0hIGuYiSL1w4cLCywacvv3225AyeqIIZDUCSUeoF154oZlmQmIlS5YMBL+MEioLAdDGhgwZIhCNl2BrxJ4LcWIX3bhxY0gxJ6Ey3Uezc8vxxx9vXhz8vfrqqz1tlkH0xd2uJVS074EDB5qXg7uM1zlmAMaJKf3YsWO9imQ4Dfv0Dz/8kOHr9UJFIDMRSDpCZUqKhsrUE40PzS9eyQih4pD5/PPPBS2UhQk4Z/wERxc22J49ewrmCqc4CfXyyy835OvMt8fWvolWxzTZKUH1xVknx5ZQ9+zZY0wX7ny/8wceeMBoptx3mzZtjDnEr6ymKwKphEDSESrgYzvDVIDXG+cTU2Wm/pAa00FsdbFIRgi1fPnyZgpMH7p27eoZUWD7QDhWuXLlBDvsoEGDbLL5Gy2hWg2U6TS2UqcE1RdnnRxbQiVSAYdUtIKdnIiFXLlyGW3ytddeM959HHOMDwStogikIgJJSag4O4YOHSrt27c3D61zYAhxImRp5syZxokTKWSJazNCqNb262w70jGkyIdgnBIEoQbVF2e/OLaEar387vxw50z5+S4DZO8WHFqLFy82oWiEUKkoAqmCQFISqgUfLzjT7YoVK5pwHzzkPMBMgRG80jfeeGM6J4+93v7NCKHWrVvXOGuIhcT2GY3gTMLb7ZQgCDWovjj7xXE8hGrrqlKliom4IDaW8WEBRZEiRUw2Mwk+TEOkgIoikAoIJDWheg0AZIoHmI+3cIxGiGYYTjJCqEWLFpX169ebapnO//zzz+Ga8M0LglCD6ou7k0EQqrtOziFWxoeFEIS78UJQUQRSAYGUI1Q7KE8//bRxiGBvJWYxnGSEUCFCPubCIgMC8lm94yc4rvxW9QRBqEH1xd3/zCJU2ilVqpSxf3PMgg7C5lQUgWRHIOkIlXjI7t27m2+whnsIn3nmGcFrHs3nBVetWmU+oB3rWn7CpVglBCFfccUVnr8Fprc4aPDuE0LkJtYgCJWGg+iL+wYySqgslOCD4V4hYLYN60j766+/jLkmkiMRBxexvixjxRG5fPnyqFZY2fb0ryKQCASSilDR9HBmsF6eoG4C3lmF41yzTzgVK3FYe0/cJqtrePjCCc4TQrBiJVRsuO+88475jgCOG2I1nVN/7IX0Aw2MCIQGDRqY9ezOvgRFqEH0xdkvjjNCqJAey4IRFlVA9HZVlUk8+h+hb8TtNmzY0HzQu2nTpjbL9y+RFM4IiUizAt+KNEMRyEQEoiJUPlrCEkqn8FBgoyTA/pdffnFmGe/6I488EpLGCZolK2icAulBBpCiO2CbIHhW6jiFr/uPGTPGLMkknWWdePWxxZ159EPYhOzYteasE3eu/3bW4zxmxdXcuXPNUlUvTYlIAZayeglLSgmHol8sdaUvkD0B/9g2EZaich8bNmxIV0VQhErF8faFj8M4F0vkzZvXRFEQ2H/gwIF0fWf5KN8qcAtLVkeNGpU2DsTrUo56wJGP03DfEO1ll13mudrNXeeTTz4p7dq1S0v2isdNy9QDRSCLEIiKUO33QqPtI1oZH9FwCw+B38dR3GU5x+mDxuMWHka8w82aNRO8yM7155Ql1hEbKntduafY7ro4tx8VgfRY2cS5U8J9HIVyLIccMWKEca4wNbXCElKwY62713JRygVJqNQXT1/s4gHqiUYI13JHLdjrWFqKxs/XxSBQZhdWwIWvZ0GS0X5UHO3+2WeflRNOOMHYW5mFaDyrRVT/ZhcEoiLU7NJZv35gV8Umh8YDcbGGP9pP3fnVmZF0SAMPNmTCZ/j4nKCXZpeRumO9Jjv1hY+gENqGxgsJ8o+ZTazCjAhnFi9Mp5kn1nq0vCKQWQikBKFmFjharyKgCCgCsSCghBoLWlpWEVAEFIEwCCihhgFHsxQBRUARiAUBJdRY0NKyioAioAiEQUAJNQw4mqUIKAKKQCwIKKHGgpaWVQQUAUUgDAJKqGHA0SxFQBFQBGJBQAk1FrS0rCKgCCgCYRBQQg0DjmYpAoqAIhALAkqosaClZRUBRUARCIOAEmoYcDRLEVAEFIFYEFBCjQUtLasIKAKKQBgElFDDgKNZioAioAjEgoASaixoaVlFQBFQBMIgoIQaBhzNUgQUAUUgFgSUUGNBS8sqAoqAIhAGASXUMOBoliKgCCgCsSCghBoLWlpWEVAEFIEwCCihhgFHsxQBEBg8eLDZZtwLjZdfftnsXeaVl6i0Cy+80OzhxhYxbI752muvJappbceFgBKqCxA9VQTcCITbpHL06NEybNgw9yUJPWfzQnaPRdatWyctWrRIaPva2P8QUEL9HxZ6pAh4IsD25CeeeGJI3sMPPyw1atSQ7ECovXv3lrvvvtv0jy3f+/TpE9JXPUkcAkqoicNaW0ohBGbNmiX169fPFoTKVuSVK1cWpvwffvih7gibhb8zJdQsBF+bTl4EshOhJi+KqddzJdTUG1O9owQgoISaAJCTsAkl1DgGDRta9erVZe/evTJ//nwpXry43HjjjcYjfPjwYfn0009l5syZ8sUXX0RsJUeOHNKwYUNp1KiRFCtWTDjftWuXfPDBB/LSSy/J33//7VvH5ZdfLqeffrq88cYbkjt3bmnXrp2pY+HChaZff/75p5me4rg49dRTTbmpU6f61kdGoUKFTF+qVKkipUuXls8++0w2bNggr7/+uvzwww9hr3Vn1qpVyzhKDh48KHPmzJHt27e7i2TaeYcOHeTkk0+WVatWmfHAHnrxxRfLRRddJEyVP/roI+MVj7VPGSXUeMYZkPiNNW/e3Bev2bNny08//eSbbzNuu+02czhv3jz57rvvpHXr1ma8GXd+dzi3XnzxRTly5Ii9RP9GgYASahQg+RW55557pFevXrJ69Wp5/PHHDXkef/zxIcV/++03oRxE4idlypSRSZMmSbly5TyLbN26VW666SZfIuKHX6dOHRkyZIjpz0knnZRWD/37559/5LHHHktL46BHjx4yY8aMkDR7cskll8gTTzwhBQoUsElpfyHTbt26yfLly9PSwh1A8J988onYPq1fv16aNGkS7pJA89566y0pW7as4LjhpQDhYGt0CmN0xx13CC+gaCUjhBrvONO3Bg0amN+ZXz/5HWzbts0v26TzIvnmm2/MMUTapUsXady4cbprwI7f3f79+9PlaYI3Akqo3rhElWoJFS2yYMGCsnLlSkM0Bw4cMA8xxING8ccff0jt2rXlyy+/TFfvKaecYrQnNEc0QDTdtWvXSr58+aRp06bmH2W2bNkil156qfz+++/p6rCE+u2338qoUaOMYwIi5fo9e/YImiGEykM0YMAA451+++23jVbirgyNDs81AuGiHUNEaHbt27cX8tFabr31ViGcKJKgbYOPlR9//FEqVKhgTzP9ryVUvN84kXix4bhB46cf3EeRIkXMPbVp00bAJRqJlVCDGGf6xe+JGYlTeGnxW0RiJdQFCxaYGQj4QMT87nihduzY0WjwzGR4GalEh4ASanQ4eZayhErm1VdfLUuXLg0plzdvXkOOkO306dOlZ8+eIfmcFC1a1GinECVkdejQoZAypUqVkhUrVkiuXLmkc+fOniRmCZWH/K677jLXM82FhNFGhg4dajROMqpVqyZLliwxWkf58uVD2sqTJ4+Z6vHwUw/1ueXOO++U++67T7766ishoNzdX3d5zsePH2/iJDGDoMlbwvYqG3SaJVQ0azTj3bt3hzQBgcydO9d4yZlpYC6JRmIl1CDG2a9fjDWzGCRWQmVq37ZtW2FsnGLHmdnNeeedZ8xaznw99kZACdUbl6hSLaHu3LlTsBN6CfGBvOGx1aFheknOnDnNNPTXX3/1yja2LB4Uv5hHS6hdu3Y15GArsRoH7dI+Allu3rzZmAGwu/LAWOnXr590797d2FivueYamxzy97jjjpM1a9YYjXXgwIGGLEMK+JzwcuGl4X5wfYoHlmwJFVKnv16CLRxNDalXr555EXmVc6bFSqhcG+84O9t3HsdDqEz3mYW4BdMVdmX+eikL7vJ6/n8IJC2hQh7nn3++7zhiK1u0aJFvfhAZllDDaTatWrUypPPzzz/72kgj9YXpOlMwpqvY+txiCfWWW26RV199NS0beyWaEXa3TZs2mXQ0XeskK1GiRIgJgWvBlJfA888/n1aP+wD7KtN/NDvGITuLJdRI94RZAzuvH8G47zEjhOquw30eaZzd5e15PISK+eDdd9+1VYX85cWJ3bd///4yceLEkDw98UYgaQkVjQOy8pP7779fxo4d65cdSHo0hFq3bl1DhGhm2L/CCdNzHEGnnXaa5M+f30zXKc9Djvc/VkLFVogW6iRUNA5ry3UTKlEJtM+DjbnAT4gW4EHE5ou9LTuLJVRmCeEiG5YtWyaVKlUKMY+Eu694CDWj4+zXn8wiVOz5NWvWNEtrE2mm8bvPZEhPWkLFnohtx0/QnjL7IxFBESqOG8JYsKFix/STzCRU50Pp1747PdEOJnf70ZxHS6jYlbEvP/fcc4LpI5JkhFDjHWe/PjnHLlYbajgNVQnVD3H/9KQlVP9bSlxOEISKNsrDzNQcglq8eLFxnBApYGMA8T5j58tMQiWUCFPAscceK8OHDxfswpGE6AX6np0lVkIdM2aMPPjggxFvKVZCDWKc/TqlhOqHTOLTlVDjwDwIQh05cqRce+21xkvLVBoidcujjz5qHAOZSai0icf3zKPhUZ06dTLE7u5HMp5HS6j23vv27WuiLiLda6yEGsQ4+/VJCdUPmcSnK6HGgXkQhGptd3zHkhhSL0kUoU6bNs3YRHn4R4wY4dUVk4an/6+//vLNz04ZllDDRSTgqEMjZxUT0Q2sOIsksRJqEOPs1yclVD9kEp+uhBoH5kEQKks5q1atKpAZwfheYh/GzNZQWS2D4wbTAzGmXksYIVNiaonrJB41mlU0Z511ljRr1swsMGA1EjGsiRJLqODMTMBLCBXDbkokxrnnniu//PKLV7GQtFgJNYhxDumA40QJ1QFGFh8qocYxAEEQqp0KEgVwwQUXhARQozlBWpARDo3MJlSgoA0iE1jdRHD3jh070hBiNdegQYNM8Dv9JXog0hp4bLMbN2406+mpyG+FVlojAR9YQmW9+pQpU8wCB2cs7HXXXWdspkQ/+MX5enUpVkINYpy9+kGaEqofMolPV0KNA/MgCJVljyxZ5aFgOSShSB9//LH5iAlaIsfEUGLjw0kFGbDk066Iovt+caixhk1RF6FUfFegYsWKwkdVWATAdBgt0y4ZZbqPNg2pRBLqc8Y5xhOPG6ktr3xLqNhG+fgMH7Ph2wJ26WnhwoXNZdwnzj8vrZxlmVznFMaLlwXfAXBrtGj5mHCcEsQ4Ux8fdRk3bpyzauNIZDUewuzCbY4hGgYHohXnWn718ltUgvmrhBoHjkEQKs1DXniWIVArrJpCm0NL5CEhpAptigebfYzs14IoHyShUh9EQTA3wfsQh1MgKMgCgo9WCGHjWwasyiJ+ePDRPZoSJZZQiUMFJ7RQiNV+rIWXBpEVTPv9VqqF2wLF6z4mTJhgvpngzot3nKkv0sdR3G1y7o43VkL1QimYNCXUYHAMpBZCp0qWLGlWL6GZujWNQBqJsRIWBqCdooURVmW/UhRjNXLGGWcYwtq3b1+sl8ZV3kmoNrAfOzCfJSREDHOEU3uLq7EoL86O4xxl17VYBASUUCMApNnJjYAXoSb3HWnvszMCSqjZeXS0b3EjoIQaN4RaQQwIKKHGAJYWTT4ElFCTb8ySucdKqMk8etr3iAgooUaESAsEiIASaoBgalXZDwFCzlhHj4f/nXfeyX4d1B6lFAJKqCk1nHozioAikJUIKKFmJfratiKgCKQUAkqoKTWcejOKgCKQlQgooWYl+tq2IqAIpBQCSqgpNZx6M4qAIpCVCCihZiX62rYioAikFAJKqCk1nHozioAikJUIKKFmJfratiKgCKQUAkqoKTWcejOKgCKQlQgooWYl+tq2IqAIpBQCSqgpNZx6M4qAIpCVCCihZiX62rYioAikFAJKqCk1nHozioAikJUIKKFmJfratiKgCKQUAkqoKTWcwd0MG7kNHDjQVDhmzBizUWBwtSe+JjYb7Nixo9kQkT2y2JCP3U/ZLptND9lAMBqpWrWq2XmUnURLlSpl6nj//ffNzrWff/55NFVI2bJlpXXr1mYX2TJlysiePXtMPStWrDAbM0ZTSZ48eeT666+XypUrC3Ww2eDWrVuFnW5nzJhhzqOpR8sEi4ASarB4pkxtbGD39ddfm/upVauW2Uo6WW+uZcuWMnToULM1t9c98BHqbt26yVdffeWVnZZ2yy23yAMPPCC8bNzCdtKdOnWSVatWubPSznPmzGm2/2YLcHaW9ZJnn31WhgwZEnbjwObNm5udZ+3W0e56IFbuh40eVRKLgBJqYvFOmtZShVAbNWok06dPN7izLTeEtX37dsmVK5fZzRVyK126tHl5sI03xOglPXv2lD59+pisefPmybJly8xLBg2xRYsWZgvww4cPS+fOnc221F51oPHffvvtcuTIEaNFLliwwOwkCzHWqFHDkG3evHnN9ZCzl/Bye+GFFwwhQ5xPPfWUuZ/cuXObLcbZdpwtsvfu3St169Y1u9V61aNpmYOAEmrm4Jr0taYCoUIsq1evFrbCnjZtmvTq1SvduKApQpDVq1eXESNGyMiRI9OVKVy4sJlK58iRQ4YNGyajR48OKcO21GPHjpVWrVqZ6Tvk6DYhYCpYvHixUEfXrl1l7ty5IXVwQj9XrlwpkComAV4ATuHatWvXSokSJWTbtm3SoEGDdFP7SpUqyeuvv27awVTz4IMPOqvQ40xGQAk1kwFO1upPPfVUY9ej/8k65WeqP2HCBKN1QmgHDhzwHI5q1arJkiVLTLmKFSum01LRYu+9916DR8OGDT3rgLyxyaIptm/f3hCjs+AjjzxibJ7r1q0zGq0zz3l8xx13yIABA2TNmjXSpk0bZ5Zgt4X8MR20bdtW3nzzzZB8ezJp0iRp1qyZYNvFPKCSOASUUOPAuk6dOsbJsWPHDlm6dKnkz59f6tWrJ6QXKVJENmzYYDQkt6bh12S+fPmkcePGUqVKFTMdZdq2ceNGY5ejDT/hIcZB4SXLly832gx5xYsXF4ilaNGiggaK9rZ582ZzGddTD4LGVb9+faldu7Y5f+KJJ2Tfvn3m2PkfzhSmrZEEQmZafPDgQZkzZ46Zoka6Joj8fv36Sffu3eWjjz6SSy+91LdK7heHEkSFiQDMncJeVCVLlpT+/fvLxIkTnVkhx08++aS0a9dOXnnlFTP1d2bOnz9fatasaabo2Ej9BKwgTbDC2eSWAgUKmBfcwoUL3Vlp5/a+/epIK6gHgSOghBoHpFbrwEs8aNAgWbRokRQrVixdjUwRH3roIWM7S5f5/wloH+PHj/e8HtscD+EzzzzjeXmhQoXSkYAtiE0Nm9uoUaOkQ4cOZipo83r37i1Tp041p2hXaKWxCA6YK6+8MuwlkDR1o8Eh69evlyZNmoS9JqhMtFO0VKbA1157bdhqceAwtccGCiFacWrqvOzCOXquu+46YzbAuYXW65RNmzYJtlJ+J+PGjXNmhRwTOcC0HmH6/v3334fkR3PSt29f6dGjh7ELn3POOdFcomUCQkAJNQ4gLaHioDjllFMMcXC8f/9+4+iAwCBKxM8+Rx4a7axZs4xmiEbJ8c6dOwWixLFw8803mzwcEF7aDaR1ww03UFWaME0lVAhCPeGEE2T48OECMe/atUsOHTpkykH0vASQTkedIJSzAgFamyOal5eGunv3bkHzCie8YAhNsvLjjz+acCF7npl/Bw8eLF26dJEtW7aYmYNfWzio0FDx3mNzxPZo5eyzzxbCmRBIMlwkAC+KKVOmGLsmswGcT1YgdWYHOMUwH/gJMwPGH2natKmx3fqV9UufPHmyuRaTAKYBlcQh8F8AAAD//x5dRb8AACNGSURBVO2dB5gUVdaGD6KICBIlg0oSBQQTyrKCgoug7CISFddIUEQQgTUsKibQhVVQDKCgqBhZAQOgZAFJskg0sUgUQaIoSvTv9/rftrqmuru6u3p6mDnneWa66qa69VXVd88959yqfKVLl/5NVJJC4F//+pdcf/31cuTIEbnuuutk6tSpEe3kz59fBg8eLJ06dZLdu3fLOeecIz///HNEmXz58sm0adOkdu3aMmzYMBk4cGBEPjv169eXiRMnyuHDh+XPf/6zrFu3LksZd8KiRYvklFNOMe21b99e6OsHH3xg2nCX9do/+eSTZeXKlSarQYMGsnbtWq9ivtJGjBghLVu2lAMHDsjQoUPNefqqmGKhjh07mmMdPHhQGjZsKOvXr/dssXnz5jJmzBiTd/vtt8vbb78dLte4cePwfsWKFYW2kOrVq5trtmDBAtmyZYtJO++88+TDDz8026effrq55mYn9O+pp56SDh06yDfffCOXXHJJuB2bb38ffvhh6dq1q9nlftm8ebPN8vVbqVIlmT9/vhx33HFyxx13yBtvvOGrnhYKBoF8SqjJA2kJdcWKFXLppZd6NlSkSBGB3EqUKCH33nuvjBo1KqJcq1atZOTIkbJp0yaBuCAdL/n3v/8t1157rYwbN05uu+02ryIRaZZQ9+zZI61bt5ZVq1ZF5MfbCZJQOdZJJ50kv/76a9Tzi9efZPJLliwpn376qRQrVkzmzZsnN954o4CHUypXrixvvfWWGXwYAC+77DL5/PPPw0XatWsnw4cPN/tly5aV3377TSDLTz75xKTRXp06dWT//v1St25d+fjjj036RRddJF9//XW4Hfa5dshzzz0nECcDpFMuvvhic38ULlzYDLxVq1Y1x3OWibUNiXIuDB4bN24095MdAGLV07zgEFBCTQFLS6gTJkyQbt26RW3p1VdflWbNmslrr70mffr0iSiHRnrzzTfL+PHj5ZZbbonIc+5cddVV5kHkQUETiieWUHnAevbsGa94lvygCTXLAbIpwWqpHO6HH34w2uaaNWvk+OOPlzPOOEPatm0rQ4YMkQceeMD0qEqVKhGziL///e8mn0xLqAyeY8eONeX5B6Fu27YtglC53suWLQuXYcNqqWyj/U+ePNlozWDNNb3gggtMu7169TJ1acOvMNN5/vnn5corrzSDFr9LlizxW13LBYSAEmoKQFpCjUeGdho3c+ZM4QF3ClOyJk2amKnwoEGDnFkR20z/eAAxLzCVj6bJ2kqWUO+77z6jAdt0v7+5hVA5XwYjBq7ixYtHnD7ml/79+wuaLL9eg1WLFi3k5ZdfNvUsoRYoUMCYUDDTfPTRR8asQwGnhnr22WfLd999Z+rZf9RjQO3Ro4cce+yxNtn8YjaAvJnFcD+8+eabArH6lYceesgM6mjQd955p7z++ut+q2q5ABFQQk0BTL+ECqnxEH311VfSqFGjiCNi70Ir4oHHhhpN0KZmzZplspnSoWXFEkuoaKdoqYlKbiJUzp1pPyaVM888U5jaM2VHg2NKPGPGDKlVq5bnNYhlF3VjyrV95513TLLT3uoux4B4/vnnS82aNY3WPHv2bPnyyy8NsS9fvtyQ7RVXXCGfffaZu2qWfc7l8ccfN2SMCQEyhYxVMoOAEmoKuCdKqP/9738Fjccp2NzQbNBOcdhEE4gADRc566yzZOvWrdGKmnQl1JjwhDMhrtGjRxvb6rnnnit79+4N57EB+YElgkMQp1I0wXzwzDPPGGcUdtZE5dFHH5XOnTvL3LlzpU2bNnGrY7bA/o5TDfv0rbfeKpMmTYpbTwukDwEl1BSw9UuoTzzxhPH0v/fee9KlS5eII+IBx96Fs4rpXjTBYYGmyTQVjTaeKKHGQ0gE5w/kVa5cOcHpx/V0C6TFbIDpOtEaRGREE7TDu+66S2I5KaPVrVevnjHpHHPMMcZEgRMtlqBxv/LKK8buumPHDqOhqs00FmLZk6eEmgLOllCxoxE2FU0IpWHqiHd3wIABEcV4AHkQveyrzoI33XST0WJxZjRt2tSZ5bmthOoJS0QiM4Krr75a1q1bZ5yG7ggAW9gOekznMd1Ekzlz5kiNGjXkwQcflGeffTZasSzpEPv7779vzBGEtuGkjCXly5c303q0YMLZ7DnEqqN52YOAEmoKOFtC3b59u4kxJXTGLcSQ8rAghEgRt+gUtE3seXhpcUZgZ3UL4TDY+XhYvUKv3OXZT5VQceBg10NSjUPFVnj55Zeb6TSDi9tZYw6Szf/w6nfv3l1++ukn0zcv3G2XrG30l19+MTbwDRs22Kzwr/X8Y5NF2+Se8CMnnHCCiRUF4y+++ML0Zd++fVGrcg9gI61QoYK5xgzku3btilpeM7IXASXUFPC2hEo4Dg6Evn37RjxIPCTY1Lj5Fy9ebILbvQ5nQ6cgMOxgq1evDhdjakc+NrVvv/1WiGf0E1uYKqHSAatxpUKoTJWZAnMeCHGhxMVmUu6++27p3bu3ifG84YYbZMqUKTG7w2DHoAeZMRiwmAPnEYJTiPAmQpYKFizoO06YupRn2s7iAUiRdrzImrLIqaeeaqIKwBLbOw5Hr0H899K//8dRFa+Ms7xup4aAEmoK+FlCJWwKEiQkhgeNVVEEZaN98jCyz7QMp5SX8IDgGMF7f+jQIUNATOVCiy6MA6po0aLy/fffC9N+LzsZYT82AsC2TxoP+48//mgcFjadXwiZMKx4Ys0RO3fuNP1yl4ccY8XfUt7p1GGfaTXElAkpVKiQPPnkk8ZmjRYIIdnZQ7z+lClTxtiwibZA0EC5RjgLmbIjEDM28nghbZQFl5deeslEF2BygKTtjIB8L3EuDvDK90pbunSpcVp55Wla8AgooaaAqZNQCcrv16+fWc1EvKIVCBbSibd0E2cEWhP2M8jQCt7b6dOnm7ZxPngJxIsW6Fd44FmiGE9Y3UQMLaYIjuEWwn1Y1hpP/vOf/xgPOTG02CPdduR49YPIP+200wyBQYgsQYXAmGInIgx8hCjh7S9VqlS4Klolpgyv1U/hQo4N8MSeTnsMhNwfDLrxRAk1HkKZz1dCTeEauAnVNlWtWjXjOYbk/Dwotp79xemA3ZF13HiY3UsUbbmj6ZclnkQoRBsUjqZzoa9omMxAcBJi8lFRBEBACTWF+yAaoabQpFZVBBSBoxgBJdQULp4SagrgaVVFIBcioISawkVVQk0BPK2qCORCBJRQU7ioSqgpgKdVFYFciIASagoXlbcY/elPfzLhUPp2nxSA1KqKQC5BQAk1l1xIPQ1FQBHIPAJKqJm/BtoDRUARyCUIKKHmkgupp6EIKAKZR0AJNfPXQHugCCgCuQQBJdRcciH1NBQBRSDzCCihZv4aaA8UAUUglyCghJpLLqSehiKgCGQeASXUzF8D7YEioAjkEgSUUHPJhdTTUAQUgcwjoISa+WugPVAEFIFcgoASai65kHoaioAikHkElFAzfw20B4qAIpBLEFBCzSUXUk9DEVAEMo+AEmrmr4H2IJsRuPHGG6Vz586yZcsW4UOE//vf/7K5B3q4IBGoVauW3HfffVGb7NSpU7Z9RkgJNeplSCyDT/zy4be9e/fKE088kVhlLZ2tCPB10eLFi5tj8hXUxx57LFuPz8H4fDXfpeKrq9G+hpvtnTpKD8hHE/kQZDSpWLGir0+vR6ufSLoSaiJoxShrLyqfe65bt26MkpqVaQTeffdd88lu+tG1a1eZOHFitneJY1544YXm0+OvvfZath8/Nx3wxBNPFBQap/B57+HDh5skJVQnMkfJthLqUXKhQt087rjj5IILLjBT/kxN95VQ03u/nHvuuTJp0iRzECXU9GKdltaVUNMCa65tVAk1vZdWCTW9+Ka99VatWsnIkSNFp/xphzpXHGDu3LlSvXp1nfKn6WoqoaYJ2HQ0W6xYMenYsWO4aWw4fF+qWrVqxik1ZMiQcJ5zY+HChbJ06dJwEo6RDh06mH3saD/99FM4z2sD0i5Xrpy426HsRRddJHg716xZI9OmTTNOl8aNG5t06ixfvlw++eQT+fTTT72azpJWunRpufTSS+Wss86SqlWrGk84bXz88ceyffv2LOVjJTRo0ED+9re/GWzeeecd+eabb2IVDzQPO2W9evU82/z111/l5Zdf9sxzJp5//vnCA7p582bjRKpUqZLcdNNNUrNmTTlw4IB88cUX8sYbb8j69eud1cLb4Mi9YYV6V199tdl97733ZMmSJTYr/HvkyBEzQIcTPDZoh+uOzb5UqVKycuVKWbZsmUyZMiWmE6ZRo0aCjdEtOFTHjh1rkjGL1K9f39gmixQpIvv27ZNXXnklooq9HxctWmQca5TnucDZtm3bNlmxYoWMGTNGfv7554h6Xjv2GTrvvPOEKTrPwrfffmvuN7/3rLNdJVQnGjl8G80CDSNRGThwoAwbNixc7ZhjjjHkWLlyZRO+E+vhLlmypHz++edSoEABueSSS2T16tXhdthwfoH1gQceMPYjbky3cPxBgwbJb7/95s4K7//lL3+Rp556SkqUKBFOsxuQ6e233y4zZsywSTF/TzjhBPOgFy5c2JRjQGnevHnMOkFm9u/f3/TXq80dO3Z4Eou77D/+8Q+jSTIgDR061JDn8ccfH1EMwqEcA4ZbRowYIVdeeaU7Oeb+wYMHDbF4FeK+4RpwvGOPPTZLEUj1lltukbVr12bJI2Hw4MFy3XXXZcnbuHGjQGjYl59++mlDjLbQ1q1bzeBq9/mdMGGCMFhyPzEA/POf/3Rmm+0NGzbIzTffbAb0LJn/n3DZZZeZ4xUtWtSzCIM4zsNffvnFM98rUQnVC5UcmoaGes0110T0rnbt2tKmTZuYYVMLFizIEiLTo0cPE0O3atUqadKkSUSbzp3bbrtN7r//flm8eLG0bNnSmWW2LaFOnz5dIF+0FbZ3795tNEw0Bx4WhAcqmhZNOUv6fMkVjziOG7yoaNPkQ8bdunXz5R2H1J0a2M6dO+WMM84w/ciOfzzwZ599dsShOH779u0lUULlPNAEZ82aZQaUH3/80UzbITe01v379wu2dEjEKQxQDMJO4XrS1gcffBCBjy0DQT3//PN2N+KX68N1QMOG4OnPDz/8YHDt3bu30abRCi+++OIsfaEhZi7MZqyg4UL4ECoa75w5c8z5QKLE6iJg5b7nLaHi/IHA0EbttT7nnHMM6RcqVEi++uorc28fOnTIHjL8y1eDCXlikECzZqAmjIxr1KJFC2natKkweKE533nnneF68TaUUOMhlMPzk7WhOjVPbiCvmMR8+fLJ/Pnz5bTTThMI2EsLsoTKg4j2MXXq1AjE8ufPb4iUIGdIlhvePRVjaoc5gT716tVL3nzzzYg22OnZs6fRRL777jvzCW0/WgMaGoMA02MIwBJ2lsazKeGKK66Q0aNHJ0yodA/8MKk45aSTTjLXB4L0++Ana0NlUPzwww/NFBxNH7JyCtcZYoPEIToWMcSTdu3amRAjCBWCL1OmjDz00ENhMo1W3xIqZIuWSX2n2L6SxgAybtw4Z7bZhlDxPZA3YMCALPlt27aVZ555xqSjtDBw+BElVD8o5eAyyRIqp/Tss88a7RY73B133JHlLNEauOEgQmyaaEJusYSK3QqbnZdAmNi7mMrfe++9MmrUqIhi99xzjzk+ZHzttddG5Nkdppjz5s0zGisaM2TpRyAdNCpINdOSLKEyhUbj9ZJ+/fpJ3759jVkGcoknyRIqCwGwVT744IPmvvE6DiYkrjMDMfcC90QssYTKtaH97t27xyoezrOEiv2/T58+4XTnxvjx483ACylC0l7CjI9720sYINatW2dMXcyQ0Mb9iBKqH5RycJlUCJUHhBsZbQ/CZCrplBdeeME4dZgCYh/1Ekuo3ORMx6PJq6++Ks2aNROvhwAHCfYzyMHtgHC2h32Vm5upmt+Hz1k/09vJEio2VMjHS5gyM7js2bNHatSo4VUkIi0ZQsV+DrlAMg0bNjQOyIhGHTtMvTG3ME22jiZHdsSmJVQS0SrdmmZEYceOJVRsqMw8vMTaaydPniw3hFaHJSMMDji6MGdghvIjSqh+UMrBZVIhVE5r5syZxkHi1hxPPvlkExmAZshDFC0Q3RIqGgEOiWjy8MMPGwM/x8MO5xS81WivLMdkeWY0Yfr+17/+1TgamFoebZIOQsVzjikGLQ97ajxJhlBPP/10E6mBDZuBDPNONEFjhNhjDcK2riVUv4OBreeHUO2sB83SRrTY+u5f7nHudyJMmE1ZYcUTkSpKqBaRPPCbKqHyHgBIEe89Xnwr1mmFowB7UjTxS6i8RII2sb1BAlaYdrntcTYv2m92O5ii9SPR9KOVUG2/EzlfZj68CCaWWEJFM7WOy1jlbV5QhMoxUQLwIXhFLdjjKaFaJPLAb6qESlgR4S784myw8ao4o6pUqWIeCh6OaJIooeL84ga2wnSSOEq8rbwsJFrIjS3PL7ZcPLNHm1hiStTLH2vKnx0aqj3G4cOH5dZbb/UFO7Gzn332WcyymSRUZl1vv/22IVJmX0SmEMPqdJhim8ZRqoQa8zLmrsxUCRU0Hn/8cWNnsvZNPKBM4bnB8MoTmxhN/BIqb8LCU429tEuXLhHN4eE/NRQeha0Lm1dulaOVUMuXLx8eaJnOM0UPQjJJqATts3AEcwnhZ17x0YQbEuGihBrE1T5K2giCUIm9w9bE6FynTh0T5kRsKwZ/DP+xxBLqRx995Bm0besScsMU67nnnpMBrjAViBybKDGqOBOiCdMyr5jCaOVzWvrRSqh47dHiWFXUunXrmKvecFyhyfqRTBEqgfyYmTgvnHrMxrzEDvRKqF7o5NI0HDWEIaW6lp9pPV5/Qkx4+TFLACFApm6xxBIqK5nQZr1Cq2w0Ae0wADDyOwXvP1EA2EbRjnft2uXMNtuQKV5jjsPKmGjhLs6KLJG8/PLLzaIHCJ0Y1kxKTiDU2bNnm6WrOI8YyPwK4VLYG3FqMdh6CQ4c7JtcJ8KV4hFrpggV8xZLpSFUTBgsInELtn38CgwQSqhudHLxPt5J1rozPU/lfag8JMSl8hBwE8WKCXXCaQmVwGdsZtidnGvuiZ/k4apQoULU1Va0x9QLWx1hNwTxc8Nb4RwJ2+IBxJvNyq546/KxzRIHyYOBMMVDu8qk5ARCxU5N0H2ihIpWx0BINAYLL4gFdk79WZFFoDxr9bl2XCOvwdWJf6YIlT7YKT8rBYnfdZq1WGDAs4APAXOHEqrzquWBbV7JhhboJDLnabNC6MUXX3QmZdmGgFizjxEe8VqZk6VSKMESKjZXRnQeVAgeDRIbFTclmgD7vJjDa0UW7RLv99JLL5mlidzctIWDCi3TLhlluk/7Xiup3H2jPeIIrSQammPrJfvLQgnWkjuFpYwQE2FH7msF+buXWDrX8kM+XmIdRn7DpuzrHnkhiddqM7BnpuElLCklHIqX61CfZcYsE+Xeg3gQBlbOg3vALUR6sPTWSsGCBYWFFwziOOrcEu2+DcLLz8IDGycLDgwWOEe5b3BYYfMn+gBlAGzpI6GFznhUYqfdzxUzO/tVBpQct6BgxHsZkbuOn319Y78flHyWQTvA1snbjZxxdLa6++UoNt39+8gjjxiH0aZNm4Q3HcWKN7R1nYTKlJDgfFY7lS1b1hYxDxdB//E8+JA6LxUhbtBqlrYRppocC7uWX2EBAATCeRD87rbd+m0nmXKxXo7i1Z7Xy1vSQaj2BSeQHiub2HcKhOr1chtbhuuKnRsihxCtQDoM7NyH0cxENtje1on3G+2+DYJQOTYzBmY+kKgVSBDzF2YlyJEFCszewIrZF6YpK3Zwsvt+fnlW3Qto/NSLV0YJNR5CGci3Lx+OtQLF3S03odp8XhuHTQ3Ny4+909azv5gI0E4ZzdEcsBEnIzwIONu8NKBk2tM6vyOAWYgZCGQECfHKu3QQRbrx5jw4h1NDUSZopPFMSenuT7LtK6Emi1ya6tnVMHbK5zVd8Tp0NEL1KqtpioAikB4ElFDTg2vSrTK9wubnZ4WL8yBKqE40dFsRyAwCSqiZwT18VKbCTKkR7GisW8b+il0p3gqXcCOhDSVUJxq6rQhkBgEl1MzgHj4q66wfffTR8D4bxLPiyUxElFATQUvLKgLpQUAJNT24+m6V0BDiMllyh8OGuDzWjCcqfNOKYHzCoZwhJYm2o+UVAUUgeQSUUJPHTmsqAoqAIhCBgBJqBBy6owgoAopA8ggooSaPndZUBBQBRSACASXUCDh0RxFQBBSB5BFQQk0eO62pCCgCikAEAkqoEXDojiKgCCgCySOghJo8dlpTEVAEFIEIBJRQI+DQHUVAEVAEkkdACTV57LSmIqAIKAIRCCihRsChO4qAIqAIJI+AEmry2GlNRUARUAQiEFBCjYBDdxQBRUARSB4BJdTksdOaGUSgXPWGEnqjTEQP9v/yo+zcvDIiLdWd4084SUpUqB2zmS1rPo2Zr5l5BwEl1Axfaz6WxpuivIRvlvOtHZXfEShSopJcdM0wKVvtT56QfP+/+TLp6WC/qApxt7jtP57Hs4mj7/jju102TX/zJgJKqAFdd76Fc/3115uvUPKlRr9y1113mQ+QeZVfvHixtGzZ0isrT6Zdfvt4KVu1QdRzV0KNCo1mZBMCSqgBAW2/vMhH7OrWreu71dKlSwvfu3cKn3nu0qWLKKH+gQraabv7F4cTIE+37Ny0ShaM7+9OTmmf6f6FVz0c0UaBgpgBaoXTVEMNQ5HnN5RQA7oFkiVUr8P37NnTfD5XCfUPdNxT70ySWE7qyx8I6VZOQEAJNaCroIQaEJBRmslJJJaT+hIFLk3OEAJKqAEB36pVKxk5cqT5bn0iU36vw6uGmhWVIEjM6bEnGoCogGQkiL5wXNqxkQo/7dwoe0N/iYrznNIR5ZBof/J6eSXUJO6AYsWKSceOHcM1TzzxROOpr1atmnFKDRkyJJzn3Fi4cKEsXbrUmeS5nQqh5s+fX1q0aCFozBUqVJCCBQvKl19+KatXrzbHZtuvFC1aVIhCqF27tvnW1bhx4+Tw4cN+qydd7uzmfYW/RCWaU+qUOi2kVuMuWaIDDoQIddXskbI69JcIuaZCqNSt1aizVA71yS0Q6ppFb/nqT7R2bBtLp3jfg+5j6n6wCCihJoFn9erVZe7cuQnXHDhwoAwbNixuvWQJtUaNGjJ27Fjh09TRZMyYMTJgwADZt29ftCLh9N69e8vdd98d3r/mmmtk+vTp4f10bQRJqI06PSXVzm8fs6uQ0HuDm/om1WQJtUb9DvLnUNhXPIHoJw2/KmpMrZ92dm1aKZOeucr3OcXrk+b7Q0AJ1R9OEaXQUCEXp6DFtWnTJmbY1IIFC8xXSZ31vLaTIVT6NHPmTClfvrzRRCdNmmSiBDZv3ixlypQxX0QlrAutdfny5UaLPXTokNfhw2lDhw4VIg6s3HPPPTJ69Gi7m7bfoAgVzbTpzS+F+3nwl72y47uVwvS6RPlaEZ76DSsmy7RRN4bLxtpIhlCJUmjVb7oUCC0UQGxftnwzT4qUrJylP5R556Hzs5gB3MemnfUrJ8veHRuE83VGH3wfWnAAMatkHwJKqAFhnWkbKvGqo0aNkk2bNhny3L9/f5YzwzTx2GOPyYsvvijLli3Lku9OuPDCC2XEiBFStmxZ+frrr6Vt27aydetWd7Fs2XcTiR8vf63GXeWC1g+Z/q1Z/LZ8MrZnRF+d+WSMvaeGL40u1b78HCL0CR4aMSFajUIaLKQ49/Ve8nVo+u+WDqHQsRND5IxwTgvf7R/RZ7f2Gq0dd7u6HwwCSqjB4CiZJtR+/fpJ3759Zdq0adKpU6eAzur3ZkqVKiXbt28PtM1EG0uGxDgG9aqHptpuMrXHv2no93ZTJj/TRtAY40kyfXFq3dFsvRwXJ1PZag1lfUhjdotT445GytRxmjk2rpwiU1+8wd2U7qcJASXUgIDNNKE2b95csI/u3r1bmjVrJuvXrw/ozHJGM8mQmJ+eO1dfpZNQndowNlI0yw0hskvEGXZh60fkzMadzWmtnv1i1EUMTuKlsB9t3g9WWiY+Akqo8THyVSLThFqkSBGZMWOGcUgx3Z86daqZ1q9Zs0b4W7t2rcSzmfo60QwVSoVQ0foq124uhUO2ysKh6TL2TCtMs61dM52ESh/a379EjjuhiD20+cUhhra5c/Mq2bFphaC9kuYlTvK39bzKHR9ayVW8Yu1wlhJqGIq0byihBgRxpgmV0yhXrpyJImjUqJHky5cv4swg2Xnz5hmnEmR7tEmyhIpNsX7rh8OkGeu800moHJdzuPSml7OQqrtPq2e/IEunDM6ivToJ1V0n1r7f84rVhub5Q0AJ1R9OcUvlBEK1naxYsaI0aNBAzjzzTCE2tmrVqlKlSpUwyeKYevLJJ23xo+I3GUJ1O2jinahf4kmmL/bYaKrV6neUU85qEfNFL15RB05CRavdu2uTbTbm74J374saghWzomYmjIASasKQeVfISYTq1cPixYubt1p17do1tDjnN6lVq5bs2LHDq2iOTEuGxK4MhSnZMCKm1J+EPOfu96U6SSo7CNUNLgRbomIdEzblJtkJgy+N6K+zrwTua/C+G83M7yuhBnQNcjqh2tMkXIowqM6dO8v7779vk3P8bzKE6seD7ySpdBMq5xAvisAZFuUOeXJGCsTz3uPAWjV7RFR7bI6/4EdpB5VQA7pwNg400df3eR0+mcD+xo0bS8OGDWXw4MFy8OBBr2ZNGktQS5YsKR06dJBZs2ZFLUcGy1aJHmDRwvz5843TC+02E5IOQkU77DTo6/DppJNQrZf/m1Bs6aLx92Wxj9pOOAnV3R/3Kwzd+bYNeyyiCeaEtHKvECxbVn+DRUAJNSA8eacpK5C2bduW0PtQvQ6fKKGyOoqlsATuL1myRKiPZ98pBQoUkF69eplY1QMHDhiS3LNnj7NIlu3u3btHfDGgdevWZk1/loIBJ0Ac1ULOJKfgnSee1IrXdNed5pzysxRz9ht3mCk0RIrXv16LfhEef8iOVVR42q0mGURf3LZcPPS8P2DLmvnhKT2hTtXrt49Y4+/lnXfGmNp3EaxfMSUUKbAhZN6obXBz4rRw/P3mfQUWN/1NLwJKqAHiO3HiRKlfv37UIHjW8bNKySk9evSQbt26OZOkUKFCUrhwYaNp7tq1KyKPl5u0a9cuIo0dbKK87QonFEIgPtN7lp7WqVPH5EOqaJgcj77Gk+HDh0ccq3///vLCCy/Eq5Zyvlsb9dugm4DcRObVDks33aFMTvtkUH1xTte9+uFOi0aEDAYteowP24bd9Zz72I0nDG7qTNLtNCOghBogwLw0ZdCgQVKvXj0hLtQtXi9HifUJFHd99leuXClNm3o/JBBxnz59jIcfgmXK7pTZs2fL008/LXPmzHEmR91u0qSJWc5KuziwWDDA0tZ0S1AkRj+dwfDufkM400fdIJf3eDe8nJMy6SBU2uW8Gl09NOJYpDsFgl8Zsn26tW1nGUi1aecxMaMEvJalOtvQ7fQgoISaHlwz3iqv8YPgK1WqZNbfb9y4Udzarp9OotUScsVa/iNHjvipknIZr2m2n0ajkZBtD0Kzsmbhm8a2yEolCIrlnjYiIN6U37YR6zdaX6jD9L4cx6v4x2dUMDXsCJkl1ix6M6p91X08zueU2qEXojjawVTBKwCjLQ5wt6H7wSKghBosntqaIqAI5GEElFDz8MXXU1cEFIFgEVBCDRZPbU0RUATyMAJKqHn44uupKwKKQLAIKKEGi6e2pggoAnkYASXUPHzx9dQVAUUgWASUUIPFU1tTBBSBPIyAEmoevvh66oqAIhAsAkqoweKprSkCikAeRkAJNQ9ffD11RUARCBYBJdRg8dTWFAFFIA8joISahy++nroioAgEi4ASarB4amuKgCKQhxFQQs3DF19PXRFQBIJFQAk1WDy1NUVAEcjDCCih5uGLr6euCCgCwSKghBosntqaIqAI5GEElFDz8MXXU1cEFIFgEVBCDRZPbS0XIjBgwACpWbOm55mNHz9e3nrrLc88Tcx7CPwfXoMGzgQEeq4AAAAASUVORK5CYII=;" vertex="1" parent="7">
                    <mxGeometry x="70" y="40" width="150" height="98.82" as="geometry"/>
                </mxCell>
                <mxCell id="19" value="" style="shape=image;verticalLabelPosition=bottom;labelBackgroundColor=#ffffff;verticalAlign=top;aspect=fixed;imageAspect=0;image=data:image/png,iVBORw0KGgoAAAANSUhEUgAAAc4AAAEICAYAAADWVxQZAAALrGlDQ1BJQ0MgUHJvZmlsZQAASImVVwdUk8kWnr+kEJJQAghICb0jvUoJvUhvgqiEJJBACDEEFOyIuIJrQUQElaWsggVdlSJrxYKFVbD3BypW1sWCDZU3ASz73nnvnXdzJvf7v9z57tyZyX9mAKA9ZIvFQlQRgCyRVBId6MOcnpjEJD0COKACBnAAlmxOjpgVGTkNQPvq/25vrwFE5i9bybT+/ff/akpcXg4HACQS4lRuDicL4gMAoB0csUQKAC6GvMFcqViGyyFWkcABQtwow+nj+JAMp47jnrGY2GhfiB8CQKay2ZJ0AKhDkGfmcdKhDg1WC2xEXIEIYm+IPTl8NhfiJRBbwhiYk7YLYpfUH3TS/6aZ+k2TzU7/hsdrGTOynyBHLGTn/5/T8b8tS5j7NYcObFRJbnQc9HQ4b/NyMmNCJ3Axh+0fAzGsFSnn84Jl64ZD3CCW+kRPxDSmSQLiJmJa+blBX3VOC6TBsRP4SmZ2qCyeAvF9To5v0te+otTwCFl+iAdzM+NYE/x7Ls/P/2uMJDt6IgYlFvBjEyAmQqyckxcji1GGWL2A7xs+wZtnsEMiJ+JteMLAibzoVLE0MuJbXmG4rBY1yAfwcr7XKOXHBo1jNFkKN8BEX2GaICB4QjOPLwmKnsCFYuHYXh7TZEv8A2X7BvKreaK4mHEereOy/UIndPbiWrgn7oG74D7QewM/IAA5QAyEgAcyQCRgAxGQwm8h/LAJjwiXQBjIhpwAstlA8sMTD+TC51CIMyAWggIkCsQADuDDJwnIAtktKp0NV6nt5C4p5DPHoiCPq8DcLNwLd8cdcVfAAmlAgGrAjBmV2flu8XzgAxWFgAtHlQkeynqkecp4my6bepuDNtdtBm0asBqsHevGDmNtMJo3ll0W/y03nUy3orPo5nQVOomuRTcC/lBLMlZbONTMh6OXgrcgCTI5sC+siOhANIHNDDCh9yO6Em2JTj/MDRv2kdXwaKwyIOXNk8o2rm+2OF8iSOdLmSz4xuAxg0Uca0umnY2dHQCy98/49n4dNfZeQdS6v3NSuB4efwKA9XznknIA2AV1J9l/50zVAVDdCkC7OSdXkjfO4bIvAlxNBbjSGvDfYwBMgRWwA07AHXjDWkNABIgFiWDW2IxkwTHPBQvAUlAMSsFasAFUgRpQDxrBbrAPtIFD4Dg4Dc6DHnAV3AZ9YAA8B0NwdkYQBCEhNISBaCC6iBFigdghLogn4o9MQ6KRRCQFSUdESC6yAFmGlCJlSBVSizQhvyEHkePIWaQXuYn0I0+RV8hHFEOpqAqqjRqjU1AXlIWGorHoTDQdnYMWoEXoarQSrUN3oa3ocfQ8ehXtQ5+jwxjA5DE1TA+zwlwwXywCS8LSMAm2CCvBKrA6rBnrwLqwy1gfNoh9wIk4A2fiVnBHBeFxOAefgy/CV+FVeCPeip/EL+P9+BD+hUAjaBEsCG6EYMJ0QjphLqGYUEHYRmghnCJcJQwQ3hKJRDW49s7EIGIiMYM4n7iKuIW4h3iM2Et8QBwmkUgaJAuSBymCxCZJScWkTaRdpKOkS6QB0nuyPFmXbEcOICeRReRCcgV5B/kI+RL5MXlETlHOSM5NLkKOK5cvt0auQa5D7qLcgNwIRYliQvGgxFIyKEsplZRmyinKHcpreXl5fXlX+Sh5gfwS+Ur5vfJn5PvlP1CVqeZUX2oyNZe6mrqdeox6k/qaRqMZ07xpSTQpbTWtiXaCdo/2ns6gW9OD6Vz6Yno1vZV+if5CQU7BSIGlMEuhQKFCYb/CRYVBRTlFY0VfRbbiIsVqxYOK1xWHlRhKtkoRSllKq5R2KJ1VeqJMUjZW9lfmKhcp1yufUH7AwBgGDF8Gh7GM0cA4xRhQIaqYqASrZKiUquxWuaAypKqs6qAarzpPtVr1sGqfGqZmrBasJlRbo7ZP7Zrax0nak1iTeJNWTmqedGnSO/XJ6t7qPPUS9T3qV9U/ajA1/DUyNdZptGnc1cQ1zTWjNOdqbtU8pTk4WWWy+2TO5JLJ+ybf0kK1zLWiteZr1Wt1aw1r62gHaou1N2mf0B7UUdPx1snQKdc5ovNUl6HrqSvQLdc9qvuMqcpkMYXMSuZJ5pCell6QXq5erd4FvRF9E/04/UL9Pfp3DSgGLgZpBuUGnQZDhrqGYYYLDHca3jKSM3Ix4httNOoyemdsYpxgvMK4zfiJibpJsEmByU6TO6Y0Uy/TOaZ1plfMiGYuZplmW8x6zFFzR3O+ebX5RQvUwslCYLHFoteSYOlqKbKss7xuRbViWeVZ7bTqt1aznmZdaN1m/WKK4ZSkKeumdE35YuNoI7RpsLltq2wbYlto22H7ys7cjmNXbXfFnmYfYL/Yvt3+pYOFA89hq8MNR4ZjmOMKx07Hz07OThKnZqenzobOKc6bna+7qLhEuqxyOeNKcPVxXex6yPWDm5Ob1G2f21/uVu6Z7jvcn0w1mcqb2jD1gYe+B9uj1qPPk+mZ4vmLZ5+Xnhfbq87rvreBN9d7m/djlhkrg7WL9cLHxkfi0+LzztfNd6HvMT/ML9CvxO+Cv7J/nH+V/70A/YD0gJ0BQ4GOgfMDjwURgkKD1gVdD9YO5gQ3BQ+FOIcsDDkZSg2NCa0KvT/NfJpkWkcYGhYStj7sTrhRuCi8LQJEBEesj7gbaRI5J/L3KGJUZFR11KNo2+gF0V0xjJjZMTti3sb6xK6JvR1nGpcb1xmvEJ8c3xT/LsEvoSyhb/qU6Qunn0/UTBQktieRkuKTtiUNz/CfsWHGQLJjcnHytZkmM+fNPDtLc5Zw1uHZCrPZs/enEFISUnakfGJHsOvYw6nBqZtThzi+nI2c51xvbjn3Kc+DV8Z7nOaRVpb2JN0jfX36U74Xv4I/KPAVVAleZgRl1GS8y4zI3J45KkwQ7skiZ6VkHRQpizJFJ7N1sudl94otxMXivjluczbMGZKESrblIDkzc9qlKvCg151rmrs8tz/PM6867/3c+Ln75ynNE83rzjfPX5n/uCCg4Nf5+HzO/M4FeguWLuhfyFpYuwhZlLqoc7HB4qLFA0sClzQupSzNXPpHoU1hWeGbZQnLOoq0i5YUPVgeuHxnMb1YUnx9hfuKmp/wnwQ/XVhpv3LTyi8l3JJzpTalFaWfVnFWnfvZ9ufKn0dXp62+sMZpzda1xLWitdfWea1rLFMqKyh7sD5sfWs5s7yk/M2G2RvOVjhU1GykbMzd2Fc5rbJ9k+GmtZs+VfGrrlb7VO/ZrLV55eZ3W7hbLm313tpco11TWvPxF8EvN2oDa1vrjOsq6on1efWPGuIbun51+bVpm+a20m2ft4u29zVGN55scm5q2qG1Y81OdGfuzqe7knf17Pbb3d5s1Vy7R21P6V6wN3fvs99Sfru2L3Rf536X/c0HjA5sbmG0lLQirfmtQ238tr72xPbegyEHOzvcO1p+t/59+yG9Q9WHVQ+vOUI5UnRk9GjB0eFj4mODx9OPP+ic3Xn7xPQTV05GnbxwKvTUmdMBp090sbqOnvE4c+is29mD51zOtZ13Ot/a7djd8ofjHy0XnC60XnS+2N7j2tPRO7X3yCWvS8cv+10+fSX4yvmr4Vd7r8Vdu3E9+XrfDe6NJzeFN1/eyrs1cnvJHcKdkruKdyvuad2r+4fZP/b0OfUd7vfr774fc//2A86D5w9zHn4aKHpEe1TxWPdx0xO7J4eeBjzteTbj2cBz8fORweI/lf7c/ML0xYG/vP/qHpo+NPBS8nL01arXGq+3v3F40zkcOXzvbdbbkXcl7zXeN35w+dD1MeHj45G5n0ifKj+bfe74EvrlzmjW6KiYLWGPHQUw2NC0NABebYdn/UQAGPDeQJkxfj8YM2T8TjOGwH/C43eIMXMCoBaePxPgWTF0OQBV/QCYNEPdVgAiaQDEugLU3v5bm7CcNHu7cS2qDzya3BsdfW0MAGk9AJ/Xjo6O1I2Ofq6Hg70DwDHR+L3kh7H/qwcy5THtv/l/AsDbPsvmaFvqAAAAimVYSWZNTQAqAAAACAAEARoABQAAAAEAAAA+ARsABQAAAAEAAABGASgAAwAAAAEAAgAAh2kABAAAAAEAAABOAAAAAAAAAJAAAAABAAAAkAAAAAEAA5KGAAcAAAASAAAAeKACAAQAAAABAAABzqADAAQAAAABAAABCAAAAABBU0NJSQAAAFNjcmVlbnNob3Q5yc6mAAAACXBIWXMAABYlAAAWJQFJUiTwAAAB1mlUWHRYTUw6Y29tLmFkb2JlLnhtcAAAAAAAPHg6eG1wbWV0YSB4bWxuczp4PSJhZG9iZTpuczptZXRhLyIgeDp4bXB0az0iWE1QIENvcmUgNi4wLjAiPgogICA8cmRmOlJERiB4bWxuczpyZGY9Imh0dHA6Ly93d3cudzMub3JnLzE5OTkvMDIvMjItcmRmLXN5bnRheC1ucyMiPgogICAgICA8cmRmOkRlc2NyaXB0aW9uIHJkZjphYm91dD0iIgogICAgICAgICAgICB4bWxuczpleGlmPSJodHRwOi8vbnMuYWRvYmUuY29tL2V4aWYvMS4wLyI+CiAgICAgICAgIDxleGlmOlBpeGVsWURpbWVuc2lvbj4yNjQ8L2V4aWY6UGl4ZWxZRGltZW5zaW9uPgogICAgICAgICA8ZXhpZjpQaXhlbFhEaW1lbnNpb24+NDYyPC9leGlmOlBpeGVsWERpbWVuc2lvbj4KICAgICAgICAgPGV4aWY6VXNlckNvbW1lbnQ+U2NyZWVuc2hvdDwvZXhpZjpVc2VyQ29tbWVudD4KICAgICAgPC9yZGY6RGVzY3JpcHRpb24+CiAgIDwvcmRmOlJERj4KPC94OnhtcG1ldGE+Cte35swAAAAcaURPVAAAAAIAAAAAAAAAhAAAACgAAACEAAAAhAAALIEu2MQ7AAAsTUlEQVR4AeydBbgV1RqGf8QOREDFArHFTkxKMVARC1tREBU7uAYiGICFLea1u7sDFVSwi7AVWxAMQCzueddz1r5rz5nZeWI2fP/zwJ5Ys2b2t9aZb/25Gy2xxBKzTCIEhIAQEAJCQAgUhEAjEWdBOKmREBACQkAICAGHgIhTE0EICAEhIASEQBEIiDiLAEtNhYAQEAJCQAiIODUHhIAQEAJCQAgUgYCIswiw1FQICAEhIASEgIhTc0AICAEhIASEQBEIiDiLAEtNhYAQEAJCQAiIODUHhIAQEAJCQAgUgYCIswiw1FQICAEhIASEgIhTc0AICAEhIASEQBEIiDiLAEtNhYAQqH0E1lhjDRswYEBix/vuu6/9888/ied1QgjUNwIizvpGXPebLRDo2bOntW7d2h555BF76623Zovv1FBfYosttrD77rsv8fbLLrus/fXXX4nndUII1DcCIs76Rlz3my0QeOihh2yTTTaxE044wW699dbZ4js11JdYaKGFbPnll8+6fdu2be3yyy93x0ScWdBoJwUIiDhTMAh6hMpDQMRZt2O2wQYb2OOPP+5uIuKsW6zVe/EIiDiLx0xXCAETcdbtJBBx1i2+6r08BESc5eGnq+dQBEaOHGkrr7yyTLV1NP4izjoCVt3WCgJzNHFutNFGxh/oN99844I8lltuOTv44INttdVWsz///NPGjRtnd9xxh3355Zd5wW7cuLFttdVWtvXWWxumJfY///xze/PNN+3+++/PGRW400472TLLLGPPPPOMLbDAArbHHnu4Ph577DH3XARGdOrUyXbccUdbfPHFXbtbbrkl5zNV/c6qe5a1117bVlxxRfv000/tvffes6efftomTZqU89royU033dS6detmv/32m91zzz328ccfR5vUy/6WW25pG264ofGdGjVqZO+++66NHj3aXnnllcT7zz333EYgD59ffPGFPfnkk4ltd955Z1tqqaVs8uTJ7nv6hozpSiut5Hfd/Nh7773d/sMPP+zGOHOyeuPff/+1a665Jno4a595xndaZ511rEWLFvbBBx+478Qz5gqGad++veEDjArjc9ttt7nD88wzj2288cbOd7jIIovY9OnT7eabb866pDbnP37KXXfd1Y0P8//3339385/5lmt8sh4o2BFxBmBoM3UIzNHE+Z///MdpDC+99JJdfPHFjiTnm2++rEHihUM7CCNJeKnecMMNtsoqq8Q2mTBhgvXq1SuRcO699173Aj3jjDPc8yy88MKZfgg+4SV80UUXZY6xcdxxx9ntt9+edczvdOnSxS699FJr1qyZP5T5hDSPOuooe/755zPHcm1A5LzQ/TO9/fbbtt122+W6pNbPNWnSxM4//3zr3r17bN9EZDJGvKzjpG/fvjZw4EC3eIEcX3/99RrNOnToYHfddZc7Dim+8MILmTZXX3114r0zjSIbEB8EEidzzTWXGwOeGUKPCguCww47zD777LPoKbcPFgcccECNcxMnTnTE1a5dO7vssstc1K9v9MMPP7gFh9/ns7bm/7bbbuvut+iii4bdZ7Yhzz59+tiMGTMyx/JtiDjzIaTzDYmAiLOKmNAKWfGPGDHCEcqvv/7qzHAQDFrozJkzjZD5r776qsZYNW/e3F588UWnCaLRkZ7w6quvGi+R7bff3v2jzfjx440XzB9//FGjD0+cvNyGDRvm0hsgTK7/+uuvnaYHcX7//fcu3w1NgVX8LrvsUqOvvfbayy655BJ3HGJF20XbJGpxzz33NM7PmjXLDj30UOenq9FB5AAvf/Dx8vPPP9vqq6/ud+v8c95553VjglkUy8AFF1xgb7zxhltMoH2ecsop1rJlS/vwww9tm222sb///rvGM6GdoolhEYBc0N7RzrwstthibuzpB+yGDBniT7lPFiLcP5QjjjjCzZlHH300Cx/fhsXOVVdd5XezPrkH48BcYMHGvPvpp58criyIII1p06ZZx44dY+ccJE/uoxc0VhYVfDc02JdfftnNW+bTd99955qhRe+zzz7+EvfpibOc+b/ZZpu5VBIWA2jKLMhIz2GOMH/BnMUo+B9//PFZ98+1I+LMhY7ONTQCIs4qgkJIsn722WezxgNNBxKEVJP+8JdeemmnbfIS5GUYXVWvsMIKTnuZf/753aqboJKoeOK888477ZhjjnGnmzZt6siWl/7gwYOdBsmJ9dZbz72gpk6daquuumpWV5jkMF1C1PRDf1E5+uijrX///vbtt98aL73o80bbs4/GhZkY8zUvek/McW1r+5h/XogRcmBREwqkh3aIiZXvdd1114WnM9tgQrsll1zSLSYOP/zwzLnrr7/edthhB3vttdecubGQZPtSfZyQPSZ4LBlo7lgjQsHEf9NNNxlkTVTpQQcdFJ6O3ca0T+oGxAmR8x3PPPPMDGnGXlR10BMn50ud/8whTNLM4UGDBtFVluy+++52xRVXuGNrrrmmWyBkNUjYEXEmAKPDqUBAxFlFnJjE8OPFSb9+/ezEE0+0d955x2mMcW3wJ6EZoSXEiSfGOG2G9v48JsUwEfyjjz5ymiuaKvdHIICxY8c6jQu/KJqNF7SvY4891vlA99tvP3846xPT4KhRo5wGevrppztSzGqQsMMigsUB5FlfwuIBbQgzMdokJsw48Vo2iwl8f0nEt/nmmzus0Y6OPPJIZ37316JJox2xoChESiVOLBL4HjHLDx8+PPZWrVq1sjFjxjg/Lv7V999/P7adP+iJk7Ghf+ZRIeKJs9z5zziBfZywEMC3zN8HFg+060JExFkISmrTUAg0GHHyx40vJknwN/k8rqQ25R73Lw58nLx84gQtB43rl19+SfRhxl0XHsPMipkMPykv7Kh44jzkkEOMYBMv+BPRaDt37uxMkRxHc/XBSlSuCU2/XAumkH00EMT3ySf+T15ikHShL9nw+vraxuwINj/++KOttdZaibfFnI75FqEoAUFZSXLSSSc5kyH+ULQ5fNMEtrDQiFockvrgeCnECXlAIpAJJP7JJ58k3oIFA2ZyzJs+4CepsSdOzqPRonkWIvU1/1kEMFdz+eWjzyvijCKi/TQh0GDEmS/gAlOTN/HUFWCFvDiIYITwWM3zgs4lmFUJyMFUhgmRfQSzIJpDscSJrwitMiRO/EXe1xolTqKAuT9EjU81STC7EsmLTxaTYFqFCOehQ4e6oCp8m0kCzldeeaXDe//993eRw0ltIS38vhCsF8ycZ511lt8t6LMU4sS0ziINHzMLltBaEL0pPm6CzfCTEtiUSzxxFru4q+35jzWDqG8iunEbeAFfTOkiTo+IPisdgQYjTqLsWB0nCdrQU089lXS6Vo7X1osDzYAoSMx+4Qsj+pB1SZyYy6L+suj9o/v1HegTvX++/bPPPtvQwosRzNX4LHMJplB8wZhsWYRgpo8LKsrVRynEiR8137NF74nptXfv3tHDWfueONE0c/1NZV1UtVNb8597Mv8JBoqLEvb3FXF6JPRZ6Qg0GHGmAbjaeHGgXRJNiEkVInriiSecqYwgFjQLhPw2ImHrkjgxA2LChQzOOeecxFSGEHeihXPlNYZtG2Lb+2zx6RKUVIigRecy1dIHQUQEHXkhVYigmmKkFOL01gt8sGFwUq77EknszdBJ7RqSODE533333Y4wid5+7rnnnGk99PcTI4BvXsSZNII6XmkIiDirTGK5fJz+ZZdkqsWEiHkQbQ8TaDTqkwlx4YUXuqjFuiRO7oMWtXxV2knPqoR/CLzSxUdkElGLubo2xOdr4huGLCEdTJw+VaXQe5RCnCyu8FsjmGG5b21IQxInaVEU2GBuk77lF4vh9yJauU2bNiLOEBRtVzQCIs4yiZMVNmH25513nsvBjJsN9UWc/EoHPkvInCT5JMGcVqxpMqmvujxOfiLJ8yxaeDnzmSSFfCfSikhJwQeHtYGgG8iTFB+CcSiOkKtiT3jvUogTXyxaGcFI5ODmqqiDLzYpOjh8DrYbijjJVWbByPciiI7UrTjxCzppnHHo6FglIiDiLJM4ebHzgoe0COiIE0+uda1xkrJBKT5MxuTXTZkypcbjQDAQBhWEMFkmpRGEF1IarmvXrq5oADmIhaZshH2Uss0LGT83+OZamGAVwJR78sknJwYG0RflEyl+wHj4YgDLV2no7JPyUkyQEEUvwIUxL+ZnxUhDwR8I8e62226xsBBI8+CDD7pxIkAuH4E2FHGCGZHBYIvpmaCrqOB7x9TOQkDEGUVH+5WKgIizTOL0plq0ISI18Ul5IXUEcoJ0CCCqa+LkvtwDIkGDwo8XpjwQ8UiEJi9anhfzZ766s/hOySPkBYgkVSxyJ+vgP9JrSLPheanoQ7K9JxKf1kHADUFZpDCFvsvwcaj0Q94qiwnwIcXFiycezIwQaiHlCPEjk85SLHGipWG6JPqZAhU8U2iypUIR35F8VMaOMcIXnUv88zdEcJA31WJOJ9841Njx/5OrShEQzNQizlyjqHOVhICIs0ziRDsYUZXUDbHwQic4hUR9SAqtj23yKjFX8WKGAKge5CsEMVmS8jiLTUehL1JUyE2kJBsvMVb7JLijHflSeZhpeeHHVRaij1Dojzw8L8WmPPjryvnEd4Y2ibZM2UFq54I10bAUZkDwHRLVHKdBY4olOpVCFUmBQKSzEMRFaTq0UsrV5RJKMBL5Tem+uOpLYL/++uvHdtGxqpQeaSakLHE934f7URgBgkEowQeJM5+iMmDAAOvRo0fmMAs0cAATnj8qFN6Iq6hUG8FxpFn5PFNwYFFAkBrzhsAh3BQQOpozc59nPPXUU7PqLLM4ij4fYwU+SLjI8d+NsU+qTezb6FMI1BUCIs4yiZOBgaRInYAovRBVyGocDQjTKS91CnOT2P3AAw84c51vW5vESZ9oiaeddporcuA1RX8vTISYPSHyQgWCgCjIOyT/dlBMabVC+yq1Hbih5YE1mqYXsMU8TY3fOM0MTRQNkhQUoj8h4TgJ24ERWlyuPEuil+kLcqNv9kOBOLEyJAl1cfFDo/1CfF78wor81dB64c/zmVTkPWwTbqOpx5VJrA3i5D6k2WDJgCy9QHYsVrC4QIIUcsA0DVZE2Ya/7uMXIf7aQj7RzOMC8Qq5Vm2EQLkIzNHEWS540evRFogeJGITTTMNATgUUEDbZHWOJoDGVorwwmMxEKfRlNJfqddAMmjOpDdALATbQDaVKiwCCHyCdCAbUmkqkRD4HnwHfMZomPlcAJU6XnpuIQACIk7NAyEgBISAEBACRSAg4iwCLDUVAkJACAgBISDi1BwQAkJACAgBIVAEAiLOIsBSUyEgBISAEBACIk7NASEgBISAEBACRSAg4iwCLDUVAkJACAgBISDi1BwQAkJACAgBIVAEAiLOIsBSUyEgBISAEBACIk7NASEgBISAEBACRSAg4iwCLDUVAkJACAgBISDi1BwQAkJACAgBIVAEAiLOIsBSUyEgBISAEBACIk7NASEgBISAEBACRSAg4iwCLDUVAkJACAgBISDi1BwQAkJACAgBIVAEAiLOIsBSUyEgBISAEBACIk7NASEgBISAEBACRSAg4iwCLDUVAkJACAgBISDi1BwQAkJACAgBIVAEAiLOarCWX355O/DAA+23336zCy+8sAgI1VQIlIaA5lxpuOkqIdDQCIg4q0dgiy22sPvuu8++//57W2eddRp6XHT/OQABzbk5YJD1FWdLBESc1cOql9hsOb9T/aU051I9PHo4IZCIgIizGhq9xBLniE7UEQKac3UErLoVAnWMgIizGuCdd97ZrrnmGplq63jCqfv/I6A5938stCUEKgmBOZI4mzZtanvttVdmnBZaaCHbddddbaWVVnLBQRdccEHmXLgxevRoe/vttzOHFltsMdtzzz3d/q233mq///575lzcBi/KpZZayqL90HbLLbe0NdZYwz755BN79tlnjb47dOjgjnPNe++9Zy+99JK98sorcV3XOLbEEkvY1ltvbWuvvbatuOKK9umnn7o+nn76aZs0aVKN9rkObLrpptatWzeHzT333GMff/xxrua1do7x4DvEyW233eaeh3N8x1VWWcVatGjhmt555502derUuMtsgw02ML7PWmutZYsssoh98MEH9u6779pTTz1lf//9d+w1HAzH+vrrr7c///wztu3BBx9s8847rz355JP2xRdfZNrU1pzLdFi9wb223357hwHzh7Hl+4wYMaLexin6TNoXArM7AnMkca688so2cuTIosd2yJAhdskll2Sum2uuuRwJtmrVyk466SS78cYbM+eiG82bN7d33nnHvVQ7depkY8eOzWpy3nnnuajeBx54wAYOHGiPP/64Lbvssllt2OH+Q4cOtVmzZtU45w906dLFLr30UmvWrJk/lPnkxXrUUUfZ888/nzmWa2OBBRZw5LLwwgu7Ziwctttuu1yX1Nq57t2729VXXx3bHwQIeV177bW2ySabZLXZbLPN3EIhPAjBDBo0yHr16hUezmy/8cYbduihh9rXX3+dORZurLbaavbiiy+6Q5D0L7/8Ep7ObH/00Ue26KKL2gEHHODI2J+orTnn++OThQVWEggzKn/99Zedc845dsUVV+ScK9HrtC8EhEB+BOZI4mT1v88++2Shs+aaa9puu+2WMx3ltddes7feeivruiOPPNIGDBhgH374oXXu3DnrXLhzxBFH2Omnn26vv/667bjjjuEpt+2J87nnnjNIFk2IbTQnNEY05A033NC1Pf/88y1JK6adJ/fbb7/d7r//fkcipD6gHXMe0oUkHnrooRrPET0Aeb/55puZwz///LOtvvrqmf263IBsWAR4gZCOPfZYtwtxssBAE/7111/tyy+/tH/++cedQ+v75ptv/GXuk4hpfIoQ3uWXX+6+07Rp0wxCPOyww9x34lzHjh3t22+/zbqWnXKJszbnHM+z6qqrOq12wQUXtDFjxtjw4cPdnGGxxMLshBNOcIs0tONTTjmFSyRCQAjUEgJzJHHGYVeqvynUJDGZRYmVezVq1MheffVVa9OmjUG0mDuj4onz33//ddrKM888k9WkcePGBmHuu+++jkzXX39948UfCqZHzMA80zHHHGOYLKNy9NFHW//+/R05oJnNmDEj2qTGPlofZI+Gd/HFF2eIuUbDOj6w9NJLZ0zlp556qvXo0cNp+mjyuaRr1652ww032OTJk93ihpSjUOaZZx6DYLbZZhu74447MuQctimXOMO+/Hapc47rGVsIksURJMm8CWWjjTayhx9+2B1i8cFCTCIEhEDtICDirMaxnJcYq3201aSXLv7Le++91xEe/riZM2fWGD1PnO+//36iXw9iRLtAq4A4/vvf/2b1g2aBRgbp7rffflnn/M7cc89to0aNMjRQNOAkU6hv7z+bNGlif/zxR6Jvz7ery8+QOMeNG2cQ4vTp0/PeErM82mu/fv3s5ptvjm2PZs2iA/M7mik+4VDSRJzt27d3i68ff/zR+WuTfOuY67Ey4L/FdCwRAkKgdhAQcVbjWA5xbrzxxvbII4847Q1ixHQYCn44TIpXXXWVMy+G5/y2J84HH3zQmVH98ejnLbfc4jQjgpHQNEJBw2jXrl1OgqC9f6Fivuzbt2/YRaq3Q+JM0qijX4CgnvHjx7vDcb7PsD1WgRVWWMHQyu+6667wVNmm2qzOqndKnXMnn3yyHXfccZZvrniz/XfffWfrrrtu3CPomBAQAiUgIOKsBq3Ul5jH/IUXXrC2bdvW0AQXX3xxZ15E09t8881raDL+ek+cBAfhc0uSs846y/r06WPcjxdjKGhhaKMXXXRRhizC834bs+tOO+3komxDH6I/n9bPkDi32mqrgsyPmLSfeOIJ59ddbrnljKCZJMFigJ8aczQBWKGkSeO87rrr3Pg99thjGXNs+Kx+myAmv7jCT56kmfr2+hQCQqAwBESc1TiVS5zUuYX8iJbF9+TFBw+9/PLLtvvuu/vDNT4LJU4CkehzwoQJhsnOC8EnHCtG6jPQp5jnSmobEifBQUkRsOH1pBldeeWVjjDjopTDtvg5d9hhh1hNLk3E6Rdp4bPn22auFDs/8vWp80JgTkVAxFk98uUSJ+ka5M/xSbqGz/f05r/evXs7c27SRCuWOAlCIhjJC+kWRJbioyMN4bPPPvOnEj/xtZJvWClSCnGiUWPWRtPMR5wEEOE3xRx+4oknZsGSJuLELYB7AFMtaUuFCGQbdSEUcp3aCAEhUBMBEWc1JuUSJ92ce+651rNnT/eixkSGTw3TK0EcmAxzmQkLJU5+uYXIWvyZhxxySNaIEtxC0A/PgHlydpNSiJNcR4KhEMhvypQpibBg+iTl54wzznDpHWFD0j8oQIH4QgPheb+dlMfpz4efpc45PwfwnZ922mlhl9oWAkKgHhAQcVaDXOpLLBwj8hup2EKaCJVpSB8h2jbOZxZex7YnznwRkP7ljvmRhP5Q0KzQsMjx5N5Jgr81V5WcpOsa+ngpxEmqCZo46Txok2FOavT7YGYnlQeze1QTD03hpK1gXYiTzz//3MitjBZAiGtb6pzzOcFUkdpll13ius4c43v7/NbMQW0IASFQFgIizmr4CJghvaPcnxXzZrQzzzzT5Rjy4kaLiSbkR0fNEyeVfdBO41JWfPQu1/LSpSBDKLzQMTPiu0TbjdOuIE3K1XEf8jmTStOF/aKpQTr8VinEHVcgIGxfV9ulECfPQkEIAqlyRaF6XyjfjZJ8pN5EBR8hBDp48GAXmRw9H5pzCyHOUufckksu6caeqk48d1IZRqwezAl84vVVJjGKifaFwOyIgIizelSJfqUeLGbVcn6PEw2TvE5W+az2c+VUhhPKE+dPP/1klH/Dxwa5eeFlTvm0ZZZZJrH6EG0prkAgCJoVaRXUvvXCd6Tazh577OHyMYkgzfdCxXdKbimEgRSi5fj71fZnqcTJdSwy5ptvPuf/pXJQaDanHi4pOrkKR/BdPAFTYQitFP+1F0zkl112ma233nrGYqkQ4ixnzpGvS94uC73jjz/eVZnyz4LGizn/7LPPdocKTd3x1+tTCAiB3AiIOAN8KEGHVhcSVnDavThJBcglEA2VbHgJI7zAKNqeTzxx4hPFZIi2AJH7knvkF1KBiP299947tkIR92jdurWrkoMfDnKgLwKF0IZ8qTzMtPQfV1ko+pz0R9EFL5AGaQ71IQRZhSZnFiIeV6oARU2QkDqlBOOEBc2wYcMMLQ2yYTHgS+6BDYImzoIlWoXH9wfRcQ+KQdCG9J+JEycaGiCLLTRRFitxtWp9H9HPUucciwAWAOQHIyyAyFel0D0WDsgbicv3dSf0nxAQAiUjIOIMoKO6DPl7JItTpScq0SLv0fN+n5U+gTukS1D6LOlF7NvzGRIneZxUuaH6T8uWLTPNIFKIIV/ELORN0AhVY7ym6Duhig73IpCoUPF1XvkeVBqK+lYL7afYdrmKvMf1hX/Z/1pN3HkIn8AatEJM1l4gP0iPRUs+oWwimieFJrxg1sXKQHBYMcFBXF/unGMRxVzBEhEKRIqFgtxUiRAQArWLgIizdvF0vaFF8IsdkDCBQYVIlDj9NUSF8rNiaEiF+CP9df6TFyoaFcnvBMlE67T6dvk++QUYNDQ0vUoXtDW0b/+zYnG+4HzfES0TXPFFo+mVMjb57lHMeRZI/FABVgn86QQp5foFnWL6VlshIASyERBxZuNR9p5PW8BMSpAPPtNCJIk4C7lWbYSAEBACQqD+EBBx1jLWmHP5zUeiayl6UKiIOAtFSu2EgBAQAg2LgIizTPwxYfrgEqr2ELCBCZDSbUTHFioizkKRUjshIASEQMMiIOIsE3+0SgJLQiEflJ/9KkZEnMWgpbZCQAgIgYZDQMRZJvb84gnVWwjEIHCGdAVfmq2Yrklkp2gBNWj5cWKJEBACQkAIpBMBEWc6x0VPJQSEgBAQAilFQMSZ0oHRYwkBISAEhEA6ERBxpnNc9FRCQAgIASGQUgREnCkdGD2WEBACQkAIpBMBEWc6x0VPJQSEgBAQAilFQMSZ0oHRYwkBISAEhEA6ERBxpnNc9FRCQAgIASGQUgREnCkdGD2WEBACQkAIpBMBEWc6x0VPJQSEgBAQAilFQMSZ0oHRYwkBISAEhEA6ERBxpnNc9FRCQAgIASGQUgREnCkdGD2WEBACQkAIpBMBEWc6x0VPJQSEgBAQAilFQMSZ0oHRYwkBISAEhEA6ERBxpnNcyn6qRo0a2emnn+76ueyyy+znn38uu8+G7KBp06a2zz772BprrOF+OHzatGn2wQcf2JtvvmkPPPCA/fvvvwU93jrrrGP8FNyGG25oK6ywguuDHxwfMWKEffHFFwX1sfLKK7ufklt99dVtpZVWsq+//tr188ILL7iflSuok0ijeeaZx/r162d8IqNHj7Ynn3wy0kq7QkAIpAEBEWcaRqEOnmGuueay7777zvW86aab2meffVYHd6mfLnfeeWf3Y+GLL7547A1HjhxpRx11lH377bex5/3BQw45xM466yxjURGV6dOnW8+ePe3FF1+MnsrsQ2rHHHOM+zfvvPNmjocb/Ij5GWecYTNnzgwP590+/vjj7aSTTsq0u+6666x///6ZfW0IASGQHgREnOkZi1p9ktmFOLfeemu77bbbHDb8SDjE9PHHH9v888/vNE+IbMUVV3SLBH4IHAKMk5CYHnzwQXvuuefcYmKttdaybt26uR8R//PPP61Pnz72xBNPxHXhNPgjjjjC/Wg5Pzb+6KOP2pdffmktWrSwjTbayBFqkyZN3PWQcKHSpk0bR9hozR999JGhFYs4C0VP7YRA/SMg4qx/zOvljrMDcS688ML20ksv2TLLLGO33nqrnXDCCTWwQ/ODCDfYYAM7//zz7YILLqjRpmXLlvbWW29Z48aNbciQIXbJJZdktZl77rntiiuusO7duzuzKyQYNf1CZhAqffTt29fuu+++rD7Y4Tkx+UKeu+yyS8Fm27vvvts6dOjgtGHuA5GLOGvAqwNCIDUIiDhTMxS1+yCYNfEBIpVqqsVEe8011zgtEkL59ddfY0Fab731nD8QbRMfaFTrRCs99dRTHR5bbbVVbB+QNHgtsMACtueeezoCDBued955duCBBzrfI8SWJEceeaQNGDDARo0aZbvuumtSs8xxCPaqq66ycePGGdr1lVdeKeLMoKMNIZBOBOZo4txyyy3di/aTTz6xZ5991hZbbDG38uf4UkstZe+9957TeDARFiKLLrqobbPNNrb22ms7M+I333xj77//vjPDcY8k4WXNSzlOnn/+eWe+49xyyy3nzHhLL720oVGijY0dO9ZdxvX0g6BBderUybbYYgu3f+mll9rkyZPddvgfQS2YG/MJxAtZ/Pbbb3bPPfc4U2m+a2rj/CmnnGLHHnusvfPOO7btttsmdsn3JbAHHyTkA+ahvPbaa4Y59LTTTrNrr702PJW1ffnll9see+xhDz30kDPZhicfeeQR23jjjW348OHOhxmeC7fBCg0YrAgcyiXMFwgWU+9OO+1kr7/+uns+aZy5UNM5IdDwCMzRxOm1CKIyBw4caI8//rgtu+yyNUYF097QoUOdb6vGyeoDRGleffXVsdfjOyNgBPNbnCyxxBI1Xva+3dFHH22Y8oYNG2Z77bWXMxX6cyeeeKLdcsstbhdtKSl4xrePfhII06NHj+jhrH3ImL7RyJC3337btttuu6w2dbWDtonW+fTTT9v++++f8zbvvvuuYZLFRwnxeQk1bxY1tEuSAw44wJl7CTJCiw3lww8/dATHPEFDTBIidV999VV3es0117Sffvopqan5+ccYMpYIxC7iTIRMJ4RAKhAQcVZpagSKNG/e3BEE21OnTnUBJxAVhIgk+c84h4Z65513Ok0PDZFtolghxPbt21vv3r3duSRtBXI66KCD6CojmBdJwYA4F1xwQTvnnHMMAv78889txowZrh2EDtkjBKPQzgtE532CaFJxGufEiRMNTSqXsJAg5cMLaS2kYdSHDBo0yA4//HAbP368swQk3ZNAITROomXPPvtsI/3GS9u2bY00EQQyzBV5y4Lgpptusr/++stp97NmzfLdOPLGXExwEmbfJEHTZ/yR7bff3vlW49quv/76buwYF9JjmHOIiDMOLR0TAulCQMRZRZwEgqBtPPPMM1mjQyAIhLnvvvu6FxsvO/IHQ+FljZkX7QIiI/gkKpj40IL++ecfZz7lJZ9PxowZY61bt3b9oRWinWBWpY9CJNS0yvVxoknvuOOOjrgvvvjiGsE1hTxPKW1YuIApRAa5EMEaJ57wOEdaChq6F4Ju/D6LAPpCyMVkzDDj+rQdFkmPPfaYO7/qqqtmyIwDmLvxfRLRCzn6flzj4D/SXdB6EeYL5vqoYFpGi8YfGw00EnFG0dK+EEgfAiLOKuLEJ4ZvLE4WWWQRg8SaNWvmNA00jlB8AAv+QggKrTBOMLXut99+du+99xopDfnEE+cvv/ziIjQxFRYjtUmc3JdI0T/++CPx+xXzbIW2xQqAfxnNG18gWjl4hNKqVSu766673CKDhQ6+UHyiXvBZonEjmHLRIiFF/MMI/ZGSQt4lGiWEhmBFIDXEC/uMHUIADwQZXcR07NjRaaRo+yywSJMJtVbfF1o02vTLL79su+++uz/sPkWcWXBoRwikEgERZxVxEsxx6KGHJg4QPij8Y3EpEWiYvXr1ctVrDjvssMQ+iLDkhYt51Jt/ExtXnfDECSlgri1Waps4i71/bbX3Wif94S9EeyTQar755nMmY4iHFBR8jwg+xtAqgG/Up6h44gxzQ7kG4vzxxx+ziDPOH+q1Tq7B70t6ClowWDOm7dq1czmnmNnxpdJHVAjsYhGA1ok2HC1MIeKMIqZ9IZA+BEScVcRJcFAu0vPmN3xlvMhDueOOO6xz586GCZMAoiTBbMeLFrMwJtgkzdRf74mT1AaCZIqV2YU4+d4sOligEPUcCgRJpCyaKZ9xixL8jDfeeKO7zBMnuZ+YvjHVPvXUU84cT4NQ44zzh3IdfmNSTiC+UDD3QtL4P5kP+Dkh0KjgQ8W0nOQzF3FGEdO+EEgfAiLOAogT8uJlOWHCBBfsEw4jEZRoOXGJ9WE7AmpGjBjhDuGvy5WeQiNPnGibaJ3FyuxEnHx3zLWYwgn2wSSLqZWgJXyNBGThL4wbg1x+yyimBHKRboOE/tBoOxY+FElYbbXVnBZMdDIBTBA4KUyQ6g477GDUwA3F+2I//fRTw6wbt3gScYaIaVsIpBMBEWcRxEn1GTSYUPCJoamgbaJ1JkkY3Ume5w8//JDU1B0XceaEJ3MSgrr++uudr5LqQeRPhgLJgSVCXivBPUmC2ZcKQkS44gctVgYPHuwiqKmdu9tuu2VdvtBCCzmfJtWFOEebOBFxxqGiY0IgXQiIOAsgzgsvvNBF1j788MNGofBQiDilVFu+NAU0DDRHzItoqPlExJkPIXO5pRAQxSoIvsL8GhV8oWj3mFmJjiYCOkl8PdtcwWJJ16677rrOFE9hCkzL+DFD8X5VtMwweClswzbRvpikWVj5KGJ866VYHaJ9a18ICIHaQUDEWUWc+LlIR0kSUhQw+RHcM6gqGjIUftGCF26c/zNsd/DBBzutlKCSpLJvYXsRZ4hG/DYa/t57722k9xCIE4249Vf5xQ1mWEzuSUKU6yqrrOKKVZBzW6gQRUs+LFYFUoYIFotKly5dXHBZ9Hgh++TwXnTRRYU0VRshIATqAQERZxVxTpo0yeXcxf0UFDmYvkgAqSfk/YWC9oi/jXxOgkLwg0aFUnD44XgpEzwSTWmJtme/XOJEa8HvhpSbx4kvr2vXrs4MyiIiVxEBd8N6+I8oWnIgf//9d/dscbj7x/C+SwpHsP3VV1/5U5lPrxHiM0V7ZE4UIhSvIEAMjKk3C07RWrn0g6mWiNp8QiAaeaIUkfdkSZGESv891XzfW+eFQCUhIOKsIk7SHAjkoOxZ+MLkZYjPC78UdUQpAhAnPiUFoiJHz9ePpS1BLZzHr0XVH/IBk5Lnw77LJU768hpUOcSJiRPTJd8DIa+SwuQNKSeffLIdd9xxLkeSikn5fvCZRQ2LGxYukD51fQniQQg0QluljB4ViArNs+Va2t98880urWTKlCmunzhSpm2hIh9noUipnRBoOAREnFUvUdJRIDtSDXih+pJ7aJO8dNnHJEhwUJxAKgSoEC37999/O6LxJfcIBKKY9/fff2+Ya8Pydb4vojF9xG14jJc6vwhC4YFQIF7SW/KJNyOjrfBcUYEEc+Wv0j4MrmEfcygE1BBCSUG0MHzKaHVEHHtrQL7nWXLJJZ2f0JcLZIHEGGFe9XV4IWB82HHRrtH+weWGG25w0byYiiFjr+FH2xazL+IsBi21FQINg4CIs5o4yePs16+fq+5Dvp8XiBRyiSaq+/P+k6AQtCD8WxChF0iP+rf0HVcvlna5irz7fsJPXuz8Uko+odoPpj9MyNwjKoUUeecazIZEpJKDir8w6ueN9lsX+/y6CUQF8RE0A1FhGi1GWOCce+657rvwiyRe0BIxQcdVA/Jtwk/wxN9Nfyx4mB++1mzYrpRtEWcpqOkaIVC/CIg4A+L00PNzUERqYqIs5YWILwu/IHVKieiMlmbz96mkT0rbERGcRP6V9F14VjRGLAoEa+X6BZNK+156XiEgBOoeARFnDHHWPey6gxAQAkJACFQqAiJOEWelzl09txAQAkKgQRAQcYo4G2Ti6aZCQAgIgUpFQMQp4qzUuavnFgJCQAg0CAJzNHFSGm2zzTZzaSa33357gwyAbioEhIAQEAKVhcAcTZyVNVR6WiEgBISAEEgDAiLONIyCnkEICAEhIAQqBgERZ8UMlR5UCAgBISAE0oCAiDMNo6BnEAJCQAgIgYpBQMRZMUOlBxUCQkAICIE0ICDiTMMo6BmEgBAQAkKgYhAQcVbMUOlBhYAQEAJCIA0IiDjTMAp6BiEgBISAEKgYBEScFTNUelAhIASEgBBIAwIizjSMgp5BCAgBISAEKgYBEWfFDJUeVAgIASEgBNKAgIgzDaOgZxACQkAICIGKQUDEWTFDpQcVAkJACAiBNCAg4ixzFHr06GH8ykqcTJgwwQYOHBh3SseEgBAQAkKgQhH4HwAAAP//P036UwAALeFJREFU7Z0J2E1VF8eXBilkrMzJVBlKk0zRKEoDMkQDJU1KA0lp+JpUJEUDoVHTlzRqQBEZUpQoSYNQNIiUQuV7f/t7933OPe85dx7Oe+9az8M9wz777P3f++z/Xmuvtd8Se++99w5Rkdq1a8u5554rmzdvlpEjR8aMyODBg+Wqq67yTL9w4ULp2LGj5718unhI+4HCP2TdV/Nk6uhO+VR9rasioAjkGAIllDj/36KtW7eWyZMny7p16+Tggw+OuZkL8JO99torLP2ZZ54pF1xwgShx/h8WJc6w7qEnioAiUMwRUOIsbMBEidOr/S+//HK5/vrrlTgLwVHi9Oolek0RUASKKwJKnIUtp8SZvi6sxJk+bDVnRUARyDwCSpyFmJ922mkybty4uE21Xk2mGmc4Ks073SYN2/Y1F3NpjbNi9cay2+57mnptWLtUtv75W3jF9UwRUARyEoG8JM7y5ctLjx49Qg1aunRp6dy5s9SrV884B40YMSJ0z3mwYMECWbx4sfOS53EyxLnzzjtLhw4dBA24evXqUqpUKVm+fLl89tln5t0cxyrlypWTbt26SePGjWXu3LnywgsvyD///BPr4wmlc2qX8WbwxgNd5Icv3w89dtJlU6RK3Rahc+fB4jdHCP+q1m8ljdr0lbIVakqFGo1NEjc5nzdqXehR9zvsDee7bN72nvMXomzYtp/Ua9Zdylas6bwl3336hix68x6BRFUUAUUgdxHIS+KsX7++zJkzJ+5WveOOO+S+++6L+lyixNmgQQOZNGmS1KpVy/cdjz/+uNx8882yZcsW3zT2xpVXXinXXnutPZWePXvKjBkzQufpOMgkcZatVEvqHdGtSDXSRZyQ5kmXvhgi6CIvLrww5+kBsuKD5/xu63VFQBEo5gjkJXGicUIiTkEr69KlS8RwlPnz58uiRYucj3keJ0KclOndd9+VatWqGc1y6tSpxrlo7dq1ss8++0jLli1NuAxa6JIlS4xW+vfff3u+314cNWqU4OFrZciQITJx4kR7mpbfTBHntgKzaMlCM6m7IukiTqdWyjs3rF0mqwq0TAh838YdZNfdy4aK4qfZhhLogSKgCBRbBPKSOL1aK9trnMR7TpgwQdasWWNIcuvWrUWKiUn5zjvvlPHjx8snn3xS5L77QvPmzWXs2LFSpUoVWbFihZxxxhmyfv16d7K0nzvJ1E1q8bzcmY99jvxWLXlDNny/zF6SrVs2hZlLU2GqbVBgmm3d8//Whu1/bpbpE3uHmZXRRjv0nyIVqzcy5di8YbX895YjQmXSA0VAEcgdBJQ4C9sy28Q5aNAgGThwoEyfPl169eqV0h5WuXJl+fnnn1OaZzyZOQkvlcQZaS3SWb5UEOfpg2aESHHBlBtl2axxzleYY9Y8u964MHT9peHHhxF46IYeKAKKQLFGQImzsPmyTZzt27cX1i83btwo7dq1k1WrVhXrjuUsfDqIEzPpS8OPc77G9zhZ4kSb7DVsRSj/SUMa+HrQOgk2VmIPZawHioAiUCwQUOIsbKZsE2fZsmXlnXfeMY5BmGmnTZtmzLErV64U/n399dcSbU0zqD0uHcS5eumbMm1875iqnCxx4rnb4dLJoXetWzk3dOw+IETFrr0qcbrR0XNFIDcQUOIsbMdsEyfFqFq1qvHabdOmjZQoUSKsh0Gm77//vnHugVSLk6SDOOMhpVQTZ6zYJ2OWjvUdmk4RUAQyj4ASZyHmQSBO2/w1atSQFi1aSMOGDU1sad26daVOnTohMsVB6N5777XJA/+ba8QJIcYiG9Ysk/lThsaSVNMoAopAMUJAibOwsYJEnF79p0KFCuavsPTr10927NghjRo1kl9++cUraeCu5RpxTryiSuAw1gIpAopA5hBQ4izEOujEabsEYSiEl/Tt21deffVVeznQv9kmTmf8pZ+JN1oap7k3krcs66EVqzUs8Lp9JNBtooVTBBSBxBFQ4izEzsZRxvtnxbygT2QDhLZt20qrVq1k+PDhsn37dq9szTW23qtUqZJ0795dZs6c6ZuOG2zXh7cumzvMmzfPOB+hrWZask2cJ/R9TGo2bm+qjWPP1DGdwyDAa/bUgnATu4WeF7m26XV/aJcirzzI0JkP2+/NLthBSPevDYNaTxSBnEBAibOwGfmbmuzI8+OPP8b19zi9ekG8xMluQWwByAYHH330kfA8nrROKVmypAwYMMDEem7bts2Q4aZNm5xJihxfcsklctNNN4Wud+rUyexZG7qQoQMncbIxwEqf7ei4zn0rbDpQ2rEfbNV6LaVKwT8E8vrBw7vVnQdpnZsXcA6pWY1w11J7ymEFf2Tb7nPLfS/idMdo8v6lM8fJ+q/mFpSxllQq0DKbdhgUIt8/CupBuIwSJ4iqKAK5hYASp6M9X375ZWnWrJnvZgHsU8uuPU7p37+/XHjhhc5Lsscee0iZMmWM5vjrr7+G3WOT9q5du4Zd44Q1S/46CxvNI2xYgFmWLfeaNGli7kOeaIy8j7JGkzFjxoS9a+jQofLII5k3IbpJx6/c7m3qnOZTv2fc19152PvO+Ep7ze/XizhJ6yZgv+e5PmNCH7MdX6Q0ek8RUASKJwJKnI52Y/P3YcOGSdOmTYW4Srd4bfI+ePBg47TjTut3vnTpUjnuOO/AfQj36quvNh61ECmmVqfMmjVLRo8eLbNnz3Ze9j0+9thjzTZ+5IsjERsrsKVfNqRRwV8UObLTLRFf7Sa9VBIn8ZVtCrbMs1viOQvCFnrb/twY0m79iJNnIM8jC/5MmnNfWnde7u34nPf1WBFQBIo/AkqcAW1D/rwYRF6zZk2zv+zq1avFrb3GUnS0VEJZ2Kv233//jeWRtKWBvCoX7OXqNL86X+Y2s7pNtc60fsfuPNzpIPBKBX9+rEyhCZh9bld+8Kzs26RDqFyEmzj/vJk7D9Yy6zXrIdXqtywg0HLm9u8Fptl1BX8STf8qihstPVcEcg8BJc7ca1OtkSKgCCgCikAaEVDiTCO4mrUioAgoAopA7iGgxJl7bao1UgQUAUVAEUgjAkqcaQRXs1YEFAFFQBHIPQSUOHOvTbVGioAioAgoAmlEQIkzjeBq1oqAIqAIKAK5h4ASZ+61qdZIEVAEFAFFII0IKHGmEVzNWhFQBBQBRSD3EFDizL021RopAoqAIqAIpBEBJc40gqtZKwKKgCKgCOQeAkqcudemWiNFQBFQBBSBNCKgxJlGcDVrRUARUAQUgdxDQIkz99pUa6QIKAKKgCKQRgSUONMIrmatCCgCioAikHsIKHHmXptqjRQBRUARUATSiIASZxrB1awVAUVAEVAEcg8BJc7ca1OtkSKgCCgCikAaEVDiTCO4mrUioAgoAopA7iGgxJlDbdqoUSO54YYb5J9//pFevXrlUM1SX5WWLVsarEqWLCl33323vPXWW6l/STHMsU+fPtK3b1/54YcfZPDgwfLVV18Vw1pokRWB9CKgxJlefBPKvXbt2nLuuefK5s2bZeTIkTHn0apVK3nxxRfl77//lurVq8f8XHFJePTRR0vbtm3l008/NfVMptwTJkyQjh07miwWLFggp556ajLZZfXZ3r17y7777iuvvvqqLFq0KKmyLF++XCpUqGDyuPfee+XOO+9MKj99WBHIRQSUOAPYqq1bt5bJkyfLunXr5OCDD465hLlOnGhAV111lSHNiy++OGZcvBIOHDhQBg0aZG499thjRrvySlccrr388svSvHlzufrqq+Wpp55KqshMvOhHSL9+/YS8VRQBRSAcASXOcDwCcabE6d0MqSTOEiVKSJMmTQRTLVrav//+6/3SYnA1lcS56667ypFHHmlMtWqmLQaNr0XMCgJKnFmBPfJLlTi98UklcXq/oXheTSVxFk8EtNSKQGYRUOLMLN4xve20006TcePGqanWhRZOPKz9Yk5M1lTryrpYn86ZM0fq16+fElNtsQZCC68IZAgBJc4CoKtVqybdunWTAw88UPbee2/58ccf5euvv5bnn39evvnmm4hNgSNF9+7dTZqJEyfKtm3bPNOfd955xiz45ptvyrfffhtKU758eenRo0fovHTp0tK5c2epV6+ecQ4aMWJE6J7zAIeWxYsXOy+ZtSmnc1CZMmUEx5HDDjtM9thjD/niiy+E98+dOzfsuUgnRx11lBx++OFy0EEHCebNTz75RHh3tDzAFIcbTKBMAuItS8OGDaVNmzahou2zzz7GU7hcuXLGOeiFF14I3XMevPTSS2bC4bxWs2ZNOfnkk52Xwo6fe+45+fXXX8OuRTvBnNmsWTNj7q1YsaKsWbNG3n33XXnttdeMV3O05xPtc8cff7zpGzb/Aw44QM4880xz+sorr8hHH31kb4V+bRuELhQesC7atGlT92Vz/tdffwlrv/EITm04cNFXwJz+hiPX22+/HRVfJotVq1aVDz74wJjOwZbvAqcnvkfyefzxx+WPP/6IuUj0Fb7rxo0bm/5Kn8HjXEURSBaBvCZOiACHChxOdt555yJYbt++XR544AEZNmxYkXv2AgPXrFmzzGmDBg1k06ZN9lbY74oVK4QP+ZxzzgkLfUBTQGOIV+644w657777wh5zOgdBlgykDDxO2bFjh4wfP16GDh3qvFzkeM8995Thw4fL6aefXuQeF3Beuuaaa+T333/3vJ9sWdAs0TDjFTxlFy5cGPbYscceK88880zYNecJkwPaJxbZbbfd5NZbbzWar1d61kvBbOvWrV63zeQjmT43duxY3zbxfGHBRfpxjRo1itymD1x22WVFrnPhl19+ESYvsUrPnj2FPrn77rsXeQQnNywEkSZbTHhatGhhvjWI/vrrry+Sz3fffSfnn3++LFmypMg9rwtXXnmlXHvttaFblHHGjBmhcz1QBBJFIK+JE8Jk3QwtkYF13rx5snLlSqO5nXTSScZJAmAvvfRS8dNwkiVONE4+aKcwQ+7SpUvEcJT58+cXCT2wZMWsetq0aWYyAMERk0d4CrGd1mPyoosukilTpjhfGzrGYeadd94x5r+1a9cKWu+HH35otEe0zyFDhkiVKlVk2bJl0q5dOxP+Enq48CDZshCTSuiJUyBFJgSRwlHQuBmonYL2c8oppzgvmQEe4kfiIU4wIwaUCcPo0aONhsdAT1k7deoktWrVMpYKP0JKts+dcMIJpl2claF/Vq5c2Wi7fhrnww8/7HzEHENUhxxySNh1rC5oafEQJxMBsKTfoRVCTrTBfvvtZ/pxhw4dTN/B+uEXL2uJc+rUqaaNycfW5dBDDzUEb60mTIQIuYomo0aNCmnjpKXfYhVSUQSSRSCviZNAb2bdl1xyifDBuoUYSsjmyy+/FBx2vCRZ4vTKM9k1TvJEU77lllvCskfDfvrpp4WBB3Mx5kYvufzyy82MH2JEe/rtt9/CkmGexiyJaQ3NAA3WLZY4uZ5MWZz5pnKNkwkLpkQkVuLE3MvAu3HjRjNhWLVqlbN4hjSnT58uaKUQtZdmlIo+F/bSgpNUrnHaOsZKnPQBJnGlSpUySxYzZ850F09sf8JLF/O7F+lZ4uS9J554oqxevTosHyZsr7/+urkWaSLrfAhTNBo6kzwsCmeccYasX7/emUSPFYGEEMhr4gQxBlAGQi+BWDB3olEwe2bdxy1BJU7iP92aF2VHW7KaJnXasmVLWJXAg5k+a5Jok6xpegnrT5iKwQ6TnnvtyEmciZbF/d5sE+fs2bMFc/xNN90kXhoc5WWAZ73TC3tbn2T7nM3H/maTOG2bQHwXXnihLVLYL8sgECrYYT5l8uYWS5zEoaLBeonV9r0mYl7p7TW08Z9//tme6q8ikDQCeU+ckRDEgcM64OCs4NYweDaIxBlp5yCcnzB1ImieaJVOQfvCLI1DBnGOfoL5E/Mtwsze7URliTOZsrjfbQfpVHjVxqtxxpveXfZYz2Ppc+68skmcrO/zDbChxJNPPukuWuj8nnvukbPOOkueffZZGTBgQOi6PbDEiT8BJlYvYc0dH4E33nhDMPuqKALZQkCJsxB5TE2QCt6bmNqQSpUqGY9QjnOFOHfZZRdh3RLBLGfJz1wo+A/vXwYvzNN+Hr2kxez70EMPmd+zzz7beE7aPPiNhTijlcWZH8fZJE7WAvFIRljH9HP+MQli/C/RPufOPlvESR/A5E89unbtKu+99567aKFz1nxZFsFr1r3eTKJYiJM1yiuuuMJor9aTPfQCPVAEMohA3hMnDh0XXHCBcUiIhHu+EOdtt91m8IiEhfuel9NFrhEn/cSaZ1nXw3yfqCTb59zvzRZxsnZoTfle3szOcrK2e/vtt/taMpQ4nWjpcdARyGvitB6OhGgQm8i/DRs2hGIxCcmAFJB8IU47q//ss898TWbuTo0TTCKm2uKkceLNaveBTYY4U9Hn3PhniziJOSbeGUGLRJv0E0ucOAixzu4WJU43InoeZATyljiZLX/88cfG1MhgNmnSpCLtxABJGsSPOPfff/+QiYoQCj8nBL84ziIvLbiQrFdtpHXFaGSF5yHOF6x9sgaaqOSaxumMt8UZCu/PeCVVfc793mwRJ+VgvZwlDuIr2fzBT6677jqztkmYFGudblHidCOi50FGIG+Js3379ibmjBjOOnXqmCBxd0PF4qjhdBqJ5IWKRkYcmnsDBPc7Oc8mceIBy04v4FK3bt2Q9u1VTkjYK7SAtLlGnMS2sp6HhyghOsT8+glp3F7GpE1Vn3O/N5vEaffJxQx7//33u4sWOidkCa2UXaT4m7FuUeJ0I6LnQUYgb4nTmt4Y4Agh+P7774u0kx3ouOGncXKPeEAI1G/wcHrexkKcrBfx9yIJaUj1nxWLpnHi8EGQOu/FGQdvSC8hHg/vR3ZmgWjdkg7iZGcaNJtseNVSvzFjxhgnGJyE2NnIS3CUwsGKWEPM3U5JZZ9z5ms9WwnjsOZk5/14juON48RJB8JkVx9inb2cpti9ilAe/vLKcccdVwQXypcO4sRpiW+YDUWY6LCpB8syKopAsgjkLXFihiXUBKJ49NFHzVqm86OCONgAgT1j+QAjESfxjMQ1st0eA6pTG6ldsH8nO8zglcnAEQtx7rXXXiZ4npCQTBMnHcrGr6J1QlZoCVaDQpuCFNkIoGzZssI+rwS4uyUdxMnet4888kjWiJMQHLaNQ/uERPkjz2xnhzAhIXCfgPuddtrJ7AZF7KJTUtnnnPlSjj59+qRkk/d4iZO6slMQ5mtMtewg5DRjY+LG9E8/9usr1CUdxMnGJsTcWsEpK9K2fzad/ioC0RDIW+IEGExG/fv3NxixNonJiw0BWLfkQ8fFnjU/dg9iJo0n5THHHFPEEQai44PEmYg0n3/+udn5hNAW8kEThVy89qr1ayBMYJC135opZO3esSeVZEX4ANokhIDmu3TpUkOebNNGPREmHkwYvDaQSGVZLEaYusGWyY7fnsCsn1lPT/scZbEesfYaAz6B8QgOYW6TM1YIL+2J+qKJE7JE2+AYBXni8MJEAvHbTYl7qepz5GXF/hm6zZs3y59//mkvh34pH9vWuYXQDjR4p1Av+in92N33WM90bw/Js8T7siE8++FSBvCnz7DBhv2bp4Q99S6Ivfzpp5+crwsdp4M4rYXAvoRwGCZeKopAsgjkNXFCCsxKITU76AEoMYwMtJi9GAzY7QTzKeZYBkivP/DLIAGZObexY6ehBx98UO666y6z5Vc8xMlMnXhK/nqFs2y2waNt8s7etF4SzVTrfIZ9YdFmcHpC07QC0RDsjhnXi1xIlw7iJF/MnXj+gg+an1u8wiJwcoq0ybs7D84xL3rtFMU9tCtiXJkUgacVtnNjsEZD95NU9jn7DiYBTHQgNWJMOXdKIpu8O5+3x0yUMH16CX2bfo7WzQTHCn915oknnjCTDffkxKbhNx3ESbuz5EF50ILxQWBXJxVFIFkE8po4LXiYYnEQwpSGZpXMfpZomaxpQijLly/31Mbse4vLL/iw+TcbQrB5AhMHzLj5LhA3JIrmyoAMLtZ0Gw2bVPa5aO/K5H1IG6cyzNp4kmebqGgjvm3KkkzsbSYx1HcFHwElzuC3kZZQEVAEFAFFIEAIKHEGqDG0KIqAIqAIKALBR0CJM/htpCVUBBQBRUARCBACSpwBagwtiiKgCCgCikDwEVDiDH4baQkVAUVAEVAEAoSAEmeAGkOLoggoAoqAIhB8BJQ4g99GWkJFQBFQBBSBACGgxBmgxtCiKAKKgCKgCAQfASXO4LeRllARUAQUAUUgQAgocQaoMbQoioAioAgoAsFHQIkz+G2kJVQEFAFFQBEIEAJKnAFqDC2KIqAIKAKKQPARUOIMfhtpCRUBRUARUAQChIASZ4AaQ4uiCCgCioAiEHwElDiD30ZaQkVAEVAEFIEAIaDEGaDG0KIoAoqAIqAIBB8BJc7gt5GWUBFQBBQBRSBACChxBqgxtCiKgCKgCCgCwUdAiTP4baQlVAQUgQwicNNNN8mBBx4ozz33nEyZMiWDb9ZXFRcElDgD2FK1a9eWc889VzZv3iwjR44MYAm1SIpA7iLw0ksvSYsWLWTYsGEyatSonKjogAEDpHz58lHrsmbNGpkwYULUdAcffLCcfvrpoXQLFy6UqVOnhs6jHey7775y9tlny/777y+Mdz/99JOsWLFCZsyYIdOmTYv2eNbvK3FmvQmKFqB169YyefJkWbdundBBVRQBRSBzCOQicX7xxRcxEedHH30kJ510UkSwW7VqJU888YSUKVMmlO7RRx+Va6+9NnQe6WDw4MHSv39/KVmypGeyt99+W6644gr55ZdfPO8H4aISZxBawVUGJU4XIHqqCGQQgVwjzhIlSsj3338vO+20k7Fg/fvvv75orl27Vp5++mnf++3atZPx48fLbrvtJq+//rrRFhs1aiSxEufll18u119/vckfgsQcvnr1atl7772FvNFCKe8bb7whvXv39i1Htm8ocWa7BTzer8TpAYpeUgQyhECuEeeee+4pX375pWzdulVq1aqVMIpdunSR+++/X3bZZRdDrgMHDpSXX35ZjjjiCJk4caIMGTIkYt6YZOfNm2cIfNKkSXLVVVcVSX/++efLHXfcYa6feeaZ8s477xRJE4QLSpxBaAVXGU477TQZN26cmmpduOipIpAJBHKNOGvWrCkffvih/PDDD9K0adOEIOzTp49Z80UbfPjhh+Xmm2+WHTt2yGuvvRYzcV5yySWC49XGjRvNGvKGDRuKlGXnnXeWpUuXSsWKFeW+++4LkWiRhFm+oMSZ5QZgwb5Hjx6hUpQuXVo6d+4s9erVM85BI0aMCN1zHixYsEAWL14cutS4cWNBU/3tt98imlp4gM7JzA7TDV6D69evD+XDAeWhXLNmzZLPP//cmGOOPvpoYW2DD+fjjz+Wt956y8xiwx70OcEMc/zxx8tBBx0kdevWla+++kqWLFkimGp+/vlnn6e8L+O0ceqppxps/vvf/8ZcBu/cErtavXp1g1GdOnWkSpUqxrHhs88+k2XLlgnt8vvvv8eUMRifeOKJ0qRJEznggANM261cudKsH+Gk4Sdt2rSRhg0bFrmNMxkzeWTXXXeVZs2ambYrW7asbNmyxeRb5KGCC9bRo3aBRlCuXDn57rvvhDUx8qI/+cmhhx5q3sFAR7m7detmBtH33nvPrNEzMFJOnEhoe9r8nnvuMZqPX56puk7Z6Cc1atQwg/A333wjto0++OADiWSudBMnOPJN4NDy448/yqeffiqPP/64/PHHH1GLW61aNYMLXrp8Bzz/9ddfy/PPPy+UKRPC2IDTDfU/5phj4n4l/RRNETK788475d577w3lEQ9x8hDjGjjMnTs3lIf74NVXXzX9ijHmnHPOcd8OxLkSZ5aboX79+jJnzpy4S4E5gxmZFT5qBm2I7aijjjIeavae+5fBmsV9PNkOOeQQ2b59e1gSykO5MMVAcqxDuBfyGYhZ4GedI5KccMIJxrzDR+cWSPOyyy6L2Ryz++67m9modUpg4tC+fXt3tmk9/89//iMXXHCBmXx4vYg1Iur0/vvve90OXTvyyCPNzJ2B1S1///23XHzxxfLKK6+4b5nz4cOHew4orBUdfvjhQt6jR482A73NgMkR5OUUCJV0HTp0cF4OHf/6669y9dVX+7bxlVdeaRxCnnzySZO305HtxRdfNB6p06dPD+s7THboN+kSJp6QGt+An0ACtBF4eYmTOCFYuybnTMvkgsknkwEv4TsEO8yRTFTdwjf3wAMPGC3OfS/V50x4aQ++a8ytiQiaKu0Ltk6Jlzidz/od0+/pwzhIoqUGUZQ4s9wqzOZ69uwZVgpmiHTwSOEo8+fPl0WLFoU9x6L+cccdJ4888ogMHTo07J7zBE0CDdDPFGKJ87HHHjMzVAY73vXPP/+Y+LYLL7xQqlatakw1aMd+s0dm6ZbcKRsfL0SMZtO9e3czi8fcQ36slUQTtAe8/qyg0TCTz5RceumlcuONN8q2bduMNoYLPto32h2adKdOneSUU04xuPTt29eYsbzKhsb47LPPmgEV7eyZZ54xuOBkgUaApsTEBO9GNH63tG3bVkhrxWqMEAGEMXv2bME8B1linkPwUHT2MwZ22pX0eG+jATHxwoyGk0bHjh1NnSgH56yRucUSJ2kIYWCgAwMcQOgrhBdQN/rTRRddZNr8r7/+MiEI/KZDbN9mAvPCCy8IbWQ9StHszzrrLEEb5dsCay/ytMRJeMVhhx1myML2O56FdPfYYw+T77HHHitMdNwCYeI9Sl8BA8garRwSo10hBoQ+RTnTKSeffLJZg4SQmPRZYTJL2yXTFqkmTqxgaMYVKlQoot3acgfhV4kzCK3gKkOia5wMcMz+GfwYTL0+CMiHwQTBBOU1cFjiRCNEo3OnwZzHIMlAxMDftWtXVw1E0GYYiCtVqiTEkEEUbrEednj8tWzZUv788093kiLnY8eONYM6AxIxdpaYiyRMwwVM15hUGRCZVHgJExe07Ouuu87THAhhYTaD+Jjg3HDDDYZonXnddtttZoBjMtGvXz/nLc9j8B8zZoxpJwayffbZR2655ZYQaXo9hAWBZQDIg/6G+dAp3KecDRo0MMRxzTXXOG+bY0uc9A80XSs4dFC/d99910yOuI5DyfLly02/wOzvNSGwzyf6CxHYfFm28CJ78KfcTBb8vEctcTLZwDrj7v/U1Vpa/IiPiROTVzQmr/hG4rN79eplykhZ0ylMmDCvoi2yNsk/Jm/77bef6aPffvutWbLhe+K7ikdSTZxMxB966CEz8WKSkSlzdjx1Jq0SZ7yIZSB9osSJSQhSZA2OWTFahFuItWLgwITGh+slljghKTQsL8GTjo8GQQNiUHQKHnbEYhHMzCzfSxhMMWnWLtBAeQ/vi0XwEmRSEO9HHkvefmkoK+Y5MGYwRdNMRGzbstbFxMVrsoAGC7nQRmjk0cQSJ3iwPhSPeQuLBxMtL7HEiGMJWotb7H20PKeHJJMKzL+QN+ZIK2jCEDFaqZ+VwqZN5JfJF2v2aFGQQqJiifOpp54y5lavfHgP76N+1NNLImGLxokGiCmYsnpNcr3yTOQaZn/IEs9XrFn0O9au8bLda6+9Qlky0YC46JuxSiqJk0k9kwwmflinKHdQRYkzgC1jB9dENkCArCAtCBRzm1MY/DG50jGJl8I5x0sscQ4aNMjXoYTnMLuy3kgHp6M7xa5TRMsD93bMtkFez7D1QgNj4IlmCrfpvX6tNuk2m3mljfWaJU7Sow25NaRY83Gns/li9sRE6RZLnO4YPsjkjDPOMBoXWFl58803zZo6GhBYuoX1Xnbr8RMG+kgaOESFxom5Dy9QL03PL2/ndUuckXYOsuvMicYbUlfr3AeRrVq1ylmEsGPMwewk5ieffPJJxB3G7GSZ55kMMEHFbAxpgxlaM5MtxgcwA7tYJVXESTnIC98K+i9LSX4TuljLls50SpzpRDfBvJMhTjzWIEe0FrcmyNoKgxwDIRoj61BeYokT5yBMv35iieT22283DkDOdAxgmM4wEbm1UWc6yJ11QZwsMHEGWTC/UVeE9buZM2eaumHmpI4400QTuw6NUw4kmgqxBLdp0yaj0SWSJ1o8E6rKlSuHnFkw52Fmj5c4MRtTJkyVTuKEZCBgP+KM5iiHdo51IpKgVaEdo6mzrshyAZoUREGbeWn47vxiIU5rUaEPMPGLJKVKlTKepODLxgEISxiEnCHRiBPSvPvuu01ar/8iWY9ID2as1bIW6+dLgCOTNcfzTdrlHK/3Oa+lgjhx+sM6ZjVhtF48l4MsSpwBbJ1kiJPqMKMkBMCtGdlB2+1S7oYgVuK0GoQ7+JnZIw4Z8UimHX3iKZsz7XnnnWfMkk4Tl73PTBnNG9zxWPYSTJQ4ErHGddddd3klifuaJU7e71xrjJYRHqi9C3ZnQcPAmchPMkWcOJzhtewneKKiHUUSJoxMbiAzCMspaFiEzuCsw4TQ7U1u06aKODFJ44wDaUWSaMTJBNhvWYV8qROWm2SENW0sSPziRczuQLFIssTJ5BpTPxMqxgBCmoJOmuCixBlL78hwmmSJ0671YOogBAETF6YhPAMZPOik7thNZxXjJU639sTHh+kJkxkk7XY8cb7LHlNGiLg4CINz8+bNDbas2UGE/OI0heBsgVe0Vywm5nEct7JNnKzVMpFiLRXs0VrQmhm86CMIIQgQUKaI07w0Rf/RFjiX4KRE7CBtxIbi9E2EtXcmQV7r5KkgTutVi+aL1ss/sLXvQ8O3O+1EI84UQRI1G7sG7V6zjvRgMsTJZA2nQdqHSR87BXk5dEV6f7buKXFmC/kI702WOMnafgR2/RGzK+uNdHTizyJJrMTJYIAZiDUUTMBOsffQaDDR5brgrcnmDJgpcc5ya+G2/tYa4F4XtPcT+U1E40QbYgcYTJeY8AkBcAvk/+CDDxZL4nTXhXNIk7VXNH2OMb3jTOWWZImTTTFwHqNPQKAQkVvQrq2DWVCI03pDuy1V7rI7zxMlTjbGgDQxX4MDDoR+Vhrn+4JyrMQZlJZwlCMVxGnX4/BaZbDAM5IBnUGWEJJIYokzkqcrZjA0STQXOr37TwHhhMCaJSEPOFL4CQ4JXnFwfumDfh0s2B0HUzVrhG6xjhpgHCkYHVz91qDdeSZCnLfeeqtxtIlUDvoNjj7FUeN0Y+Q8J9yBdTS/yU2yxEkIF6EfaJfsLuVlEo7HOchZ9kSP+fZpRz/BOkToB9816518v7FIIsSJRQx80LqxwBDHjSd0cRIlzgC2FovzBJQn4lVrq0OnxNuOhXecNFj3gejotNFCHCxx0qnxvvUS672LQwqmX/c2czamFPMU7/RynIE0mY0TL8q6SixedMRRoiERwE4sHTGgmRAGlJsLXPoxb/rtFkM5MP/hjekXwoHJkIkLxAhGXnnRdmhCDEo4V0WbWCRCnNQFawROM8QRevUJS67FhTgx/dEv2VUr0p+kYv0OhzS/DUCSJU4mjBAPEx/WnL36qCVX+kw6NU76GSZhyAkrA/3SS9jajgkuZnrM97H6KMRLnOCOFQONn4kLY1OsE0SvcmfrmhJntpCP8F4cTxhQiadiPSxRsUHWdEw+IBwv6LTRxBIn72dmiOOBXZvhWT4yPELxEPQbfEjHzjRoXaytstkBg7QV6siGzwz65I3LfbT1DT42HAdwPkJwtGEwyIRYEqGs4MiWhU5MKANeoRArf4HCve7rLCNaOBMSJjLsqMMExwomPDRWNlKgHVhjTAdxWlMt7yXEw+ltiYkRbRPNgxjD4kCc9G+WBPheWL+nvzFBseu11BOtiskK3qz0Xb+/vpEscdKGhJqAIyZ5iMs5MbFr3KztMSFLJ3GyHk99IHD21mVjDnYqsn2KMoID/ZvQMiYVXlsMMsnl+3MLeeH8hLOVO+abcYf1cysoBJiBaQdIOpaxCG3dS2O3eWbrV4kzW8hHeS8DGR+U3yboEFY0zzccg6wJlUGecy/Nz10US5yYFRnA+TDw3ONDYIs71nAQ1sUwefnlyf65DBw4aND5SQ9ZoDXarfL4gBmgvXYWcpeL/Nig20oy4Rc2j1h/GThw12djCT586sOsHCJHQwQjiwtrNhCTn/kJT0JwwcEITMGFSYUTF8xmaCVeWji7DeF9aIXBlzKQl5em5dVXIBr6GGFJCO1C+AYWCvYv5hfNiXjT2gXr2ATo200b7Hv94jgTDUex+Sb6yzZtTFhsWBNEQb+lnagD9WJHKyTSGnOyxEn+tJHdk5dvmG+K/oCDEsTJhJHJCd6ykAsEzy5O6dgph9AXiM1699Kn8KCFzCFvOxFFG6VfeW1ez3WwjUfcu4rZZYp48qAvQepBEyXOoLVIYXnQXjD54dloP3ZnUd2bvDvvOY/tgj8zw2iu/PY5S5w4FPEcAy8EajdXhzSY3WMW8/rIbD78MkvFHIPmZD9Qe5/3EJ+GI1GswkYJmBYZaHC0weSYSUGDJnyDSQg7nTgFszTmJ2bVXoTnTAtx4ayF5knspBUGMyY7aOOQmZfY4Huve17X/PoKAyraBRoHkwGEiQwaMNoDAynkTnA8FgHqR72tBI04KRcaVO8ChzTM+ZTV3eeI5WSNkz9cwETDS1JBnEy0wA3N1/n9YlXBKQtTLv0HDNHEKCdLGhBaOoTvENM8Swl2gmffw4SI7faYTDg1dHufXyVOJxoajhKORo6d8cFi8mVDatYWnNpapKo6idNugMBAwEDEAIuW5TTBRMrLeQ8HBbQq1kMJV2ENNxHBFAphe2lXieSX6DNoOOzXywCMOZN/iZiVcBRBA2fdllAWBrJMCoM2a6/EdWJWjzYZymTZkn0X655oeUxkaB/6nNNsmmz+0Z7HGoCDEOZbtN9IYWDR8krFfb5jMOEbslaTbH9HqahXpvNQjTPTiGfwfdZRhV18ji5Y8I9VvIgz1mc1nSKgCCgCuY6AEmcOt7D9ax44J2BCjFWUOGNFStMpAopAPiKgxJlDrY7TAQHFCOYY1rZYl8IBxB0uEqnaSpyR0NF7ioAikO8IKHHmUA9Aq3T++ScW+gl3cIYaxFJdJc5YUNI0ioAikK8IKHHmUMsTX4kDD56ROEGwQUC02Eiv6uPtieaKR+38+fO9kug1RUARUATyFgElzrxteq24IqAIKAKKQCIIKHEmgpo+owgoAoqAIpC3CChx5m3Ta8UVAUVAEVAEEkFAiTMR1PQZRUARUAQUgbxFQIkzb5teK64IKAKKgCKQCAJKnImgps8oAoqAIqAI5C0CSpx52/RacUVAEVAEFIFEEFDiTAQ1fUYRUAQUAUUgbxFQ4szbpteKKwKKgCKgCCSCgBJnIqjpM4qAIqAIKAJ5i4ASZ942vVZcEVAEFAFFIBEElDgTQU2fUQQUAUVAEchbBJQ487bpteKKgCKgCCgCiSCgxJkIavqMIqAIKAKKQN4ioMSZt02vFVcEFAFFQBFIBAElzkRQ02cUAUVAEVAE8hYBJc68bXqtuCKgCCgCikAiCChxJoKaPqMIKAKKgCKQtwgoceZt02vFFQFFQBFQBBJBQIkzEdT0GUVAEVAEFIG8RUCJM2+bXiuuCCgCioAikAgCSpyJoKbPKAKKgCKgCOQtAkqcedv0WnFFQBFQBBSBRBBQ4kwENX1GEVAEFAFFIG8RUOLM26bXiisCioAioAgkgoASZyKo6TOKgCKgCCgCeYvA/wA+sLP/5P+HcQAAAABJRU5ErkJggg==;" vertex="1" parent="7">
                    <mxGeometry x="70" y="268" width="192" height="109.71" as="geometry"/>
                </mxCell>
                <mxCell id="29" value="" style="shape=image;verticalLabelPosition=bottom;labelBackgroundColor=#ffffff;verticalAlign=top;aspect=fixed;imageAspect=0;image=data:image/png,iVBORw0KGgoAAAANSUhEUgAAAWIAAAD+CAYAAAAAjw/2AAALrGlDQ1BJQ0MgUHJvZmlsZQAASImVVwdUk8kWnr+kEJJQAghICb0jvUoJvUhvgqiEJJBACDEEFOyIuIJrQUQElaWsggVdlSJrxYKFVbD3BypW1sWCDZU3ASz73nnvnXdzJvf7v9z57tyZyX9mAKA9ZIvFQlQRgCyRVBId6MOcnpjEJD0COKACBnAAlmxOjpgVGTkNQPvq/25vrwFE5i9bybT+/ff/akpcXg4HACQS4lRuDicL4gMAoB0csUQKAC6GvMFcqViGyyFWkcABQtwow+nj+JAMp47jnrGY2GhfiB8CQKay2ZJ0AKhDkGfmcdKhDg1WC2xEXIEIYm+IPTl8NhfiJRBbwhiYk7YLYpfUH3TS/6aZ+k2TzU7/hsdrGTOynyBHLGTn/5/T8b8tS5j7NYcObFRJbnQc9HQ4b/NyMmNCJ3Axh+0fAzGsFSnn84Jl64ZD3CCW+kRPxDSmSQLiJmJa+blBX3VOC6TBsRP4SmZ2qCyeAvF9To5v0te+otTwCFl+iAdzM+NYE/x7Ls/P/2uMJDt6IgYlFvBjEyAmQqyckxcji1GGWL2A7xs+wZtnsEMiJ+JteMLAibzoVLE0MuJbXmG4rBY1yAfwcr7XKOXHBo1jNFkKN8BEX2GaICB4QjOPLwmKnsCFYuHYXh7TZEv8A2X7BvKreaK4mHEereOy/UIndPbiWrgn7oG74D7QewM/IAA5QAyEgAcyQCRgAxGQwm8h/LAJjwiXQBjIhpwAstlA8sMTD+TC51CIMyAWggIkCsQADuDDJwnIAtktKp0NV6nt5C4p5DPHoiCPq8DcLNwLd8cdcVfAAmlAgGrAjBmV2flu8XzgAxWFgAtHlQkeynqkecp4my6bepuDNtdtBm0asBqsHevGDmNtMJo3ll0W/y03nUy3orPo5nQVOomuRTcC/lBLMlZbONTMh6OXgrcgCTI5sC+siOhANIHNDDCh9yO6Em2JTj/MDRv2kdXwaKwyIOXNk8o2rm+2OF8iSOdLmSz4xuAxg0Uca0umnY2dHQCy98/49n4dNfZeQdS6v3NSuB4efwKA9XznknIA2AV1J9l/50zVAVDdCkC7OSdXkjfO4bIvAlxNBbjSGvDfYwBMgRWwA07AHXjDWkNABIgFiWDW2IxkwTHPBQvAUlAMSsFasAFUgRpQDxrBbrAPtIFD4Dg4Dc6DHnAV3AZ9YAA8B0NwdkYQBCEhNISBaCC6iBFigdghLogn4o9MQ6KRRCQFSUdESC6yAFmGlCJlSBVSizQhvyEHkePIWaQXuYn0I0+RV8hHFEOpqAqqjRqjU1AXlIWGorHoTDQdnYMWoEXoarQSrUN3oa3ocfQ8ehXtQ5+jwxjA5DE1TA+zwlwwXywCS8LSMAm2CCvBKrA6rBnrwLqwy1gfNoh9wIk4A2fiVnBHBeFxOAefgy/CV+FVeCPeip/EL+P9+BD+hUAjaBEsCG6EYMJ0QjphLqGYUEHYRmghnCJcJQwQ3hKJRDW49s7EIGIiMYM4n7iKuIW4h3iM2Et8QBwmkUgaJAuSBymCxCZJScWkTaRdpKOkS6QB0nuyPFmXbEcOICeRReRCcgV5B/kI+RL5MXlETlHOSM5NLkKOK5cvt0auQa5D7qLcgNwIRYliQvGgxFIyKEsplZRmyinKHcpreXl5fXlX+Sh5gfwS+Ur5vfJn5PvlP1CVqeZUX2oyNZe6mrqdeox6k/qaRqMZ07xpSTQpbTWtiXaCdo/2ns6gW9OD6Vz6Yno1vZV+if5CQU7BSIGlMEuhQKFCYb/CRYVBRTlFY0VfRbbiIsVqxYOK1xWHlRhKtkoRSllKq5R2KJ1VeqJMUjZW9lfmKhcp1yufUH7AwBgGDF8Gh7GM0cA4xRhQIaqYqASrZKiUquxWuaAypKqs6qAarzpPtVr1sGqfGqZmrBasJlRbo7ZP7Zrax0nak1iTeJNWTmqedGnSO/XJ6t7qPPUS9T3qV9U/ajA1/DUyNdZptGnc1cQ1zTWjNOdqbtU8pTk4WWWy+2TO5JLJ+ybf0kK1zLWiteZr1Wt1aw1r62gHaou1N2mf0B7UUdPx1snQKdc5ovNUl6HrqSvQLdc9qvuMqcpkMYXMSuZJ5pCell6QXq5erd4FvRF9E/04/UL9Pfp3DSgGLgZpBuUGnQZDhrqGYYYLDHca3jKSM3Ix4httNOoyemdsYpxgvMK4zfiJibpJsEmByU6TO6Y0Uy/TOaZ1plfMiGYuZplmW8x6zFFzR3O+ebX5RQvUwslCYLHFoteSYOlqKbKss7xuRbViWeVZ7bTqt1aznmZdaN1m/WKK4ZSkKeumdE35YuNoI7RpsLltq2wbYlto22H7ys7cjmNXbXfFnmYfYL/Yvt3+pYOFA89hq8MNR4ZjmOMKx07Hz07OThKnZqenzobOKc6bna+7qLhEuqxyOeNKcPVxXex6yPWDm5Ob1G2f21/uVu6Z7jvcn0w1mcqb2jD1gYe+B9uj1qPPk+mZ4vmLZ5+Xnhfbq87rvreBN9d7m/djlhkrg7WL9cLHxkfi0+LzztfNd6HvMT/ML9CvxO+Cv7J/nH+V/70A/YD0gJ0BQ4GOgfMDjwURgkKD1gVdD9YO5gQ3BQ+FOIcsDDkZSg2NCa0KvT/NfJpkWkcYGhYStj7sTrhRuCi8LQJEBEesj7gbaRI5J/L3KGJUZFR11KNo2+gF0V0xjJjZMTti3sb6xK6JvR1nGpcb1xmvEJ8c3xT/LsEvoSyhb/qU6Qunn0/UTBQktieRkuKTtiUNz/CfsWHGQLJjcnHytZkmM+fNPDtLc5Zw1uHZCrPZs/enEFISUnakfGJHsOvYw6nBqZtThzi+nI2c51xvbjn3Kc+DV8Z7nOaRVpb2JN0jfX36U74Xv4I/KPAVVAleZgRl1GS8y4zI3J45KkwQ7skiZ6VkHRQpizJFJ7N1sudl94otxMXivjluczbMGZKESrblIDkzc9qlKvCg151rmrs8tz/PM6867/3c+Ln75ynNE83rzjfPX5n/uCCg4Nf5+HzO/M4FeguWLuhfyFpYuwhZlLqoc7HB4qLFA0sClzQupSzNXPpHoU1hWeGbZQnLOoq0i5YUPVgeuHxnMb1YUnx9hfuKmp/wnwQ/XVhpv3LTyi8l3JJzpTalFaWfVnFWnfvZ9ufKn0dXp62+sMZpzda1xLWitdfWea1rLFMqKyh7sD5sfWs5s7yk/M2G2RvOVjhU1GykbMzd2Fc5rbJ9k+GmtZs+VfGrrlb7VO/ZrLV55eZ3W7hbLm313tpco11TWvPxF8EvN2oDa1vrjOsq6on1efWPGuIbun51+bVpm+a20m2ft4u29zVGN55scm5q2qG1Y81OdGfuzqe7knf17Pbb3d5s1Vy7R21P6V6wN3fvs99Sfru2L3Rf536X/c0HjA5sbmG0lLQirfmtQ238tr72xPbegyEHOzvcO1p+t/59+yG9Q9WHVQ+vOUI5UnRk9GjB0eFj4mODx9OPP+ic3Xn7xPQTV05GnbxwKvTUmdMBp090sbqOnvE4c+is29mD51zOtZ13Ot/a7djd8ofjHy0XnC60XnS+2N7j2tPRO7X3yCWvS8cv+10+fSX4yvmr4Vd7r8Vdu3E9+XrfDe6NJzeFN1/eyrs1cnvJHcKdkruKdyvuad2r+4fZP/b0OfUd7vfr774fc//2A86D5w9zHn4aKHpEe1TxWPdx0xO7J4eeBjzteTbj2cBz8fORweI/lf7c/ML0xYG/vP/qHpo+NPBS8nL01arXGq+3v3F40zkcOXzvbdbbkXcl7zXeN35w+dD1MeHj45G5n0ifKj+bfe74EvrlzmjW6KiYLWGPHQUw2NC0NABebYdn/UQAGPDeQJkxfj8YM2T8TjOGwH/C43eIMXMCoBaePxPgWTF0OQBV/QCYNEPdVgAiaQDEugLU3v5bm7CcNHu7cS2qDzya3BsdfW0MAGk9AJ/Xjo6O1I2Ofq6Hg70DwDHR+L3kh7H/qwcy5THtv/l/AsDbPsvmaFvqAAAAimVYSWZNTQAqAAAACAAEARoABQAAAAEAAAA+ARsABQAAAAEAAABGASgAAwAAAAEAAgAAh2kABAAAAAEAAABOAAAAAAAAAJAAAAABAAAAkAAAAAEAA5KGAAcAAAASAAAAeKACAAQAAAABAAABYqADAAQAAAABAAAA/gAAAABBU0NJSQAAAFNjcmVlbnNob3SXhSrVAAAACXBIWXMAABYlAAAWJQFJUiTwAAAB1mlUWHRYTUw6Y29tLmFkb2JlLnhtcAAAAAAAPHg6eG1wbWV0YSB4bWxuczp4PSJhZG9iZTpuczptZXRhLyIgeDp4bXB0az0iWE1QIENvcmUgNi4wLjAiPgogICA8cmRmOlJERiB4bWxuczpyZGY9Imh0dHA6Ly93d3cudzMub3JnLzE5OTkvMDIvMjItcmRmLXN5bnRheC1ucyMiPgogICAgICA8cmRmOkRlc2NyaXB0aW9uIHJkZjphYm91dD0iIgogICAgICAgICAgICB4bWxuczpleGlmPSJodHRwOi8vbnMuYWRvYmUuY29tL2V4aWYvMS4wLyI+CiAgICAgICAgIDxleGlmOlBpeGVsWURpbWVuc2lvbj4yNTQ8L2V4aWY6UGl4ZWxZRGltZW5zaW9uPgogICAgICAgICA8ZXhpZjpQaXhlbFhEaW1lbnNpb24+MzU0PC9leGlmOlBpeGVsWERpbWVuc2lvbj4KICAgICAgICAgPGV4aWY6VXNlckNvbW1lbnQ+U2NyZWVuc2hvdDwvZXhpZjpVc2VyQ29tbWVudD4KICAgICAgPC9yZGY6RGVzY3JpcHRpb24+CiAgIDwvcmRmOlJERj4KPC94OnhtcG1ldGE+CqnVjroAAAAcaURPVAAAAAIAAAAAAAAAfwAAACgAAAB/AAAAfwAAJ8sb0Jj0AAAnl0lEQVR4AeydCbxNVfvHn6JkzjxkqAwVokJSyZi5UhJJQmYy05tkyFCkQjQpldBAXmTIrAGZMpMGmVJChTLLv+/6v+vY99y9zz3n3Hudc+59ns/n3rP3XmuvvfZv7f1bz3qeZ619Se7cuc+LiiKgCCgCikDEELhEiThi2OuFFQFFQBEwCCgR64OgCCgCikCEEVAijnAD6OUVAUVAEVAi1mdAEVAEFIEII6BEHOEG0MsrAoqAIqBErM+AIqAIKAIRRkCJOMINoJdXBBQBRUCJWJ8BRUARUAQijIAScYQbQC+vCCgCioASsT4DioAioAhEGAEl4gg3gF4+ehEYOHCgXH/99a4V/O9//ysfffSRa5oeVARCRUCJOFTENH/MIVClShWpXLmybN68WaZPnx50/WfOnCm33Xaba/7Ro0fLsGHDXNP0oCIQKgJKxKEipvljDoEnn3xSevToYUi4Q4cOQdf/6quvlowZM8bJP3z4cClfvrwoEceBRXcSiYAScSIB1NOjH4Fwidjtzj788EOpWrWqErEbOHosbASUiMOGTk+MFQSUiGOlpVJvPZWIU2/bp5o7HzFihDz22GMhmybcAFKN2A0VPZZYBJSIw0AQG2HZsmXl559/lk8//VQKFiworVq1Mh7206dPy/bt2+WDDz6Q3bt3J1h6mjRppHr16lKjRg0pUKCAsP/TTz/JunXrDHGcO3fOs4x77rlHrrrqKlm4cKGkT59eGjVqZMqYM2eOqdeZM2fMMLp+/fqSK1cuk+/999/3LI+Ef9enNnUpXbq0FClSRH788UfZtGmTLFiwQA4dOhTwXP/EihUryr333ivHjh2TqVOnyvfff++fJcn3S5QoIXfddZev3Dx58sgjjzwiWbNmNc66adOm+dKcGzNmzJBff/3Vech1OzFETFs1adJErr32WsmbN68cPHhQtm3bJlu3bpVVq1bJX3/95XpNPZjyEVAiDqON+/TpIz179pQvvvhCRo0aZUg3Xbp0cUo6fvy4kA8C8pKiRYvKO++8I8WLF3fNsmPHDnn88cc9CQxSqVSpkgwaNMjUJ1OmTL5yqN8///wjL7/8su8YG927d5cpU6bEOWZ37r77bhkzZoxkz57dHvL9QsJPPPGELFmyxHcs0AYdw5YtW8TWaf369VK7du1ApyRJGpovGnCoQme1Zs2aBE8Ll4hpozZt2piO1u0idOrgu3z5crdkPZbCEVAiDqOBLRGjtebMmVOWLVtmCOro0aNSrFgx80KhJZ86dUruvPNO2bNnT7yr5MiRQz7//HOjqaJxolmvXLnSaG516tQR/sjz7bffSq1ateTkyZPxyrBEfODAAXnxxRflm2++MYTMufv27TOaKESMpvfMM88Yb/+KFSvk/vvvj1cWmhqRAAhETZgX2jCRA40bNzaa3Pnz56Vdu3ZCWFdCgnYPPlZ+//13ueGGG+xusv2WLFnShKo5LwDJMoIJFL7G/SaXRtypUyfp37+/MFqaPHmyIfwNGzbIZZddZkYdtAejG/Bt3bq1zJ4921l93U4FCCgRh9HIlog5lWHvokWL4pSSJUsWQ6qQNC8eoVP+kj9/fqMNQ7CQ4IkTJ+JkYfi6dOlSueKKK6Rt27au5GeJGC2ta9eu5vwrr7zSkPcll1wiQ4cONRouCTfffLN89tln8ueff8p1110X51qZM2c2Q2OIn3Ioz1+6dOkiTz/9tOzfv19uv/32ePX1z8/+G2+8IZAgBMTIwRK9W97kPBZpGzEdLhNDcBq+++67rreKeYoRSd++fc1IxjWTHkyxCCgRh9G0loh37twp2EHdpHfv3tKrVy9B80GjdRM0ossvv1z+/vtvt2SxROsVs2rTO3bsKJ988omvjO+++85o1lyX6yOQLPZIzBXYKvm18tRTT0m3bt2MDblZs2b2cJzftGnTmmEzGjLaHSQbjNAp0dlAxpGSSBIxuDEiwvbvbI9IYaHXjU4EYo6IIZ0KFSp4osm007lz53qmJ0WCJWJsxDjI3KRBgwaGrI4cOeJpA3Y7z3kMs0LTpk2Nnblz587OJLNtiRjb46xZs3zp2GPRuKtVq2YcQSSgWVvnYeHCheOYOjgXTOk8Jk6c6CvHfwP7MWYKSJ92iBWJJBGD0eLFi6VUqVIyfvx46devX6zApvW8iAjEHBGjiUFyXvLss8/KuHHjvJKT5HgwRIznHkcdmiD24kCCGQEHGR7+bNmyCfsIs8CIpqCcUIgYWzFar5OIcSZaW7U/ERPlwfUhfmzSXoKZAVsmNm2G0bEikSZi7L6YiRBGK/gUwJkRFb9//PFHrECp9UwmBGKOiLGXlitXzhMOtLX58+d7pidFQlIRMQ6t9u3bGxsxdlovSU4ixqZMdEYocrEcb6HUKVDeSBMxdSO8EV8BYYT+snfvXuMcRWMmpE0l9SEQc0QcDU2UFESM9ovzDBMCxDZv3jzhhSTyAu858sADD5hIh+QkYmzUmCwuvfRSef75542WlhDGRINQ91iRaCBisMInwCJCxGgTskicNr/EOCO7du2Shg0bmogXc0D/pRoElIjDaOqkIOKRI0fKo48+arRRhvwQsL+89NJLJiojOYmYazKZACdcixYtTIfgX49Y348WInbDETMUDt+xY8cac9KECRME56lK6kJAiTiM9k4KIrYOHEiCGGA3uVhEPGnSJGPzpXN44YUX3KpijhEBcPbsWc/0aE2IZiK2mBGtwnOAmcg5M9Cm62/KRkCJOIz2TQoiZspwmTJlBBJkFpybWLJObo24Zs2awtRnTCTECLs5jyBhYqKZYUc8MfHICQmxs3Xr1jUTS5h2TQxyJIR1g5mhyKSNUJbBdKtrqDPriFYZ+O8C80ySwcnpJdiQn3vuOVm7dq3Uq1fPK5seT6EIKBGH0bBJQcTWNEFUBXZDprha4eWF7CAxHHrJTcRcl2ugiTEbjskbP/zwg62OcTANGDDAhOpRX6IxElo3AtszM9lwBiJeM/p8F0nGDda7wBEWCSIePHiwmZADbkxzJjyQbacwGxOiLlSokLzyyisyZMgQZ7JupwIElIjDaOSkIOJ8+fKZMCaIioV90JY2btxoSA+tlG3ierHf4rzj5WVqsZ1BR7W94ohDDV+jLELaWPeCKcIsFsTkD8Kr0Grt1GTMEmjvbjPvKMMplLd69WrfocTEU/sKCXMjQ4YMZiEm7LHUw00wDYC5U5gFx9Rop9BedDKsJeK/SA+jCswgTmEkwfPCOhI4RMEW8wOdFJNdKJ8FgBAm3zDdmbJVUhcCSsRhtHdSEDGXhfTQfiBeK8yyQ3tEK8VUwPTn5s2bmxeW76QR7mYlKYmYMiEYJhwwacNqsvZaX331lSEZOoZghVBC1tpgFh/x3wzRIyXEPeMEQ/vkPv0Fh6n/oj+BPpXkfz77b775plnTwy2N0UbLli1NxASjHKfQzjjp0NqDMfk4z9XtlIGAEnEUtCMhbNdcc42Z7YZWFg0OMSaEoA2j9RHeFsyCOG5QMtymczl8+LBbcqo8xqSdG2+80YyEMEnxh6asknoRUCJOvW2vd64IKAJRgoAScZQ0hFZDEVAEUi8CSsSpt+31zhUBRSBKEFAijpKG0GooAopA6kVAiTj1tr3euSKgCEQJAkrEUdIQWg1FQBFIvQgoEafettc7VwQUgShBQIk4ShpCq6EIKAKpFwEl4tTb9nrnioAiECUIKBFHSUNoNRQBRSD1IqBEnHrbXu9cEVAEogQBJeIoaQithiKgCKReBJSIU2/b650rAopAlCCgRBwlDaHVUAQUgdSLgBJx6m17vXNFQBGIEgSUiKOkIbQaioAikHoRUCJOvW2vd64IKAJRgoAScZQ0hFZDEVAEUi8CSsSpt+31zhUBRSBKEFAijpKGiJZq8KXj/v37m+rwaXc+bBnLwkdQmzZtaj7Uyjf4+H7eli1bZN26dcLHWPmwaTBSpkwZueOOO6RcuXJy7bXXmjLWrl1rvsS9a9euYIowHy7lK818Fbto0aKyb98+U87SpUvNB2ODKSRnzpzy6KOPyi233GK+vH3ixAnh+itXrpQpU6aYr30HU47miS4ElIijqz0iXhs++f7LL7+YelSsWFF27twZ8TqFW4H77rtPhg4dKrly5XItgi9T85n7/fv3u6bbg23atJHBgwcLnZS/HD9+XFq0aCGff/65f5Jv/7LLLpOuXbuaP7cvSJPx7bfflkGDBsmpU6d85/lvQMDDhg1z/Qo1ebmPdu3ayerVq/1P1f0oR0CJOMob6GJXL6UQcY0aNWTy5MkGvhUrVhii+/777+WKK64wX6eGGIsUKWI6ndtvv10gVDfp0aOHPPnkkyZpxowZsnjxYtM58RXme++9Vzj39OnT0rZtW5k3b55bEWaE0alTJzl//rzRWmfPnm2+jI12W758eUPQWbJkMedD6m5CZzBkyBCThEZPPb744gvha9s1a9aUqlWrSsaMGeXQoUNmny9Dq8QOAkrEsdNWF6WmKYGIM2XK5COpSZMmSc+ePeNhh2YKsZYtW1ZeeOEFGTlyZLw8efPmlW+++UbSpEljNNHRo0fHyZM2bVoZN26cNGjQwJgZIFV/UwcmDQiaMjp27CiffPJJnDLYgUyXLVsmkDGmCzoOp6CJ06lUr15dFixYIJD1uXPnnFmE60Dw3Bf1RHNWiR0ElIhjp60uSk0ZxqNxIbFqmsAk8eabbxotF4I6evSoK3Y333yzfPbZZyZfyZIl42nFaM19+/Y1eECCbgLpg1f69OmlcePGhlCd+UaMGCGPPfaYrFq1ymjQzjTndufOneWZZ56R5cuXywMPPOBMMtt0kBDwBx98INiF3WT69OnGjo3JpWHDhm5Z9FiUIqBEHEbDVKpUyTh/fvjhB1m0aJFky5ZNKleuLBzPly+fbNq0yWhk/pqN16WyZs1qhpOlS5c2w2aGlZs3bzZ2R67hJbz8vORusmTJEvnuu+9MUsGCBY3GlD9/fuGFZki7bds2k8b5lIOg4THEvfPOO83+mDFj5PDhw2bb+Q8nE9pXQgKRM3w/duyYTJ06VTANXAx56qmnpFu3brJhwwapVauW5yW5Xxxd2HAxZYC5U77++mu55pprpF+/fjJ+/HhnUpztsWPHSqNGjWTmzJnGROFM/PTTT+XWW2+VV1991diAnWnObbBCQwcrHHnhiK0HWnydOnXCKULPiRACSsRhAG+1HLzuAwYMkLlz50qBAgXilcQQ8bnnnjO2wXiJ/zuAF/6NN95wPR/bIw6ct956y/X03LlzxyMPm7FLly7y8ccfy4svvihNmjQxQ2Ob1qtXL3n//ffNLtqclzPL5vf/xTH10EMP+R+Osw+5UzYaI7J+/XqpXbt2nDzJtYM2jFbMMB4HVyDZuHGjYILAxguRWnGODLDBks9LmjdvbswbOMvQsp2ydetWwRbMc/L66687k+JsE4lB5ANSqlQpOXjwYJz0YHawG3MubUsbq8QOAkrEYbSVJWIe/Bw5chjCYfvPP/80DiCID4JFvOyPpKFBf/jhh0YTRYNlmygFCPauu+6S1q1bmzQvbQqya9myJUX5hOE0IVsQcYYMGeT55583zqSffvrJN6Slg6DzQBjuks8KxGltqmhYbhrx3r17BU0vkNAxESJmhTA4wrYuhgwcOFA6dOgg3377rRmpeF0Txx0aMTZYHGGE61kpUaKEEFaGQK6BIivoYN577z05c+aMMPrAKWeFzgDzCFERmDm8hJEI7Y+gzaLVhiKPPPKIvPTSSybqgtEZ7a0SOwgoEYfRVpaIccygDS1cuDBOKThmIGBeDsiZmE/iV53Cy49ZAw3Gy7nCkBYtDccM5gJIIyEhdKlw4cLGWYPWSl0xI/g7d7zKcWqCibURo+nXr1/fdASjRo0y9+l13aQ8TkcIphAjsb+7d+92Ld4SKImEsTGCsAKZ2X06FcpCihUrZtoMs4UN86PTnTNnjkm/7rrrTJubnX//Yd7BdoxZBrK15dh0+0t4HFo5wvMSKOqBdDphOhLqhlkFrZ1nrX379r4OxJatv9GPgBJxGG1kiRibIi+Bm2TOnNnEc2bPnt1oQmhETrEOJeytEB5mCDfBtNCsWTOZNm2aEAKVkFgiPnLkiPHAMzQORZKSiLkukQAnT570vL9Q6hZsXkYp2OcZGeD8YtQAHk4pVKiQfPTRR6bTouPEloxN2Qo2X0YECKYLtFxIFvs6QnmEsBH3i8aL5oswyrG2ebtP2yGvvfaaiUf27xSrVKliNGZGI3TYhNU5tWpzsuMf9+RvR8aGTeQHZKwSewgoEYfRZpaIca4QQO8l2OrQVNxCqAgvevzxx83sLrQYL8GDzguMOcCaO7zyctwSMSSDeSJUSWoiDvX6SZXfasWUh70V7RbHZ7p06YyJ5MEHHzTEhe0WwUbrHLVgW7YhbZaInbHJnAMR//bbb3GI2M2ebLVizsFuTjgbWjpY06YVKlQw4WmYlbBFU0YgwVRFyBvORhyw1I8RFgSNbVjNEoHQi840JeIw2sUSMc66QCRqh5vYGiEGpxCGVK1aNWHIjkPPSxiG8uJiBsHk4KU52/MtERMKhdMqVEkpRMx904nR4RHV4hQIl0gINGd+3To57LTvvvuuOc0SMTG6tD3mpPnz5xvzExmcGrGbPZnzsLsTogZ5OgXzBqSP/ZjnATsxhByKEKnD+Zii/vrrL+MUvVgRKqHUU/N6I6BE7I2NZ0qwRAwZ8vLt2LHDON+cBeIhRwuDKLBnegkOrmXLlplk7J2BwtnIZIkYbRitOFRJSUTMvWOewPSD8w0TBKYFnIjYanGQEj/s1gaB7L7+mOJYJTwPcdqT/fPRkTLpgzUv0NKJPsGhSIdAyCMkXa9ePWENi1AFjRitn7pglmFiiErsIKBEHEZbhUrEbnGd1puONoxW7CVO7z1xxgcOHPDKao4rEQeEx5cI4U2YMMHYepldR/yuUyBNsERwlAbSMDFzMMMO+yx25FCF9TCIkEnsRAw0YiI/sC9jQ0Y7VokNBJSIw2inYImYcCIiJ2bNmiWsFeAUIgqYGptQWBOOHDRbhtNo0AmJEnFCCImJbYb0GNLjDKU9/QVbMqMPzAq0IREuXmLXowjkvPU696abbjKmJybaYErBzhuuYGvmWUPcbNXhlqvnJT8CSsRhYGyJGDsh4WteQkgTQ1ycbQP/jW11CgvJ8AK72Y+d+Vq1amVsyDh5vKbZOvMrETvRcN9mBPLwww+bcEAIyz+iwp5lO0vMDpiYvOTLL7+U4sWLm8k3ONKCFaIkiMdm1EOIIc5bL8Ep9+uvv8Zby8KZ3xnpgfnjjz/+cCbrdhQjoEQcRuNYImalK5xpbksXEgNsJz0QqkbcqVPQbrFXYtvDSYMd2V+Yeosdk5ccZ4x/CJx/fvYTS8Q4trBbIomNI4YM6tata4b9dEqBJkWYC16Ef0RJsPgOw3bq5oa7rYa1/bK2A9t79uyxSb5fG0mBzRntlmciGCEOGIctGG/fvt3UxWsFOOKdibzAlMIEHS+xDmDizdGOVWIHASXiMNrKEjEOFxwrhAw5X0BeLmyGhBitWbPGTGpwu4wNYYP4mAlm138gL04m0lm8hXAk4lO9JgM4y04sEVOW1fASQ8QM6Rmqcx9INDiQ/vOf/0j37t2NDZUZhSz4E0joJOks6QjpRFiXA6caguMPbZppy0ysCDbOm3PJP3HiRDPrD62VctxInrwIERd9+vQx28zgI6yOsDkrOPvoqIk3R3iWWABIJXYQUCIOo60sERO+BnnyovCC4qwhGB9tl5eYfYbAXtNVISm0HKIhzp49a4jLTnHGMcdiQAxHMU84pwvbKvMC2ogK5zFIghXHmEjhFIgcDT4hsWYTpiVTL3+BVAPFT5Pf6exin+E/hBYJYQr3yy+/bGzyaJ1ElNjRSkL1yZMnj7HR2+nZdLi0EeYEu44GhI4PIKHQQq4FLu+8846J1kBzhdztCCRQXWwEDnloR+qAIsB0+Kuvvtq3WDzmFPuFlUDlaVp0IaBEHEZ7OImYOOLevXsbbYR4UysQM2TFCxNIcNKgpWEfhFitQKKsX0HZbus9kC/Qoj+2HOcvRMFaCAkJs+GIgcZkwjX8JZhFfziHtXeJOCAGGoLwt5P7l5sc+6yeBvFBpEyigPgwBYQidJjDhw8398ICPlbQYjG5gJX/bDmbx/kLnvgLKI8OlOcjlJlwTJHGVm1Xx7NlEyVBR816GXbhIJumv7GBgBJxGO3kT8S2CEKG8MQzJA/lBbPn45DBrso6A3jsg3m57bnR+stUYiI+vDqTaK23V73QaBnx4DxFI42E0GGDKzHfPCs//vhjvNFPJOql1wwfASXiMLDzIuIwitJTFAFFQBEQJeIwHgIl4jBA01MUAUXAEwElYk9ovBOUiL2x0RRFQBEIHQEl4tAxMzOxcPoktOhPGEXrKYqAIpAKEVAiDqPRmYrKZ9QJS5syZUoYJegpioAioAhcQECJ+AIWuqUIKAKKQEQQUCKOCOx6UUVAEVAELiCgRHwBC91SBBQBRSAiCCgRRwR2vagioAgoAhcQUCK+gIVuKQKKgCIQEQSUiCMCu15UEVAEFIELCCgRX8BCtxQBRUARiAgCSsQRgV0vqggoAorABQSUiC9goVuKgCKgCEQEASXiiMCuF1UEFAFF4AICSsQXsNAtRUARUAQigoAScURg14sqAoqAInABASXiC1joliKgCCgCEUFAiTgisOtFI4FAy5YtpXXr1vLLL78IH0jlE0MqsYtAyZIlhY+qeskjjzwSM58bUyL2asUgj/MFXdYmPnbsmLz00ktBnqXZIoEAX0vOli2buTRfdX7++ecvejVatGhhvuTMV6S9vu590SsVoxfkI6p8oNZLChQoYL547ZUeTceViBPZGvZh4LP3ZcqUSWRpenpyIjB9+nS54447zCXatm0rM2fOTM7LuZbNNW+77Tbp2bOnTJo0yTWPHgwOgYwZMwqKkFNKlCghY8eONYeUiJ3IpPBtJeLYaeDLLrtMKlSoYEwTkTJLKBEn7/NStmxZmTt3rrmIEnHyYh1VpSsRR1VzRH1llIiTt4mUiJMX36gt/b777pM333xT1DQRtU0UVRX76quvpFixYmqaSKZWUSJOJmCjqdgrr7xSmjRp4qsSNiq+X1e0aFHjrBs5cqQvzbmxatUqWb9+ve8QDqPGjRubfeyEf/31ly/NbQOyz5cvn/iXQ95KlSoJ3uMffvhBFi1aZJxRlStXNsc5Z9OmTfLFF1/IihUr3IqOdyx37txSo0YNKV26tBQpUsREFlDGggUL5NChQ/HyBzpQsWJFuffeew02U6dOle+//z5Q9iRNww570003uZZ58uRJeffdd13TnAfLly8vvNg///yz4FwrWLCgtGrVSq6//no5ffq0bN++XT744APZvXu38zTfNjjybFjhvIcfftjszpo1S9atW2eTfL///POP6dh9B1w2KId2xyeRM2dO2bJli2zcuFE+++yzgM6pu+66S7Ch+guO5smTJ5vDmG9uvfVWY3vNnDmzHD9+XCZOnBjnFPs8rl692jgcyc97UbhwYfntt99k8+bN8t5778nff/8d5zy3HfsOlStXTjAl8C789NNP5nkL9pl1lqtE7EQjhW6jyaDRhCrDhg2T0aNH+0679NJLDakWKlTIhFEFIoUcOXLIhg0b5PLLL5eqVavKtm3bfOWwMWLECBO1wRelBwwYYOxjPND+wvWfe+45OX/+vH+Sb//uu++WMWPGSPbs2X3H7AYk/MQTT8iSJUvsoYC/6dOnNwSRKVMmk4+OqHbt2gHPScrEfv36mfq6lXn48GFXQvLP26dPH6O50pGNGjXKkG66dOniZIOoyEdH4y9vvPGGNGjQwP9wwP0zZ84YQnLLxHNDG3C9tGnTxssCGbdv31527twZL40DL7zwgjRv3jxe2t69ewUixH7+yiuvGEK1mQ4cOGA6ZbvP74wZM4ROlueJjuPpp592JpvtPXv2yOOPP24UgXiJ/ztQq1Ytc72sWbO6ZqHzx6l64sQJ13S3g0rEbqiksGNoxE2bNo1zV6VKlZKGDRsGDF/7+uuv44Uqde7c2cRAbt26VapVqxanTOdOp06dpH///rJmzRqpX7++M8lsWyJevHixQNpoR2z/+eefRqNFU+ElQ3gRvbR28tnOgi9TE2GAQwuvNNo76ZB4u3btgoo2oDNwany///673HDDDaYeF+MfRHHzzTfHuRTXf+ihhyRUIuY+0DyXLVtmOqKjR48a8wKkiJZ86tQpwVcA+TiFjo3O2ym0J2XNnj07Dj42D8T2+uuv2904v7QP7YBGT8dAfQ4ePGhw7d69u9He0UKrVKkSry4UxEiJ0ZMVNGo6CogYDfvLL7809wP5EmuNgJX/M2+JGKcYxIf2a9v6lltuMZ1FhgwZZMeOHebZPnv2rL2k75evoBN6RueCJk8HTzgfbVSnTh2pXr260Omhqffo0cN3XkIbSsQJIZRC08O1ETs1XR48t5jSSy65RFauXCnXXHONQNxuWpclYl5gtJ2FCxfGQTpNmjSGgAluh5x5UfyHjAxBMXtQp65du8qHH34Ypwx2unTpYjSf/fv3Cy9RMFoKGiGdB8N4iMMSfbzCL9KBevXqyYQJE0ImYqoHfph+nJIlSxbTPhBrsIQRro2YznTOnDnGVMDIApJzCu0MIUL+ECSTVxKSRo0amVAviJiOIU+ePPLss8/6SNjrfEvEkDRaLec7xdaVY3Q806ZNcyabbZ4hfCukDRw4MF76gw8+KOPGjTPHUXbocIIRJeJgUEqBecIlYqB49dVXjTaNnbFbt27x0EFL4UGFQLHZonn5iyVi7HLYJN0EosWeh8mhb9++8vbbb8fJ9tRTT5nrQ+LNmjWLk2Z3GAovX77caMho6JBsMAJZocFBxpGWcImYoT4atpv07t1bevXqZcxHkFJCEi4RY6PGFjto0CDz3LhdB1MX7UwHzrPAMxFILBHTNpTfsWPHQNl9aZaI8W8QD+0mmMogW8gUcncTRpg8225Cx7Jr1y5jkmNEhvYfjCgRB4NSCsyTGCLmxeIFQLuEaBnyOmX8+PHG2cVQFfuvm1gi5uXAbOAl77//vtSsWdNMIvB/eXAcYR+EVPwdM87ysB/zUjCkDPaldZ4f6e1wiRgbMaTlJgzt6ZSOHDkixYsXd8sS51g4RIx/AFKCnJiQgmPWSzARYBZiOG8dcF55LRGTjhbrr9l6nWeJGBsxIx03sfboefPmSYt/ZxOGI3QqOAAxu2AuC0aUiINBKQXmSQwRA8fSpUuN48hfU82VK5eJtEAT5eXzmoBgiRgNBEeNlwwePNg4Prgedkan4P1HW2baL9OAvQQzwz333GMcMAyBY02Sg4iJRMBkhFaJvTghCYeIr7vuOhP5go2eDhAzlJfQydIhBOq87bmWiIPtROx5wRCxHWWhydoIIXu+/y/POM87ETuM3qwwQ47IHyVii4j+eiKQWCJmnQrIlGgIoiKsWGceDhTsZV4SLBGzOAplYluEPKwwPPS3N9o0r9+L7Xjzqkeox2OViG29Q7lfRloscBRILBGjCVuHbqD8Ni2piJhrojzgI3GLArHXUyK2SOivJwKJJWLCuwg74hcnjI03xkl37bXXmpeJl8pLQiVinII8+FYY9hIHi/eaRXC8Qp9sfn6xVePpjjWxhBZq1EQg08TF0IjtNc6dOycdOnQICnZin9euXRswbySJmFHexx9/bAiY0R6RPsQgOx3J2N5xICsRB2xGTQSBxBIxZQwfPtzY0azzAycHpgYeTKIciC31kmCJmJXh8PxjD27Tpk2c4oiYuPrfMDVsedj0UqrEKhHnz5/f10FjdsCUkBQSSSJmsgYThjDrEAboFt9O2CcRQ0rESdHaKbyMpCBiYiexpaEN3HjjjSbcjNhkHCE4RAKJJeL58+e7Buvbcwl9Yij42muvyUC/cCE6AGy+xBjjZPESho9uMaFe+aPteKwSMVEQaI3MQrv//vsDzpLEoYfmHIxEioiZwIE5jPvC2cnoz02sgqBE7IaOHouDAA4swsESu9YE5geiKAj1YdFypppCnAwxA4klYma+oT27hbjZ6AzKoeNA03AK0RREVWD7RRv/448/nMlmGxLGC891mEnlFXbkPJGpuHXr1jWTXegIiEGOpEQDEX/++edminSoy2AStoY9FWcfnbSb4NjCfks7ETaWECFHiogxwxH5ARFjamHykL/gu8BvQseiROyPju7HQwBvL2sxYEZIzHrEvFzEFfPy8PAFiul1VsISMQHv2ASxqznXhCD+lZfyqquu8pydR3kMEbFFEv7E5A1niBT3SPgcLy7RAcwETGjdCGzPxLHyQiEMRdHmIinRQMTY4ZlsESoRo0XSgRLdwoQbYrmdJgpm8DFBgrUkaDvayK1TduIfKSKmDtY0wcxS4q+d5jcmlvAu4CPBLKNE7Gw13fZEgKUN0TqdBOjMzIyyt956y3ko3jbExZoSOCcQt5lc8U7694AlYmzKaBC84HQMaKzY4HiY0TzYZ8EZtxl8lEu85jvvvGOmwPJSUBaOO7RaOzUZswTlu828868b5REHaiXUECl7Xri/TJBhrQOnMGUWQiP8y7+t6DT8p/I615qAtNzEOtKCDV+zy6ay0I7b7ESwZ2TjJkxdJiyNRaM4n+nsTEfm2YOwEDpk7oNnwF+InGGKt5UrrrhCmHBD548D01+8ntukiJpgwomNcwYHOhmcxjw3OPLwaRDNgRIBttSREE9nPDGx7/7vFSNJ+xUWlCN/QTFJaJEt/3Muxr5+oSMJUEYbwZbLal/OOEhbtP+iP/a4/++QIUOMI23fvn3Cyl+B4kXtuU4iZujKpAxmx+XNm9dmMS8lkz0SioigM2CxHOI+rSZrC2FIzLWw2wUrTPyAeLgPJj3426aDLSecfIEW/XErz21RouQgYrtwD2TJTDj2nQIRuy3aZPPQrtjx6QAgUiuQFQoBz6GXOctOsrDnJPTr9dwmBRFzbUYojLQgXyuQJ2Y6zF+QKhNTGC2CFaM9TGhWbKdm94P55V31nzgVzHnJnUeJOLkRDqF8u2h4oBlL/sX5E7FNZ/lFbIZoesHYc+159hdTBtow2gOaCjbwcIQXCCekm8YVTnl6zv8jgPmKEQ8kBnmxdGQ0EkxC7cV9cA9X/xu1gwackMkrofJiNV2JOEpazs6eskNTt2GVW1W9iNgtrx5TBBSB6ERAiThK2oVhIDbNYGZEOausROxEQ7cVgdhEQIk4Qu3GkJ2hP4KdkHn12JexmyU0I8pZZSViJxq6rQjEJgJKxBFqN9YBGDp0aJyrE4+MZzgUUSIOBS3NqwhEJwJKxBFqF0J0iKtlaieOLOIqWdMgVOGbeUzCICzNGdoTajmaXxFQBCKHgBJx5LDXKysCioAiYBBQItYHQRFQBBSBCCOgRBzhBtDLKwKKgCKgRKzPgCKgCCgCEUZAiTjCDaCXVwQUAUVAiVifAUVAEVAEIoyAEnGEG0AvrwgoAoqAErE+A4qAIqAIRBgBJeIIN4BeXhFQBBSB/wMAAP//vLffKAAAI6xJREFU7Z0J3FXT+scfN0MaNGou0YCUjEmlKFJkaJ5QiEiiibqie3Er6jYoQ4MIubgliYpmpUEqdStKIumqNIrSQP/3u651/vvsd5/znvOec9rnPed5Pp/33XuvtfYafmvv337Ws561zknFihU7LiqKgCKgCCgCviFwkhKxb9hrwYqAIqAIGASUiPVBUAQUAUXAZwSUiH3uAC1eEVAEFAElYp+egVatWkmzZs08S9+wYYP079/fM04DFQFFIPUQUCKOsU/Lly8vHTp0kAMHDsjQoUMjzu3RRx+VHj16eKZfvny5NGnSxDMunQIvbtRL+EO2f7NEpo9smk7N17amEQJKxDF2dp06dWTy5Mmyfft2qV69esS5ZUySyplnnhmUvm3btnLPPfeIEvH/YFEiDno89CKFEVAijrFzs0vEXsV269ZNHnvsMSXiP8FRIvZ6SjQsFRFQIo6xV5WIYwQwzO1KxGHA0aiUQkCJOMbuvOWWW2TMmDFRmya8ilWNOBiVmk2flir1OpnAVLIRFy5dVU47/QzTrj3b1srhQz8HN1yv0g4BJeIourxgwYLSpk2bwB158+Y1ng8VK1Y0k3VDhgwJxDlPli1bJqtWrXIGeZ7HQsS5cuWSxo0bCxp66dKlJXfu3PLVV1/J+vXrTdmcRyoFChQQvDqqVq0qixcvlkmTJsnvv/8e6e3ZSufUfqPNYMbzzeXHrz8N3HbDg1OkRIUrA9fOk1Uzhwh/JSvVlgvqdpL8hcpKoTJVTRI32d81fHvgVncZNsJZls3bxjmPEG+VevdKxRqtJX/hss4o+f4/M2TlzH8KpKySnggoEUfR75UqVZJFixZFccf/kg4YMEBGjBiR5X3ZJeLKlSvLxIkTpVy5ciHLmDBhgvztb3+TgwcPhkxjI7p37y59+vSxl9KuXTuZM2dO4DoRJyeSiPMXKScVL2+VqRmJImJI+IYH3g0QfqaC/wxY9OZDsvGzt0NFa3gKI6BEHEXnohFDSk5Ba2zevHlY97WlS5fKypUrnbd5nmeHiKnTvHnzpFSpUkbznT59upns27ZtmxQvXlxq1apl3OvQktesWWO05mPHjnmWbwOHDx8ueHBY6du3r4wfP95eJuR4ooj4SIYZ4NQ/zQLuhiSKiJ1aM2Xu2bZOtmRowXwQzqraWE45PX+gKqE070ACPUlJBJSIY+xWv23E+Bu//PLL8sMPPxjSPXz4cKYWYUIZNGiQjBs3TlavXp0p3h1Qs2ZNGT16tJQoUUI2btwoLVq0kB07driTJfzaSc5ukoymcGc+9j7y27Jmhuz57zobJIcP7g8yD8TDNFE5wxRRp93/RkNHDx2Q2eM7BplR0JYbd50ihUtfYOpxYM9W+feTlwfqpCfpgYAScYz97DcR9+7dW3r16iWzZ8+W9u3bx9ia4NuLFi0qu3btCg48gVdOAo0nEYez5TqbFw8ivrX3nADJLpvyhKxbMMZZhDnHZtzyieWB8PcGXxv0QQhE6EnKIqBEHGPX+k3EjRo1Euy/+/btk4YNG8qWLVtibFHy3J4IIsYs8N7gBhE1MlYiRtttP3BjoKyJfSuH9JBwEnakH4pAxnqS4xFQIo6xC/0m4vz588vcuXPNRB1miVmzZhnzw6ZNm4S/zZs3S1Y24RghSNjtiSDirWtnyqxxHSOqc6xEjGdG4wcmB8ravmlx4Nx9gkubtV0rEbvRSf1rJeIY+9hvIqb6JUuWNF4ZdevWlZNOOimoRZDzp59+aibbIOmcJIkg4mhILt5EHCn2sZhhIi1D0yUXAkrEMfZHMhCxbUKZMmXkyiuvlCpVqgi+zRUqVJBzzjknQM5M2A0bNswmT/pjqhExBBuJ7PlhnSyd0i+SpJomRRBQIo6xI5OJiL2aUqhQIbPL27333ivHjx+XCy64QHbv3u2VNOnCUo2Ixz9cIukw1golBwJKxDH2Q7ITsW0ebmu4o3Xq1EmmTZtmg5P66DcRO/1/Q5k0skrjNG+E84bAnly4VJUMr4qxSd0nWrnEIKBEHCOu1o832m0wvYrNzoKOevXqSe3atWXw4MFy9OhRr2xNGEudixQpIq1bt5b58+eHTEcEy6PxxmCxypIlS8xkINr0iRa/ifi6Tq9K2aqNTLOZaJs+Kngjf7wibs5wT7NLlr3Ium775wKr+LzyIHNnPix3Xpixwk73nzjRT5u/5SkRx4g/ewqzYm3nzp1R7UfsVWy0RMxqOpZcs2BjxYoVwv14Sjjl1FNPlYceesj4Gh85csSQ6/79+51JMp136dIl6BdCmjZtavacyJQwwQFOImahw6YQy38JJ94KiyjyOvZzKFmxlpTI+EMgwx89vBfceZDWuRiDa0jSaqyn5D5DLs3YtN7uU0G8FxG7fYQpf+38MbLjm8UZdSwnRTK04Isa9w6Q+a8Z7cC9TokYRNNHlIjj0NdTp06VGjVqhFz8wD4TrGpzSteuXaVz587OIMmTJ4/ky5fPaLZ79+4NimPTnpYtWwaFcYHNl93fmJxDWICBGYIlztWqVTPxkDEaLeVR16xk1KhRQWX169dPxo498UNmN4mFqrd7WbDTXBDqHne4Ow8b7/TvtWGhjl5ETFo3oYe6n/A5L99plj+HS6NxqYeAEnEc+pTNgAYOHCgXXXSR4NfrFq9Nf8L9VJL7fq7Xrl0rDRp4L0SAwHv27Gk8JiBmTAtOWbBggYwcOVIWLlzoDA55Xr9+fbNsmnyZ2GOhCEuo/ZALMnYsu6Lpk2GLdpNoPIkY/966GUuU7RJkZ0VYsnzk0L6A9h2KiLkHMr4iY1tP574S7rzcy5+d8Xqe2ggoEadY/7IdJh+GsmXLmv0htm7dKm7tOpImo0Xj+sZeE3/88UcktyQsDWRYNGMvBqe5wVmY26zgNk0404Y6d+fhTscHoUjGdpn5/jR5sE/Fps/ekrOqNQ7UC/c053ac7jywBVes0UZKVaqVQcgFTPQvGaaI7RlbeOqua2600utaiTi9+ltbqwgoAkmIgBJxEnaKVkkRUATSCwEl4vTqb22tIqAIJCECSsRJ2ClaJUVAEUgvBJSI06u/tbWKgCKQhAgoESdhp2iVFAFFIL0QUCJOr/7W1ioCikASIqBEnISdolVSBBSB9EJAiTi9+ltbqwgoAkmIgBJxEnaKVkkRUATSCwEl4vTqb22tIqAIJCECSsRJ2ClaJUVAEUgvBJSI06u/tbWKgCKQhAgoESdhp2iVFAFFIL0QUCJOr/7W1ioCikASIqBEnISdolVSBBSB9EJAiTi9+ltbqwgoAkmIgBJxEnaKVkkRUATSCwEl4vTqb8/W8jt3jz/+uPz+++/Svn17zzQa+D8EatWqZbDip6SeffZZ+eijjxSaDATuvPNO6dSpk/z444/C7zF+8803iksUCCgRRwFWsictX768dOjQQQ4cOCBDhw6NuLq1a9eWd999V44dOyalS5eO+L6ckvDqq6+WevXqyX/+8x/Tzljq/fLLL0uTJk1MFsuWLZObb745lux8vbdjx45y1llnybRp02TlypUx1YVfGS9UqJDJY9iwYTJo0KCY8ku3m5WIU6jH69SpI5MnT5bt27dL9erVI25ZqhOx/cVsPjb3339/xLh4JezVq5f07t3bRL366qtG+/NKlxPCpk6dKjVr1jS/AP7GG2/EVGWw5TlC7r33XiFvlcgRUCKOHKukT6lE7N1F8STik046SapVqyaYJtAi/f6Fa+8WRxYaTyI+5ZRT5IorrjCmCTVLRIa/M5USsRONHH6uROzdgfEkYu8ScmZoPIk4ZyKQPLVWIk6evoi5JrfccouMGTNGTRMuJJlUw3YeD9OEK+scfblo0SKpVKlSXEwTORqIJKi8EnEMnVCqVClp1aqVnH/++VKsWDHZuXOnbN68Wd555x359ttvw+bMxEbr1q1NmvHjx8uRI0c80991111mGDxz5kz57rvvAmkKFiwobdq0CVznzZtXmjVrJhUrVjSTdUOGDAnEOU+YYFq1apUzyNj2nJN1+fLlEyZyLr30UsmTJ49s2LBBKH/x4sVB94W7uOqqq+Syyy6TCy+8UBjOr169Wig7qzzAlAkwhvx8VKKtS5UqVaRu3bqBqhUvXtx4ghQoUMBM1k2aNCkQ5zx57733zAfMGVa2bFm58cYbnUFB52+//bbs3bs3KCyrC4bvNWrUMOaNwoULyw8//CDz5s2TDz74wHitZHV/dp+5a6+91jwbNv/zzjtP2rZtay7ff/99WbFihY0KHG0fBAL+PMGufNFFF7mDzfVvv/0m2M6jESaZmVDlWQFznjcmVj/++OMs8UX5KFmypHz22WfGVAS2vBdMQvI+ks+ECRPk119/jbhKPCu811WrVjXPK88MHkWJFCXibKALsfTs2VN69OghuXLlypTD0aNH5fnnn5eBAwdmirMBvAgLFiwwl5UrV5b9+/fbqKDjxo0bhQfjjjvuCHKVQpNBo4lWBgwYICNGjAi6zTlZB/nyYvIgO+X48eMybtw46devnzM40/kZZ5whgwcPlltvvTVTHAFMJj7yyCPyyy+/eMbHWhc0XzTgaAVPiOXLlwfdVr9+ffnXv/4VFOa84GND/0Qip512mjz11FNGM/dKj70ZzA4fPuwVbT5msTxzo0ePDtknngVmBPIclylTJlM0z8CDDz6YKZyA3bt3Cx/DSKVdu3bCM3n66adnuoVJZyZXw328+YBeeeWV5l3jw/HYY49lyuf777+Xu+++W9asWZMpziuge/fu0qdPn0AUdZwzZ07gOhEnSsTZQBUCxu6IFsuLumTJEtm0aZPRLG+44QYzaUG2DzzwgITSwGIlYjRiHhCn8AVv3rx5WPe1pUuXZnJVsuTHV3/WrFnm4wJh4hOKOxu+xXZG/L777pMpU6Y4iw2cM4E1d+5cM9zdtm2boJV//vnnRrtFO+7bt6+UKFFC1q1bJw0bNjTucoGb/zyJtS74ROOq5hRIlg9MOPc1RgS8+E5BO7vpppucQYYw+JAg0RAxmOGDzAdo5MiRRgOFOKhr06ZNpVy5cmYkFYrgYn3mrrvuOtMvzsbwfBYtWtRo46E04pdeesl5izmH+C6++OKgcEaFaJHREDEfFrDkuUNrhezog7PPPts8x40bNzbPDqOzUP7aloinT59u+ph8bFsuueQS88Gwozo+rLhoZiXDhw8PjBZIy3PLqDWRokScDXRxXEcr6NKli/AAuAUfXsjr66+/FibQvCRWIvbKM1YbMXmiyT/55JNB2TMCePPNN4UHGfMIw2sv6datm9FIIFq0u59//jkoGeYYhuEMJdFc0LDdYomY8Fjq4sw3njZiPoAMnZFIiRjzBi/yvn37zAdoy5YtzuoZEp49e7agNUP8XppbPJ65oEIzLuJpI7ZtjJSIeQZQCnLnzm1MdPPnz3dXT+zzhBcG5iYvErVETLnXX3+9bN26NSgfFIAPP/zQhIVTjJw3YXphBIHSwIinRYsWsmPHDmeSuJ8rEWcTUl5IXiwvgagY3qPx8HXHbuaWZCVi/I/dmiF1R5uzmjBtOnjwYFCTwANNBJsu2i42YS/BfodpBOwYwrptb04izm5d3OX6TcQLFy4UzE/9+/cXLw2T+kIY2Iu9sLftifWZs/nYo59EbPsEIu3cubOtUtARsx8EDXaYC1AG3GKJGD9oNGwvsaMRrw+7V3obxmhh165d9jKhRyXiBMDLhIqdEGPywK0BUWQyEnG4lXVMRjK0R9CM0XqdgnaIGYYJEvxsQwnDfcwVCJqHe1LTEnEsdXGXbV/6eHhNRKsRR5veXfdIryN55tx5+UnEzI/wDrBA5vXXX3dXLXD9z3/+U2677TZ566235KGHHgqE2xNLxMzHYFLwEuYsmGOZMWOGYOZIRlEijrFXGFpBUszOM7REihQpYmb8OU8VIj755JMFuy/CMNSSqQnI+Id3By8D5phQHhukxczx4osvmuPtt99uZsZtHhwjIeKs6uLMj3M/iRhbKh4nCHbgUJNxJkGE/7L7zLmz94uIeQYwcdGOli1byieffOKuWuAamzlmQLwi3PZ6EkVCxNh4H374YaNdW0+lQAFJcqJEnM2OYILlnnvuMRME4bJIFyJ++umnDR7hsHDHeU2CpBoR85xYcwR2UcxV2ZVYnzl3uX4RMbZXa7ry8lZx1hPb+D/+8Y+QIy0lYidaaXZuZ7Bx6cI3lr89e/YEfIFx4YJkkHQhYqt1rF+/PuQQ0f2YMCmVHdNETtKI8Vaw+zjEQsTxeObc+PtFxPi842+PoOWi7YYSS8RM2DFP4RYlYjciaXLN1/yLL74wQ2tejokTJ2ZqOS8caZBQRHzuuecGhmS4XIWaFAjlR5yp0IyAWL0mwtllsyI/ZpaZDMF2jA05u5JqGrHT35vJSWb3o5V4PXPucv0iYurBfAMmPfx7WcwSSv76178a2zBuldiK3aJE7EYkTa4bNWpkfB7xIT7nnHOM07u76ZFMnDgnccJ5GaAx4gfpXtDhLpNrP4kYDwdWQoFLhQoVAqMDr3pC6l6uSKRNNSLGtxp7KB4AuPThcx5KSOP2IiFtvJ45d7l+ErHd5wKzw3PPPeeuWuAaF0e0ZlZZsme2W5SI3YikybUdavLC4HL03//+N1PL7YtDRCiNmDj8USHkUA+j07MiEiLG3sZ+ubhAxXsbzKw0YiZgcLqnXCbHmO32EvxBmd1m5RLE7ZZEEDErt9C8/PCaoH2jRo0yk1JM2rHyz0uYuGTCE19XzDtOiecz58zXei7g9mXNJ874aM6j9SNm0gwCZtUbvvZek5is7sT1j53dGjRokAkX6pcIImYSkXeYBVJ8OFmkhBkykaKTdVGii9kB1zSI55VXXjG2YGcnQUQs6GDPBzo0HBHjT4tfLcubeUGd2lL5jPX3rMBi1p0HMRIiPvPMM81iAFzITjQRA6P1n0YrhvzQYqyGh7YHybKwIX/+/MI+DTjsuyURRMzeFWPHjvWNiHHZY5ku2jGkzKbpLB9G+MCxEIEFBH/5y1/Makl8Z50Sz2fOmS/14Jc1/CBi2spKOsw1mCZYYec022DSwdTFcxzqWaEtiSBiFmrh822FSdJwy6xtuliOSsTZQI8hUteuXc2d2HYZ4rHAAbsvDw4uOdhMWV3Hl56Z8muuuSbTxBTESQczuUeaL7/80qwMwhWOfNCUISuvvSZCVZshH+QfyuYM+btXtMWT/HA3QtuFYNDM165da8iYZbG0E+FDxgfIa0FMPOtiMcK0A7Z8PEPt6YH90c7k2/uoi/V4sGEQCI7+CBO0bhMLoyQv7Y72MlLAxZG+YaISMmYCig8TEmq1IXHxeubIy4rdNpVfdDl06JANDhypH8uE3YIrGCMMp9AunlOeY/ezhz3YvRyfe/E3Z4Mg9rOgDuDPM8OCIbvnM26SHTN8f3/66SdncYHzRBCxHcHYQnCf40OeSFEizga6kAxfTUjSvkRkgw8tLy7DPB4uVgNhLsD8wAvntWE2Dx3k6Fw2zEq8F154QZ555hmzxDIaIkaTwJ+X3bGcdbPNzGrTn1A/lZSVacLmz5F9HdC2mIREE7YCceG8j9nCi6xIlwgiJl+G93h2gA+aqVu83KiYdAy36Y87D64ZTnutpCQO7Q8faz6y4GmF5bO8/IwgQkk8nzlbBh8VPpyQJD7OXDslO5v+OO+353x4Gep7Cc82zzmjAj6YVtjV7rXXXjMfL/fHzqbhmAgipt8x8VEftHTmcFj1mEhRIo4BXUwPTNgxdETzi2U9OlowNmEIit//8tIWY6iqL7eCD5vBsMCFxSB8iDBbpLvwIYCU0ax5wcHFmiqywiaez1xWZZ3IeD4CTPJixsFTKNHEl1Xb6CPebeoSi+93VuXYeCVii4QeFQFFQBHwCQElYp+A12IVAUVAEbAIKBFbJPSoCCgCioBPCCgR+wS8FqsIKAKKgEVAidgioUdFQBFQBHxCQInYJ+C1WEVAEVAELAJKxBYJPSoCioAi4BMCSsQ+Aa/FKgKKgCJgEVAitkjoURFQBBQBnxBQIvYJeC1WEVAEFAGLgBKxRUKPioAioAj4hIASsU/Aa7GKgCKgCFgElIgtEnpUBBQBRcAnBJSIfQJei1UEFAFFwCKgRGyR0KMioAgoAj4hoETsE/BarCKgCCgCFgElYouEHhUBRUAR8AkBJWKfgNdiFQFFQBGwCCgRWyT0qAgoAlkiwA+whvsdP37wlh8LVYkOASXi6PDS1BEicPXVV0u9evXMS/nuu+9GeJcmO5EI8OvI/NjptGnTZOXKlREVzW/L/fjjjyHTtmrVShYsWBAyXiO8EVAi9sZFQ2NE4NFHH5UePXoIJHz//ffHmJvenggEpk6dKjVr1pSePXuaXx6PtAx+ndstM2fONL+OrUTsRiayayXiyHDSVFEioEQcJWA+JM8uEXtVdevWrUrEXsBEGKZEHCFQmiw6BJSIo8PLj9RKxH6g7l2mErE3LhoaIwLPPvusdOjQQU0TMeKYyNsXLVoklSpVito04VUn1Yi9UIk8TIk4cqw0ZQgEqlSpInXr1g3EFi9eXNq3by8FChQwk3WTJk0KxDlP3nvvPdm+fXsgqGrVqlKnTh35+eef5c033wyEe53kypVL7r77bmHyaMqUKbJjx46gZG3atJGCBQuaiaMvv/xSypcvL0wg1q5dW5j5/+KLL+Sjjz6Sr7/+Oui+UBfnnXeeXHXVVVK9enUpWrSorF27VlavXi3YRo8ePRrqNs/w5s2bm7y++uoreeedd2TPnj2e6eIZeO2110rFihUDWdKetm3bmuv3339fVqxYEYizJ3/88YeMGTPGXoY9xkLEl1xyidx8881SpkwZKVy4sHz77beyfv16WbdunXz22WdCPVJdlIhTvYdPQPvQfNGAo5UmTZrI8uXLA7cxg79s2TJDlJDexo0bA3Huk+uvv15ee+01+emnn+Tiiy/ORIZW2+vVq5d888038vbbbxsbpjOfgwcPSteuXeXDDz90BgedQ/QPPvigPPLII3LyyScHxXEBGd93332yefPmTHFeAVdccYVAfFZGjRolTz31lL1M2HH06NFy6623RpU/HxjIMRLJDhHnzZtXJkyYYD5KocpYsmSJwZ/8U1mUiFO5d09Q25hFx1XNKZDspZdeGtZ9DY8Kp0bM/WjCDRo0kLFjx0q/fv2cWQadT5w4UdDyRowYIQMGDAiK48IS8auvvirXXHON/Pvf/zYuWr///rucf/750rlzZylZsqQcP35cmjVrJosXL86UBwHkj3b922+/yfDhw2X+/PmG/Mmje/fupo2//vqr0ba///57zzycgXgVjBw5MhCE61inTp0C14k6ue6664wZwpn/Aw88YLT7Dz74IKRG/NJLLzlvCXmeHSK2fbht2zZh1MRHecOGDWYkU61aNbntttsEbfnAgQOmD1OZjJWIQz5aGhELAtm1ETds2FBef/112bdvnzEDQIBuQUuzmnSNGjXE6wW1RLxr1y5p1KhRpjSYTSZPniy88J988om0bNnSXYxcdtllRltGcyYPSMIpmEfQ6CC56dOny5133umM9jynXCbJIHK0ebTtefPmeaZNdKDFKFr3Na96RUvEmCAwGSGYo7xMRJiQ+Njxsc7KVOVVp5wUpkSck3orB9U1u0QMuUGypUuXNiSFDdUtffr0MS/o7NmzjS3aHc+1JRmG5E888YRXErn88ssFbRBBo8dm6xS0VYj+73//u7zwwgvOqMB5uXLljB0T0kBDj3RVWZEiRYxtGI3cL7EY+UHEtWrVMrZ9PnJnn322XxAkTblKxEnTFalVkewSMSg8/PDD0rdvX0PImDicgp2WVWBMCN5+++3y8ccfO6MD55ZkevfubWzJgQjXCfbjfPnymUUnzhWAp556qnz33XfCh4EJvk2bNrnu/P9LJrrQ0lnAwnA7p4jFyA8iZiIVjRgbPCMJRhTpLErE6dz7CWx7LERcrFgxQ7annHJKJk31hhtukFdeeUWwK6LRYvP1EksyTNZh6gglc+bMEbw12CPhueeeCyQ799xzjckCjbVLly5hZ+4hssqVKwv21P79+wfySPYTi5EfRAw248ePlxtvvNHY6ZmUY6IWEwUfPSZqDx06lOwQxq1+SsRxg1IzciIQCxGTj53ld0/a2cm8QYMGybBhw5xFBp1bksmKiHE/w+sCUkALtwJBEBaNnKiJt2jqFC6txcgvIuZDywewdevWkjt37qCq4rKGiyAbDPEhjdZFMCizHHChRJwDOiknVjFWIrY2RCbtLrzwQjl8+LCUKlXKzO7zkjKb7vYdduJkSSZSIsaT4emnnw5kgV80nhZo3JHulYGW/vnnnwfySPYTi5FfRGzxYQIT8w/eN/g6V6hQQRiRYB5CZs2aJXfddZccOXLE3pJyRyXilOvS5GhQrERMKxYuXGiG/BAh9ltIFZsvE2ws5ggnlmSyImKGw+UzFnswAYjJwwqkv2rVKnOJ2WH//v02KmWOFiO/idgLUEi4RYsW8swzzxhCxsWPEUeqihJxqvasz+2KBxHz8jF0/fTTT81LibaJNwWuZrichRNLMnhMYObwEobDLMRgQg6fVTQvK3hBMJHHooOmTZuG9DMmPfeHslXb/JLxaDFKRiK2eL344ovGz9ttOrLxqXJUIk6VnkyydrDIAq01lm0wzzjjDLNy7fTTTzeLOyBliBOzRVZuX5Zk8KrAu8JLrHcG2i6mjl9++SUoGW5rrJojL5YlewmLQliqjbfE888/HxEh4yrHykHc5WbMmCEsCPFD2DeYpc5+EHHZsmWNdwzPye7du0M2f9y4cXLTTTeFXLgT8sYcFqFEnMM6LKdUl70DmGiLhYhp69ChQ42vMBonmmc4n14nNpaId+7caRZd4BHhtDHecccdxiZ82mmnhXzJsV0uXbrU7H/w1ltvGX9kp4mCDXPYi4G9Npjpr1+/vrFlO+vhPmevCqfL3ZAhQ2Tw4MHuZCfkmglPXMdONBHTj3yAwAI7f7du3cwIx7mnBG5tLO4BX/qIfTHmzp17QnDxoxAlYj9QT4My8+TJY/xEGeI7ycvZdMwB7NUQTpiosyYDiJTrvXv3hrvFxFkixvbLkmmWWzMLD6Gzqq1EiRImHZvLsMQ5VJ5XZ2wUhFtaoUKFzFJb8oA8WOiBHRlhhVy7du1kzZo15jrcP9I5vT0gpI4dO4a7JWFxrGhjdSFLiL1cxfBUYKTgFAjSq89wOUSYXHV+8AiDaN2rB8GTCVJWJSKMCsCW1YvY7PFkyZ8/v4nDdk8/prIoEady7/rcNl4yXMLQHO0MuLNK7k1/nHHOczQhZtTZj4D9ESIRS8RM1nEfe0ZAyCzeQCAZSBDzRFamAUgbrRVPCqebFYTDcuWBAwcav+ZI6sXObZASxMXybdpjV/dFcn8809gNjfg4sEKQa6d4bfpDmnA/leS8356zKRRugm7hI81HCN9wPrAs8nAKvsTYiNmwKSfa4J1tyepciTgrhDTeVwTQitA00bCxFbItYiTiJGK7oINVebzwkAlLkXGJi0YYUuNaxS5xmDzYrpEtO6MVCAhPjC1bthgyjvb+VE2P3Ri3NbRqXAHZYyKruYBUwUKJOFV6MkXbgf8oGifLYa/OMBNEKl5EHOm9mk4RONEIKBGfaMS1vKgQsDP7mDiiWemmRBwVzJrYZwSUiH3uAC0+GAFm0tnQB2GoinsTv2DBvhJu97LgO4OvlIiD8dCr5EZAiTi5+yftaofWyz4PVnBpwpeXSbFoRIk4GrQ0rd8IKBH73QNafhAC+PcyoXbs2DEzWcPPGHltGh50k8cFS6HRrPGYwBdYRRFIZgSUiJO5d7RuioAikBYIKBGnRTdrIxUBRSCZEVAiTube0bopAopAWiCgRJwW3ayNVAQUgWRGQIk4mXtH66YIKAJpgYAScVp0szZSEVAEkhkBJeJk7h2tmyKgCKQFAkrEadHN2khFQBFIZgSUiJO5d7RuioAikBYIKBGnRTdrIxUBRSCZEVAiTube0bopAopAWiCgRJwW3ayNVAQUgWRGQIk4mXtH66YIKAJpgYAScVp0szZSEUg9BPgdw8cffzxkw9q3b59jfutOiThkN2qEIhB/BPixTH7zbtq0abJy5cr4F5BGOdpfoQ7V5DJlypgfiQ0Vn0zhSsTJ1Btal5RHgA3ua9asKT179pQ33ngj5dubyAbmzZtXypcvH1RElSpVZNSoUSYsJxHx/wE6nyfzm4alKgAAAABJRU5ErkJggg==;" vertex="1" parent="7">
                    <mxGeometry x="70" y="510" width="181.18" height="130" as="geometry"/>
                </mxCell>
                <mxCell id="12" style="edgeStyle=orthogonalEdgeStyle;html=1;" edge="1" parent="1" source="4" target="11">
                    <mxGeometry relative="1" as="geometry">
                        <mxPoint x="530" y="189" as="targetPoint"/>
                    </mxGeometry>
                </mxCell>
                <mxCell id="21" style="edgeStyle=orthogonalEdgeStyle;html=1;exitX=1.005;exitY=0.495;exitDx=0;exitDy=0;exitPerimeter=0;" edge="1" parent="1" source="14" target="18">
                    <mxGeometry relative="1" as="geometry">
                        <mxPoint x="220" y="407.9999999999998" as="sourcePoint"/>
                    </mxGeometry>
                </mxCell>
                <mxCell id="23" style="edgeStyle=orthogonalEdgeStyle;html=1;" edge="1" parent="1" source="14" target="22">
                    <mxGeometry relative="1" as="geometry"/>
                </mxCell>
                <mxCell id="45" style="edgeStyle=orthogonalEdgeStyle;html=1;entryX=0;entryY=0.5;entryDx=0;entryDy=0;" edge="1" parent="1" source="14" target="42">
                    <mxGeometry relative="1" as="geometry"/>
                </mxCell>
                <mxCell id="14" value="Do you need encryption in transit, outside of OpenShift Access and authentication?" style="html=1;whiteSpace=wrap;aspect=fixed;shape=isoRectangle;" vertex="1" parent="1">
                    <mxGeometry x="20" y="350" width="200" height="120" as="geometry"/>
                </mxCell>
                <mxCell id="20" style="edgeStyle=orthogonalEdgeStyle;html=1;entryX=0;entryY=0.5;entryDx=0;entryDy=0;" edge="1" parent="1" source="18" target="19">
                    <mxGeometry relative="1" as="geometry"/>
                </mxCell>
                <mxCell id="25" style="edgeStyle=orthogonalEdgeStyle;html=1;" edge="1" parent="1" source="22" target="24">
                    <mxGeometry relative="1" as="geometry"/>
                </mxCell>
                <mxCell id="47" style="edgeStyle=orthogonalEdgeStyle;html=1;entryX=0;entryY=0.5;entryDx=0;entryDy=0;" edge="1" parent="1" source="22" target="46">
                    <mxGeometry relative="1" as="geometry"/>
                </mxCell>
                <mxCell id="22" value="Do you need encryption and mutual TLS authentication?" style="html=1;whiteSpace=wrap;aspect=fixed;shape=isoRectangle;" vertex="1" parent="1">
                    <mxGeometry x="20" y="614" width="200" height="120" as="geometry"/>
                </mxCell>
                <mxCell id="26" value="YES" style="text;html=1;strokeColor=none;fillColor=none;align=center;verticalAlign=middle;whiteSpace=wrap;rounded=0;fontStyle=1" vertex="1" parent="1">
                    <mxGeometry x="190" y="200" width="60" height="30" as="geometry"/>
                </mxCell>
                <mxCell id="27" value="YES" style="text;html=1;strokeColor=none;fillColor=none;align=center;verticalAlign=middle;whiteSpace=wrap;rounded=0;fontStyle=1" vertex="1" parent="1">
                    <mxGeometry x="195" y="418" width="60" height="30" as="geometry"/>
                </mxCell>
                <mxCell id="28" value="YES" style="text;html=1;strokeColor=none;fillColor=none;align=center;verticalAlign=middle;whiteSpace=wrap;rounded=0;fontStyle=1" vertex="1" parent="1">
                    <mxGeometry x="195" y="700" width="60" height="30" as="geometry"/>
                </mxCell>
                <mxCell id="30" style="edgeStyle=orthogonalEdgeStyle;html=1;" edge="1" parent="1" source="24" target="29">
                    <mxGeometry relative="1" as="geometry"/>
                </mxCell>
                <mxCell id="34" style="edgeStyle=orthogonalEdgeStyle;html=1;" edge="1" parent="1" source="10" target="33">
                    <mxGeometry relative="1" as="geometry"/>
                </mxCell>
                <mxCell id="40" value="Application Config" style="swimlane;fillColor=#d5e8d4;strokeColor=#82b366;" vertex="1" parent="1">
                    <mxGeometry x="780" y="100" width="330" height="730" as="geometry"/>
                </mxCell>
                <UserObject label="security.protocol=PLAINTEXT" link="security.protocol" id="33">
                    <mxCell style="text;whiteSpace=wrap;html=1;fillColor=#d5e8d4;strokeColor=#82b366;" vertex="1" parent="40">
                        <mxGeometry x="20" y="138.82" width="170" height="61.18" as="geometry"/>
                    </mxCell>
                </UserObject>
                <UserObject label="security.protocol=SASL_SSL&lt;br&gt;sasl.mechanism=SCRAM-SHA-512&lt;br&gt;&lt;div&gt;ssl.protocol=TLSv1.2&lt;/div&gt;&lt;div&gt;ssl.truststore.password=&amp;lt;trustore.p12-password&amp;gt;&lt;/div&gt;&lt;div&gt;ssl.truststore.location=truststore.p12&lt;/div&gt;&lt;div&gt;ssl.truststore.type=PKCS12&lt;/div&gt;&lt;div&gt;sasl.jaas.config=&lt;/div&gt;" link="security.protocol" id="41">
                    <mxCell style="text;whiteSpace=wrap;html=1;fillColor=#d5e8d4;strokeColor=#82b366;" vertex="1" parent="40">
                        <mxGeometry x="11" y="390" width="309" height="120" as="geometry"/>
                    </mxCell>
                </UserObject>
                <UserObject label="&lt;font style=&quot;font-size: 11px&quot;&gt;security.protocol=SSL&lt;br&gt;&lt;/font&gt;&lt;div style=&quot;font-size: 11px&quot;&gt;&lt;font style=&quot;font-size: 11px&quot;&gt;ssl.protocol=TLSv1.2&lt;/font&gt;&lt;/div&gt;&lt;div style=&quot;font-size: 11px&quot;&gt;&lt;font style=&quot;font-size: 11px&quot;&gt;ssl.truststore.password=&amp;lt;truststore.p12-password&amp;gt;&lt;/font&gt;&lt;/div&gt;&lt;div style=&quot;font-size: 11px&quot;&gt;&lt;font style=&quot;font-size: 11px&quot;&gt;ssl.truststore.location=truststore.p12&lt;/font&gt;&lt;/div&gt;&lt;div style=&quot;font-size: 11px&quot;&gt;&lt;font style=&quot;font-size: 11px&quot;&gt;ssl.truststore.type=PKCS12&lt;/font&gt;&lt;/div&gt;&lt;div style=&quot;font-size: 11px&quot;&gt;&lt;div&gt;ssl.keystore.password=&amp;lt;keystore.p12-password&amp;gt;&lt;/div&gt;&lt;div&gt;ssl.keystore.location=truststore.p12&lt;/div&gt;&lt;div&gt;ssl.keystore.type=PKCS12&lt;/div&gt;&lt;/div&gt;&lt;div&gt;&lt;br&gt;&lt;/div&gt;" link="security.protocol" id="43">
                    <mxCell style="text;whiteSpace=wrap;html=1;fillColor=#d5e8d4;strokeColor=#82b366;" vertex="1" parent="40">
                        <mxGeometry x="15" y="600" width="305" height="120" as="geometry"/>
                    </mxCell>
                </UserObject>
                <mxCell id="44" style="edgeStyle=orthogonalEdgeStyle;html=1;" edge="1" parent="1" source="42" target="41">
                    <mxGeometry relative="1" as="geometry"/>
                </mxCell>
                <mxCell id="48" style="edgeStyle=orthogonalEdgeStyle;html=1;" edge="1" parent="1" source="46" target="43">
                    <mxGeometry relative="1" as="geometry"/>
                </mxCell>
                <mxCell id="46" value="use SSL and get server ca signed certificate and client certificate" style="shape=ext;double=1;rounded=1;whiteSpace=wrap;html=1;fillColor=#d5e8d4;strokeColor=#82b366;" vertex="1" parent="1">
                    <mxGeometry x="305" y="730" width="120" height="80" as="geometry"/>
                </mxCell>
            </root>
        </mxGraphModel>
    </diagram>
</mxfile>